SplineFontDB: 3.0
FontName: Inconsolata_NF_C_Custom-Medium
FullName: Inconsolata Nerd Font Complete Custom
FamilyName: Inconsolata NF Custom
Weight: Medium
Copyright: Created by Raph Levien using his own tools and FontForge. Copyright 2006 Raph Levien. Released under the SIL Open Font License, http://scripts.sil.org/OFL.\n\nExtra glyphs added by Kay Z.:
UComments: "Patched with 'Nerd Fonts Patcher' (https://github.com/ryanoasis/nerd-fonts)"

StartChar: exclam
Encoding: 33 33 2
Width: 500
GlyphClass: 2
Flags: MW
HStem: -11 118<222.5 255.5> 648 20G<232.5 250.5>
VStem: 180 119<31.5 64.5> 190 102<577 595.5 565 602.5> 200 92
LayerCount: 2
Fore
SplineSet
299 48 m 0xe0
 299 15 272 -11 239 -11 c 0
 206 -11 180 15 180 48 c 0
 180 81 206 107 239 107 c 0
 272 107 299 81 299 48 c 0xe0
241 668 m 0
 260 668 281 655 289 625 c 0
 290 619 292 607 292 584 c 0xd0
 292 546 285 508 283 470 c 2
 265 194 l 1
 215 194 l 1
 200 470 l 2xc8
 197 536 190 561 190 593 c 0xd0
 190 612 193 625 197 636 c 0
 206 657 224 668 241 668 c 0
EndSplineSet
EndChar

StartChar: quotedbl
Encoding: 34 34 3
Width: 500
GlyphClass: 2
Flags: MW
HStem: 412 255<167 189 169.5 339>
VStem: 143 81<538 626.5> 309 87<600.5 626.5 591 631>
LayerCount: 2
Fore
SplineSet
396 604 m 0
 396 578 388 546 363 478 c 2
 339 412 l 1
 284 425 l 1
 306 493 l 2
 311 510 315 528 315 548 c 0
 315 569 309 590 309 611 c 0
 309 651 333 667 352 667 c 0
 372 667 396 649 396 604 c 0
224 604 m 0
 224 578 216 546 191 478 c 2
 167 412 l 1
 111 425 l 1
 133 493 l 2
 138 510 143 528 143 548 c 0
 143 569 136 590 136 611 c 0
 136 651 160 667 179 667 c 0
 199 667 224 649 224 604 c 0
EndSplineSet
EndChar

StartChar: numbersign
Encoding: 35 35 4
Width: 500
GlyphClass: 2
Flags: MW
HStem: 189 46<25 29> 194 47<353 358> 407 48<148 153> 606 20G<234 234>
LayerCount: 2
Fore
SplineSet
173 624 m 1xb0
 234 626 l 1
 213 455 l 1
 323 457 l 1
 343 619 l 1
 405 622 l 1
 385 457 l 1
 476 458 l 1
 470 410 l 1
 379 409 l 1
 358 241 l 1
 458 243 l 1
 452 196 l 1
 353 194 l 1x70
 331 14 l 1
 270 10 l 1
 292 193 l 1
 181 191 l 1
 160 14 l 1
 101 11 l 1
 122 190 l 1
 25 189 l 1
 29 235 l 1
 127 236 l 1
 148 407 l 1
 39 406 l 1
 42 453 l 1
 153 455 l 1
 173 624 l 1xb0
208 407 m 1
 187 238 l 1
 297 240 l 1
 317 408 l 1
 208 407 l 1
EndSplineSet
EndChar

StartChar: dollar
Encoding: 36 36 5
Width: 500
GlyphClass: 2
Flags: MW
HStem: 14 58<235 235> 461 21G<398 399> 534 57<235 235>
VStem: 79 67<444 472.5 444 482> 235 58<-46 14 14 14 74 273 361 533 592 630> 235 65<643.5 647.5 643.5 651 643.5 651> 395 65<154.5 187.5>
LayerCount: 2
Fore
SplineSet
235 651 m 1xf6
 299 651 l 2
 299 650 300 648 300 647 c 0xf6
 300 640 293 640 293 630 c 2
 293 592 l 1
 352 586 405 559 442 515 c 1
 399 461 l 2
 397 461 394 464 394 468 c 0
 394 471 394 474 393 477 c 0
 393 478 391 478 388 482 c 0
 367 507 336 527 293 533 c 1
 293 340 l 1
 315 332 338 325 359 316 c 0
 380 307 460 273 460 182 c 0
 460 110 406 31 293 16 c 1
 293 -46 l 1
 235 -46 l 1
 235 14 l 1
 166 18 104 46 60 94 c 1
 103 154 l 1
 108 152 107 146 107 145 c 0
 107 141 106 137 110 133 c 0
 138 103 182 78 235 72 c 1
 235 292 l 1
 217 298 198 305 180 313 c 0
 96 353 79 409 79 446 c 0
 79 518 143 579 235 591 c 1xfa
 235 651 l 1xf6
293 273 m 1xfa
 293 74 l 1
 357 86 395 132 395 177 c 0
 395 198 387 230 345 253 c 0
 331 260 313 267 293 273 c 1xfa
235 361 m 1
 235 534 l 1
 172 527 146 490 146 455 c 0
 146 433 156 402 200 377 c 0
 210 371 222 366 235 361 c 1
EndSplineSet
EndChar

StartChar: percent
Encoding: 37 37 6
Width: 500
GlyphClass: 2
Flags: MW
HStem: -10 51<360.5 382.5 360.5 401.5> 0 21G<46 109 46 46> 198 52<360.5 381.5> 373 53<131 150 131 171.5> 582 52<128 146> 603 20G<391 458 458 458>
VStem: 28 61<473 536.5 473 541.5> 189 63<471 535.5> 259 59<90.5 150.5 90.5 156.5> 423 59<87 149>
LayerCount: 2
Fore
SplineSet
391 623 m 1x77c0
 458 623 l 1
 109 0 l 1
 46 0 l 1
 391 623 l 1x77c0
140 634 m 0x3bc0
 201 634 252 578 252 502 c 0
 252 428 202 373 141 373 c 0
 79 373 28 428 28 503 c 0
 28 580 80 634 140 634 c 0x3bc0
138 582 m 0
 118 582 89 566 89 507 c 0
 89 439 122 426 140 426 c 0
 160 426 189 442 189 500 c 0
 189 571 154 582 138 582 c 0
482 120 m 0
 482 45 432 -10 371 -10 c 0xb3c0
 310 -10 259 45 259 119 c 0
 259 194 310 250 371 250 c 0
 432 250 482 194 482 120 c 0
371 198 m 0
 350 198 318 181 318 120 c 0
 318 61 349 41 372 41 c 0
 393 41 423 57 423 117 c 0
 423 181 392 198 371 198 c 0
EndSplineSet
EndChar

StartChar: ampersand
Encoding: 38 38 7
Width: 500
GlyphClass: 2
Flags: MW
HStem: -10 64<177.5 225.5> 570 59<210 246.5>
VStem: 36 76<124 179 124 184.5> 91 70<484 519 484 535.5> 297 65<468.5 514.5>
LayerCount: 2
Fore
SplineSet
229 629 m 0xd8
 304 629 362 573 362 496 c 0
 362 431 319 366 254 330 c 1
 367 173 l 1
 391 200 405 231 412 254 c 0
 413 256 413 259 413 262 c 0
 413 266 412 269 412 273 c 0
 412 278 414 282 416 284 c 2
 480 239 l 1
 458 198 433 160 405 123 c 1
 475 32 l 1
 416 -12 l 1
 361 76 l 1
 321 27 259 -10 192 -10 c 0
 102 -10 36 57 36 146 c 0xe8
 36 223 85 301 162 343 c 1
 125 388 91 443 91 498 c 0
 91 573 153 629 229 629 c 0xd8
161 497 m 0xd8
 161 471 171 435 221 373 c 1
 267 399 297 446 297 491 c 0
 297 538 265 570 228 570 c 0
 192 570 161 541 161 497 c 0xd8
197 296 m 1
 144 261 112 205 112 153 c 0xe8
 112 95 152 54 203 54 c 0
 270 54 325 124 325 124 c 1
 197 296 l 1
EndSplineSet
EndChar

StartChar: quotesingle
Encoding: 39 39 8
Width: 500
GlyphClass: 2
Flags: MW
HStem: 412 255<262 284>
VStem: 238 81<538 626.5>
LayerCount: 2
Fore
SplineSet
319 604 m 0
 319 578 311 546 286 478 c 2
 262 412 l 1
 206 425 l 1
 228 493 l 2
 233 510 238 528 238 548 c 0
 238 569 231 590 231 611 c 0
 231 651 255 667 274 667 c 0
 294 667 319 649 319 604 c 0
EndSplineSet
EndChar

StartChar: parenleft
Encoding: 40 40 9
Width: 500
GlyphClass: 2
Flags: MW
HStem: -172 21G<393 393> 646 20G<392 392>
VStem: 139 69<184.5 333.5 184.5 349.5>
LayerCount: 2
Fore
SplineSet
392 666 m 1
 422 605 l 2
 419 603 415 603 414 603 c 0
 410 603 406 604 403 604 c 0
 399 604 396 602 394 601 c 0
 277 532 208 405 208 262 c 0
 208 107 288 -40 425 -120 c 1
 393 -172 l 1
 235 -89 139 76 139 258 c 0
 139 441 237 598 392 666 c 1
EndSplineSet
EndChar

StartChar: parenright
Encoding: 41 41 10
Width: 500
GlyphClass: 2
Flags: MW
HStem: 646 20G<97 97>
VStem: 293 71<173 322>
LayerCount: 2
Fore
SplineSet
78 603 m 1
 97 666 l 1
 260 591 364 428 364 250 c 0
 364 70 257 -95 91 -174 c 1
 72 -114 l 1
 207 -43 293 98 293 248 c 0
 293 396 210 533 78 603 c 1
EndSplineSet
EndChar

StartChar: asterisk
Encoding: 42 42 11
Width: 500
GlyphClass: 2
Flags: W
LayerCount: 2
Fore
SplineSet
213 519 m 1
 294 519 l 1
 293 507 289 504 288 492 c 2
 273 342 l 1
 432 414 l 1
 458 353 l 1
 287 301 l 1
 413 150 l 1
 358 107 l 1
 250 273 l 1
 138 106 l 1
 83 150 l 1
 214 300 l 1
 42 353 l 1
 67 417 l 1
 229 342 l 1
 213 519 l 1
EndSplineSet
EndChar

StartChar: plus
Encoding: 43 43 12
Width: 500
GlyphClass: 2
Flags: MW
HStem: 291 61<45 222 45 222 285 456>
VStem: 222 63<104 291 104 291 352 523>
LayerCount: 2
Fore
SplineSet
222 523 m 1
 285 523 l 1
 285 352 l 1
 456 352 l 1
 456 291 l 1
 285 291 l 1
 285 104 l 1
 222 104 l 1
 222 291 l 1
 45 291 l 1
 45 352 l 1
 222 352 l 1
 222 523 l 1
EndSplineSet
EndChar

StartChar: comma
Encoding: 44 44 13
Width: 500
GlyphClass: 2
Flags: MW
HStem: -168 271<199 254>
VStem: 230 76<-42.5 45.5>
LayerCount: 2
Fore
SplineSet
306 20 m 0
 306 -32 269 -97 199 -168 c 1
 165 -138 l 1
 189 -116 205 -92 215 -76 c 0
 220 -68 230 -51 230 -34 c 0
 230 -13 216 -5 207 1 c 0
 198 7 179 18 179 45 c 0
 179 75 203 103 236 103 c 0
 272 103 306 71 306 20 c 0
EndSplineSet
EndChar

StartChar: hyphen
Encoding: 45 45 14
Width: 500
GlyphClass: 2
Flags: MW
HStem: 281 67<71 431 71 431>
LayerCount: 2
Fore
SplineSet
71 348 m 1
 431 348 l 1
 431 281 l 1
 71 281 l 1
 71 348 l 1
EndSplineSet
EndChar

StartChar: period
Encoding: 46 46 15
Width: 500
GlyphClass: 2
Flags: MW
HStem: -11 115<222.5 255.5>
VStem: 180 118<30.5 61.5 30.5 61.5>
LayerCount: 2
Fore
SplineSet
298 46 m 0
 298 15 272 -11 239 -11 c 0
 206 -11 180 14 180 46 c 0
 180 77 206 104 239 104 c 0
 272 104 298 77 298 46 c 0
EndSplineSet
EndChar

StartChar: slash
Encoding: 47 47 16
Width: 500
GlyphClass: 2
Flags: MW
HStem: 645 20G<377 377>
LayerCount: 2
Fore
SplineSet
64 -13 m 1
 377 665 l 1
 437 634 l 1
 123 -42 l 1
 64 -13 l 1
EndSplineSet
EndChar

StartChar: zero
Encoding: 48 48 17
Width: 500
GlyphClass: 2
Flags: MW
HStem: -11 64<236.5 282.5 236.5 297> 566 61<219 267>
VStem: 50 65<297 398.5 297 406.5> 385 65<206 317>
LayerCount: 2
Fore
SplineSet
251 627 m 0
 347 627 450 514 450 301 c 0
 450 87 342 -11 252 -11 c 0
 153 -11 50 105 50 307 c 0
 50 506 152 627 251 627 c 0
349 485 m 1
 322 540 284 566 250 566 c 0
 188 566 115 478 115 319 c 0
 115 275 120 235 129 201 c 1
 349 485 l 1
372 418 m 1
 152 138 l 1
 179 83 218 53 255 53 c 0
 310 53 385 119 385 293 c 0
 385 341 380 383 372 418 c 1
EndSplineSet
EndChar

StartChar: one
Encoding: 49 49 18
Width: 500
GlyphClass: 2
Flags: MW
HStem: -1 21G<229 299 229 229> 604 20G<251 299 299 299>
VStem: 229 70<-1 537 537 537>
LayerCount: 2
Fore
SplineSet
299 624 m 1
 299 -1 l 1
 229 -1 l 1
 229 537 l 1
 104 500 l 1
 88 539 l 1
 251 624 l 1
 299 624 l 1
EndSplineSet
EndChar

StartChar: two
Encoding: 50 50 19
Width: 500
GlyphClass: 2
Flags: MW
HStem: 0 61<154 415 415 417 154 439> 565 62<217 277>
VStem: 363 70<409 480.5>
LayerCount: 2
Fore
SplineSet
78 526 m 1
 115 589 181 627 252 627 c 0
 354 627 433 549 433 452 c 0
 433 362 369 299 323 256 c 0
 278 214 206 152 154 61 c 1
 415 61 l 2
 419 61 422 62 426 65 c 0
 428 67 433 72 439 70 c 1
 439 0 l 1
 73 0 l 1
 73 44 l 1
 125 148 183 212 254 276 c 0
 299 317 363 371 363 447 c 0
 363 514 310 565 244 565 c 0
 190 565 152 532 137 509 c 0
 132 501 134 494 128 486 c 1
 78 526 l 1
EndSplineSet
EndChar

StartChar: three
Encoding: 51 51 20
Width: 500
GlyphClass: 2
Flags: MW
HStem: -11 64<203 268.5 203 292.5> 298 54<205.5 209.5 180 253> 563 62<216.5 268>
VStem: 344 67<447 492.5> 357 68<146 208 122.5 217>
LayerCount: 2
Fore
SplineSet
411 467 m 0xf0
 411 406 373 353 317 332 c 1
 381 309 425 245 425 171 c 0
 425 74 352 -11 233 -11 c 0
 171 -11 111 15 69 61 c 1
 122 124 l 1
 131 115 127 105 135 95 c 0
 139 90 174 53 232 53 c 0
 305 53 357 112 357 180 c 0xe8
 357 254 295 298 211 298 c 0
 200 298 190 297 180 296 c 1
 180 352 l 1
 239 352 267 363 278 368 c 0
 321 387 344 428 344 466 c 0
 344 519 300 563 236 563 c 0
 197 563 157 546 128 515 c 1
 90 559 l 1
 129 601 183 625 239 625 c 0
 338 625 411 552 411 467 c 0xf0
EndSplineSet
EndChar

StartChar: four
Encoding: 52 52 21
Width: 500
GlyphClass: 2
Flags: MW
HStem: 0 21G<299 372 299 299> 172 62<117 299 372 452> 604 20G<313 372 372 372>
VStem: 300 72<234 513 513 513>
LayerCount: 2
Fore
SplineSet
313 624 m 1
 372 624 l 1
 372 234 l 1
 452 234 l 1
 452 172 l 1
 372 172 l 1
 372 0 l 1
 299 0 l 1
 299 172 l 1
 48 172 l 1
 48 225 l 1
 313 624 l 1
300 513 m 1
 117 234 l 1
 300 234 l 1
 300 513 l 1
EndSplineSet
EndChar

StartChar: five
Encoding: 53 53 22
Width: 500
GlyphClass: 2
Flags: MW
HStem: -11 61<214.5 281.5 214.5 303> 347 58<240 278.5> 560 63<165 422 165 165>
VStem: 374 71<150 247.5>
LayerCount: 2
Fore
SplineSet
106 623 m 1
 422 623 l 1
 422 560 l 1
 165 560 l 1
 155 380 l 1
 187 396 223 405 257 405 c 0
 361 405 445 330 445 197 c 0
 445 62 357 -11 249 -11 c 0
 175 -11 106 23 64 84 c 1
 126 131 l 1
 135 125 129 115 133 107 c 0
 136 101 181 50 248 50 c 0
 315 50 374 102 374 198 c 0
 374 297 311 347 246 347 c 0
 204 347 159 326 129 288 c 1
 84 306 l 1
 106 623 l 1
EndSplineSet
EndChar

StartChar: six
Encoding: 54 54 23
Width: 500
GlyphClass: 2
Flags: MW
HStem: -10 62<234 291.5 227 309.5> 341 61<242 287> 568 62<265.5 309>
VStem: 67 69 371 68<145 247.5>
LayerCount: 2
Fore
SplineSet
287 630 m 0
 338 630 387 609 424 573 c 1
 375 520 l 1
 366 527 366 536 360 542 c 0
 356 546 330 568 288 568 c 0
 243 568 140 540 136 327 c 1
 163 373 215 402 269 402 c 0
 357 402 439 328 439 198 c 0
 439 70 357 -10 262 -10 c 0
 206 -10 150 17 114 72 c 0
 74 133 67 211 67 284 c 0
 67 344 73 416 94 476 c 0
 133 585 213 630 287 630 c 0
262 341 m 0
 216 341 168 308 140 257 c 1
 132 141 189 52 265 52 c 0
 318 52 371 96 371 194 c 0
 371 301 312 341 262 341 c 0
EndSplineSet
EndChar

StartChar: seven
Encoding: 55 55 24
Width: 500
GlyphClass: 2
Flags: MW
HStem: 0 21G<135 214 135 135> 557 66<79 345 79 432>
VStem: 135 79<0 0>
LayerCount: 2
Fore
SplineSet
79 623 m 1
 432 623 l 1
 432 584 l 1
 390 488 350 391 313 292 c 0
 277 196 244 98 214 0 c 1
 135 0 l 1
 172 112 212 223 254 333 c 0
 283 408 314 483 345 557 c 1
 79 557 l 1
 79 623 l 1
EndSplineSet
EndChar

StartChar: eight
Encoding: 56 56 25
Width: 500
GlyphClass: 2
Flags: MW
HStem: -10 63<219 286 219 304.5> 572 59<226 281>
VStem: 60 72<135 193> 90 67<447 507.5 441.5 520> 352 68<455 505> 371 70<132 192.5>
LayerCount: 2
Fore
SplineSet
258 631 m 0xd0
 349 631 420 565 420 483 c 0xd8
 420 423 382 365 321 333 c 1
 391 301 441 234 441 161 c 0
 441 66 359 -10 250 -10 c 0
 143 -10 60 64 60 157 c 0xe4
 60 229 111 297 185 332 c 1
 129 361 90 416 90 478 c 0
 90 562 163 631 258 631 c 0xd0
237 303 m 1
 178 279 132 225 132 166 c 0
 132 104 185 53 253 53 c 0
 319 53 371 102 371 162 c 0xe4
 371 223 317 278 237 303 c 1
253 572 m 0
 199 572 157 532 157 483 c 0
 157 400 267 358 267 358 c 1
 315 384 352 431 352 479 c 0xd8
 352 531 309 572 253 572 c 0
EndSplineSet
EndChar

StartChar: nine
Encoding: 57 57 26
Width: 500
GlyphClass: 2
Flags: MW
HStem: -10 63<196.5 241.5 196.5 255> 226 61<218 264.5> 567 62<216.5 279.5 198.5 280.5>
VStem: 68 68<379.5 471.5 379.5 483.5> 368 69
LayerCount: 2
Fore
SplineSet
217 -10 m 0
 166 -10 117 9 80 46 c 1
 128 100 l 1
 139 93 136 82 144 76 c 2
 144 76 174 53 219 53 c 0
 264 53 315 76 342 139 c 0
 348 155 365 196 368 293 c 1
 339 251 290 226 239 226 c 0
 149 226 68 303 68 423 c 0
 68 544 150 629 247 629 c 0
 312 629 384 589 416 494 c 0
 431 452 437 397 437 319 c 0
 437 217 422 164 411 135 c 0
 373 35 293 -10 217 -10 c 0
246 287 m 0
 291 287 337 317 364 363 c 1
 375 489 316 567 245 567 c 0
 188 567 136 517 136 426 c 0
 136 333 190 287 246 287 c 0
EndSplineSet
EndChar

StartChar: colon
Encoding: 58 58 27
Width: 500
GlyphClass: 2
Flags: MW
HStem: -11 115<222.5 255.5> 308 115<222.5 255.5>
VStem: 180 118<30.5 61.5 30.5 61.5 350 380.5>
LayerCount: 2
Fore
SplineSet
298 365 m 0
 298 334 272 308 239 308 c 0
 206 308 180 334 180 366 c 0
 180 397 206 423 239 423 c 0
 272 423 298 396 298 365 c 0
298 46 m 0
 298 15 272 -11 239 -11 c 0
 206 -11 180 14 180 46 c 0
 180 77 206 104 239 104 c 0
 272 104 298 77 298 46 c 0
EndSplineSet
EndChar

StartChar: semicolon
Encoding: 59 59 28
Width: 500
GlyphClass: 2
Flags: MW
HStem: -168 21G<199 199> 308 115<222.5 255.5>
VStem: 180 118<350 380.5 349.5 381.5> 230 76<-42.5 45.5>
LayerCount: 2
Fore
SplineSet
306 20 m 0xd0
 306 -32 269 -97 199 -168 c 1
 165 -138 l 1
 189 -116 205 -92 215 -76 c 0
 220 -68 230 -51 230 -34 c 0
 230 -13 216 -5 207 1 c 0
 198 7 179 18 179 45 c 0
 179 75 203 103 236 103 c 0
 272 103 306 71 306 20 c 0xd0
298 365 m 0xe0
 298 334 272 308 239 308 c 0
 206 308 180 334 180 366 c 0
 180 397 206 423 239 423 c 0
 272 423 298 396 298 365 c 0xe0
EndSplineSet
EndChar

StartChar: less
Encoding: 60 60 29
Width: 500
GlyphClass: 2
Flags: W
LayerCount: 2
Fore
SplineSet
458 496 m 1
 458 567 l 1
 35 344 l 1
 35 296 l 1
 461 47 l 1
 461 123 l 1
 111 319 l 1
 458 496 l 1
EndSplineSet
EndChar

StartChar: equal
Encoding: 61 61 30
Width: 500
GlyphClass: 2
Flags: MW
HStem: 170 61<45 456 45 456> 377 61<45 456 45 456>
LayerCount: 2
Fore
SplineSet
45 438 m 1
 456 438 l 1
 456 377 l 1
 45 377 l 1
 45 438 l 1
45 231 m 1
 456 231 l 1
 456 170 l 1
 45 170 l 1
 45 231 l 1
EndSplineSet
EndChar

StartChar: greater
Encoding: 62 62 31
Width: 500
GlyphClass: 2
Flags: W
LayerCount: 2
Fore
SplineSet
42 496 m 1
 42 567 l 1
 466 344 l 1
 466 296 l 1
 40 47 l 1
 40 123 l 1
 389 319 l 1
 42 496 l 1
EndSplineSet
EndChar

StartChar: question
Encoding: 63 63 32
Width: 500
GlyphClass: 2
Flags: MW
HStem: -13 115<244.5 277.5> 600 66<224.5 280>
VStem: 202 118<28.5 59.5 28.5 59.5> 226 66<185 226 185 248.5> 355 79<461.5 523.5>
LayerCount: 2
Fore
SplineSet
320 44 m 0xe8
 320 13 294 -13 261 -13 c 0
 228 -13 202 12 202 44 c 0
 202 75 228 102 261 102 c 0
 294 102 320 75 320 44 c 0xe8
64 561 m 1
 107 628 182 666 257 666 c 0
 370 666 434 582 434 489 c 0
 434 395 368 357 335 328 c 0
 294 291 292 261 292 226 c 2
 292 185 l 1
 226 185 l 1
 226 226 l 2xd8
 226 271 229 306 273 354 c 0
 303 387 355 429 355 494 c 0
 355 553 310 600 250 600 c 0
 199 600 147 567 115 514 c 1
 64 561 l 1
EndSplineSet
EndChar

StartChar: at
Encoding: 64 64 33
Width: 500
GlyphClass: 2
Flags: MW
HStem: -11 57<252.5 319.5> 167 55<294 324.5> 395 49<370 402 388 402 388 405> 579 54<226 306.5>
VStem: 31 58<219.5 407 219.5 427.5> 175 62<278.5 312.5 278.5 324> 405 60<175 213 213 213 375 378 175 395 175 395>
LayerCount: 2
Fore
SplineSet
435 30 m 1
 393 3 344 -11 295 -11 c 0
 170 -11 31 82 31 314 c 0
 31 541 162 633 271 633 c 0
 343 633 411 593 443 522 c 0
 465 474 465 426 465 378 c 2
 465 175 l 1
 405 175 l 1
 405 213 l 1
 380 183 344 167 305 167 c 0
 233 167 175 225 175 297 c 0
 175 351 208 405 270 429 c 0
 310 445 350 444 388 444 c 2
 402 444 l 1
 402 518 344 579 269 579 c 0
 183 579 89 497 89 317 c 0
 89 122 204 46 301 46 c 0
 339 46 376 58 408 79 c 1
 435 30 l 1
405 395 m 1
 388 395 l 2
 352 395 311 394 277 371 c 0
 250 352 237 325 237 300 c 0
 237 257 272 222 316 222 c 0
 345 222 374 237 390 267 c 0
 406 297 405 335 405 375 c 2
 405 395 l 1
EndSplineSet
EndChar

StartChar: A
Encoding: 65 65 34
Width: 500
GlyphClass: 2
Flags: MW
HStem: 0 20G 182 54<158 326 158 342 144 326>
LayerCount: 2
Fore
SplineSet
15 -1 m 1
 235 634 l 1
 243 634 l 1
 483 0 l 1
 411 0 l 1
 342 182 l 1
 144 182 l 1
 83 -1 l 1
 15 -1 l 1
326 236 m 1
 238 474 l 1
 158 236 l 1
 326 236 l 1
EndSplineSet
EndChar

StartChar: B
Encoding: 66 66 35
Width: 500
GlyphClass: 2
Flags: MW
HStem: 0 61<117 225> 306 59<117 215 117 215 215 219> 563 60<117 117 117 216>
VStem: 48 69<61 306 365 563> 362 70<446 482> 383 74<158 202.5>
LayerCount: 2
Fore
SplineSet
48 623 m 1xf4
 225 623 l 2
 263 623 303 622 342 605 c 0
 401 580 432 527 432 471 c 0xf8
 432 411 396 357 340 334 c 1
 410 311 457 245 457 172 c 0
 457 108 420 47 353 19 c 0
 310 1 267 0 225 0 c 2
 48 0 l 1
 48 623 l 1xf4
117 563 m 1
 117 365 l 1
 215 365 l 2
 243 365 272 365 301 377 c 0
 340 394 362 428 362 464 c 0
 362 500 340 535 298 552 c 0
 270 563 242 563 216 563 c 2
 117 563 l 1
117 306 m 1
 117 61 l 1
 236 61 l 2
 263 61 290 62 317 74 c 0
 360 94 383 136 383 180 c 0xf4
 383 225 358 269 312 291 c 0
 281 306 250 306 219 306 c 2
 117 306 l 1
EndSplineSet
EndChar

StartChar: C
Encoding: 67 67 36
Width: 500
GlyphClass: 2
Flags: MW
HStem: -10 60<235 305.5 235 314> 572 56<231 299.5>
VStem: 41 68<230 397 230 433>
LayerCount: 2
Fore
SplineSet
277 628 m 0
 360 628 435 580 469 505 c 1
 402 472 l 1
 398 475 397 481 397 482 c 0
 397 484 398 487 398 489 c 0
 398 494 397 497 395 500 c 0
 370 543 324 572 275 572 c 0
 187 572 109 480 109 314 c 0
 109 146 189 50 281 50 c 0
 330 50 379 79 408 126 c 1
 460 92 l 1
 421 28 351 -10 277 -10 c 0
 174 -10 41 67 41 308 c 0
 41 558 180 628 277 628 c 0
EndSplineSet
EndChar

StartChar: D
Encoding: 68 68 37
Width: 500
GlyphClass: 2
Flags: MW
HStem: -1 55<120 184 184 188> 563 60<120 120 120 195>
VStem: 54 66<54 563 54 623 54 623> 390 70<244 347.5>
LayerCount: 2
Fore
SplineSet
54 623 m 1
 199 623 l 2
 254 623 299 619 344 590 c 0
 424 538 460 432 460 312 c 0
 460 176 411 70 322 24 c 0
 278 2 237 -1 188 -1 c 2
 54 -1 l 1
 54 623 l 1
120 563 m 1
 120 54 l 1
 184 54 l 2
 223 54 261 57 300 83 c 0
 350 117 390 184 390 303 c 0
 390 392 370 481 312 529 c 0
 273 561 234 563 195 563 c 2
 120 563 l 1
EndSplineSet
EndChar

StartChar: E
Encoding: 69 69 38
Width: 500
GlyphClass: 2
Flags: MW
HStem: 0 62<125 438 125 438> 293 64<125 386 125 386> 562 62<125 441 125 125>
VStem: 59 66<62 293 357 562>
LayerCount: 2
Fore
SplineSet
59 624 m 1
 441 624 l 1
 441 562 l 1
 125 562 l 1
 125 357 l 1
 386 357 l 1
 386 293 l 1
 125 293 l 1
 125 62 l 1
 438 62 l 1
 438 0 l 1
 59 0 l 1
 59 624 l 1
EndSplineSet
EndChar

StartChar: F
Encoding: 70 70 39
Width: 500
GlyphClass: 2
Flags: MW
HStem: 0 21G<78 148 78 78> 306 61<148 381 148 381> 562 62<148 437 148 148>
VStem: 78 70<0 306 367 562>
LayerCount: 2
Fore
SplineSet
78 624 m 1
 437 624 l 1
 437 562 l 1
 148 562 l 1
 148 367 l 1
 381 367 l 1
 381 306 l 1
 148 306 l 1
 148 0 l 1
 78 0 l 1
 78 624 l 1
EndSplineSet
EndChar

StartChar: G
Encoding: 71 71 40
Width: 500
GlyphClass: 2
Flags: MW
HStem: -10 62<262.5 301.5 262.5 306> 238 61<282 395 282 460> 568 61<251 305>
VStem: 36 69<286 348 286 440.5> 395 65<90 238 238 238>
LayerCount: 2
Fore
SplineSet
277 629 m 0
 354 629 422 589 458 525 c 1
 409 475 l 1
 401 480 399 487 396 494 c 0
 377 536 333 568 277 568 c 0
 225 568 169 540 137 479 c 0
 113 433 105 377 105 319 c 0
 105 253 113 165 165 106 c 0
 199 67 242 52 283 52 c 0
 320 52 360 65 395 90 c 1
 395 238 l 1
 282 238 l 1
 282 299 l 1
 460 299 l 1
 460 55 l 1
 401 12 335 -10 277 -10 c 0
 168 -10 36 68 36 304 c 0
 36 577 194 629 277 629 c 0
EndSplineSet
EndChar

StartChar: H
Encoding: 72 72 41
Width: 500
GlyphClass: 2
Flags: MW
HStem: 0 20G 297 59<127 370 127 371> 603 20G<54 132 132 132 371 447 447 447>
VStem: 54 73<0 297 356 599> 370 71<-1 297 297 297>
LayerCount: 2
Fore
SplineSet
54 623 m 1
 132 623 l 2
 132 622 133 620 133 619 c 0
 133 611 127 610 127 599 c 2
 127 356 l 1
 371 356 l 1
 371 623 l 1
 447 623 l 2
 448 622 448 620 448 619 c 0
 448 611 441 611 441 601 c 2
 441 -1 l 1
 370 -1 l 1
 370 297 l 1
 127 297 l 1
 127 0 l 1
 54 0 l 1
 54 623 l 1
EndSplineSet
EndChar

StartChar: I
Encoding: 73 73 42
Width: 500
GlyphClass: 2
Flags: MW
HStem: -1 58<273 403 273 403> 564 59<88 204 88 397 273 397 273 273>
VStem: 204 69<58 564 57 564>
LayerCount: 2
Fore
SplineSet
88 623 m 1
 397 623 l 1
 397 564 l 1
 273 564 l 1
 273 57 l 1
 403 57 l 1
 403 -1 l 1
 81 -1 l 1
 81 58 l 1
 204 58 l 1
 204 564 l 1
 88 564 l 1
 88 623 l 1
EndSplineSet
EndChar

StartChar: J
Encoding: 74 74 43
Width: 500
GlyphClass: 2
Flags: MW
HStem: -11 62<170 211 170 223.5> 564 59<172 292 172 457 361 457 361 361>
VStem: 292 69<208 209 209 564>
LayerCount: 2
Fore
SplineSet
172 623 m 1
 457 623 l 1
 457 564 l 1
 361 564 l 1
 361 209 l 2
 361 164 360 116 336 72 c 0
 307 18 253 -11 194 -11 c 0
 139 -11 86 14 49 58 c 1
 96 115 l 1
 102 110 98 103 102 97 c 0
 104 94 144 51 196 51 c 0
 226 51 253 65 270 90 c 0
 293 125 292 169 292 208 c 2
 292 564 l 1
 172 564 l 1
 172 623 l 1
EndSplineSet
EndChar

StartChar: K
Encoding: 75 75 44
Width: 500
GlyphClass: 2
Flags: MW
HStem: 0 21G<42 117 42 42> 604 20G<42 126 126 126>
VStem: 42 75<0 258 336 598>
LayerCount: 2
Fore
SplineSet
42 624 m 1
 126 624 l 1
 127 617 122 612 120 609 c 0
 117 605 117 602 117 598 c 2
 117 336 l 1
 377 628 l 1
 394 624 412 623 429 623 c 2
 455 623 l 1
 219 354 l 1
 471 -1 l 1
 422 -1 382 -4 382 -4 c 1
 166 312 l 1
 117 258 l 1
 117 0 l 1
 42 0 l 1
 42 624 l 1
EndSplineSet
EndChar

StartChar: L
Encoding: 76 76 45
Width: 500
GlyphClass: 2
Flags: MW
HStem: -1 61<139 439 139 439> 603 20G<66 147 147 147>
VStem: 66 73<60 589 60 623 60 623> 66 81<-1 623 623 623>
LayerCount: 2
Fore
SplineSet
66 623 m 1xd0
 147 623 l 1xd0
 148 616 145 610 144 607 c 0
 141 602 139 598 139 589 c 2
 139 60 l 1
 439 60 l 1
 439 -1 l 1
 66 -1 l 1xe0
 66 623 l 1xd0
EndSplineSet
EndChar

StartChar: M
Encoding: 77 77 46
Width: 500
GlyphClass: 2
Flags: MW
HStem: -1 21G<41 106 41 41 394 460 394 394> 603 20G<41 96 96 96>
VStem: 41 65<-1 467 -1 623> 394 66<-1 470 470 470>
LayerCount: 2
Fore
SplineSet
41 623 m 1
 96 623 l 1
 250 318 l 1
 407 624 l 1
 460 624 l 1
 460 -1 l 1
 394 -1 l 1
 394 470 l 1
 259 219 l 1
 232 219 l 1
 106 467 l 1
 106 -1 l 1
 41 -1 l 1
 41 623 l 1
EndSplineSet
EndChar

StartChar: N
Encoding: 78 78 47
Width: 500
GlyphClass: 2
Flags: MW
HStem: 0 21G<50 50 50 117> 603 21G
VStem: 50 67<0 490 0 623> 380 67<162 597 -1 624 -1 624>
LayerCount: 2
Fore
SplineSet
50 0 m 1
 50 623 l 1
 118 623 l 1
 380 162 l 1
 380 624 l 1
 454 624 l 1
 455 618 452 613 451 611 c 0
 449 607 447 604 447 597 c 2
 447 -1 l 1
 392 -1 l 1
 117 490 l 1
 117 0 l 1
 50 0 l 1
EndSplineSet
EndChar

StartChar: O
Encoding: 79 79 48
Width: 500
GlyphClass: 2
Flags: MW
HStem: -9 68<219 275 219 287.5> 564 66<217.5 272>
VStem: 29 69<223 415 223 434.5> 401 70<282.5 327.5>
LayerCount: 2
Fore
SplineSet
471 310 m 0
 471 255 467 178 434 111 c 0
 393 28 321 -9 254 -9 c 0
 159 -9 29 67 29 312 c 0
 29 557 160 630 253 630 c 0
 321 630 392 593 433 513 c 0
 467 447 471 368 471 310 c 0
250 564 m 0
 185 564 98 508 98 322 c 0
 98 124 184 59 254 59 c 0
 296 59 345 82 374 143 c 0
 399 197 401 260 401 301 c 0
 401 354 398 414 377 466 c 0
 348 538 294 564 250 564 c 0
EndSplineSet
EndChar

StartChar: P
Encoding: 80 80 49
Width: 500
GlyphClass: 2
Flags: MW
HStem: 0 21G<59 131 59 59> 275 61<131 254 131 131> 558 65<131 131 131 249>
VStem: 59 72<0 275> 384 72<424 464.5>
LayerCount: 2
Fore
SplineSet
59 623 m 1
 249 623 l 2
 289 623 327 622 366 602 c 0
 425 572 456 511 456 448 c 0
 456 385 426 324 368 295 c 0
 330 276 293 275 254 275 c 2
 131 275 l 1
 131 0 l 1
 59 0 l 1
 59 623 l 1
131 558 m 1
 130 336 l 1
 256 336 l 2
 280 336 305 337 329 349 c 0
 365 367 384 404 384 444 c 0
 384 485 364 524 325 544 c 0
 300 557 275 558 249 558 c 2
 131 558 l 1
EndSplineSet
EndChar

StartChar: Q
Encoding: 81 81 50
Width: 500
GlyphClass: 2
Flags: MW
HStem: -145 63<330 440> -7 62 566 64<216 272>
VStem: 29 69<224 414.5 224 435> 226 62<4.29497e+09 4.29497e+09> 404 67<281.5 327>
LayerCount: 2
Fore
SplineSet
250 566 m 0
 182 566 98 506 98 323 c 0
 98 125 182 55 255 55 c 0
 307 55 404 94 404 301 c 0
 404 353 399 414 378 467 c 0
 348 541 294 566 250 566 c 0
471 309 m 0
 471 254 467 176 434 110 c 0
 400 41 345 4 288 -6 c 1
 289 -41 299 -82 361 -82 c 0
 383 -82 410 -78 442 -77 c 1
 440 -145 l 1
 368 -145 325 -149 286 -130 c 0
 241 -108 225 -64 226 -7 c 1
 135 7 29 91 29 312 c 0
 29 558 160 630 253 630 c 0
 321 630 393 592 434 511 c 0
 467 445 471 368 471 309 c 0
EndSplineSet
EndChar

StartChar: R
Encoding: 82 82 51
Width: 500
GlyphClass: 2
Flags: MW
HStem: 0 21G<56 127 56 56 386 464 386 386> 275 61<127 248 127 248> 558 65<127 127 127 240>
VStem: 56 71<0 275 0 336 336 558> 375 72<424 464.5>
LayerCount: 2
Fore
SplineSet
56 623 m 1
 240 623 l 2
 280 623 319 622 359 602 c 0
 416 573 447 514 447 452 c 0
 447 369 396 299 320 278 c 1
 464 0 l 1
 386 0 l 1
 248 275 l 1
 127 275 l 1
 127 0 l 1
 56 0 l 1
 56 623 l 1
127 558 m 1
 127 336 l 1
 248 336 l 2
 272 336 296 337 320 349 c 0
 356 367 375 404 375 444 c 0
 375 485 355 524 316 544 c 0
 291 557 266 558 240 558 c 2
 127 558 l 1
EndSplineSet
EndChar

StartChar: S
Encoding: 83 83 52
Width: 500
GlyphClass: 2
Flags: MW
HStem: -10 63<216 295 216 324> 569 57<220.5 285>
VStem: 72 72<465.5 502 465.5 509.5> 386 69<139 180>
LayerCount: 2
Fore
SplineSet
435 549 m 1
 391 489 l 2
 389 489 386 493 386 498 c 0
 386 502 385 503 383 507 c 0
 359 542 314 569 256 569 c 0
 185 569 144 526 144 478 c 0
 144 453 156 415 208 385 c 0
 265 352 353 334 407 283 c 0
 446 246 455 202 455 169 c 0
 455 90 400 -10 248 -10 c 0
 171 -10 101 17 52 70 c 1
 93 142 l 1
 98 140 98 133 98 132 c 0
 98 128 98 125 101 121 c 0
 129 86 182 53 250 53 c 0
 340 53 386 112 386 166 c 0
 386 194 374 226 333 251 c 0
 286 280 197 303 139 345 c 0
 87 384 72 431 72 467 c 0
 72 552 150 626 262 626 c 0
 330 626 393 599 435 549 c 1
EndSplineSet
EndChar

StartChar: T
Encoding: 84 84 53
Width: 500
GlyphClass: 2
Flags: MW
HStem: -1 21G<208 279 208 208> 561 63<31 208 31 462 279 462 279 279>
VStem: 208 71<-1 561 -1 561>
LayerCount: 2
Fore
SplineSet
31 624 m 1
 462 624 l 1
 462 561 l 1
 279 561 l 1
 279 -1 l 1
 208 -1 l 1
 208 561 l 1
 31 561 l 1
 31 624 l 1
EndSplineSet
EndChar

StartChar: U
Encoding: 85 85 54
Width: 500
GlyphClass: 2
Flags: MW
HStem: -11 59<228.5 277.5 228.5 287> 603 20G<50 128 128 128 388 454 454 454>
VStem: 50 69<215 591> 50 79<615 619 615 623 615 623> 388 66<217 218 218 623>
LayerCount: 2
Fore
SplineSet
50 623 m 1xd8
 128 623 l 2
 128 622 129 620 129 618 c 0xd8
 129 612 125 608 123 604 c 0
 119 599 119 595 119 591 c 2
 119 214 l 2
 119 183 120 153 134 122 c 0
 156 74 204 48 253 48 c 0
 302 48 349 73 372 121 c 0
 387 153 388 185 388 217 c 2
 388 623 l 1
 454 623 l 1
 454 218 l 2
 454 173 452 129 429 86 c 0
 393 21 323 -11 251 -11 c 0
 177 -11 109 21 74 85 c 0
 51 128 50 171 50 215 c 2xe8
 50 623 l 1xd8
EndSplineSet
EndChar

StartChar: V
Encoding: 86 86 55
Width: 500
GlyphClass: 2
Flags: MW
HStem: -4 21G<237 269 237 237> 604 20G<25 98 98 98>
LayerCount: 2
Fore
SplineSet
25 624 m 1
 98 624 l 1
 258 145 l 1
 409 623 l 1
 478 623 l 1
 269 -4 l 1
 237 -4 l 1
 25 624 l 1
EndSplineSet
EndChar

StartChar: W
Encoding: 87 87 56
Width: 500
GlyphClass: 2
Flags: MW
HStem: -4 21G<117 146 117 117 362 389 362 362> 603 20G<17 82 82 82 429 488 488 488>
VStem: 429 59<623 623>
LayerCount: 2
Fore
SplineSet
17 623 m 1
 82 623 l 1
 149 202 l 1
 250 577 l 1
 271 577 l 1
 372 200 l 1
 429 623 l 1
 488 623 l 1
 389 -4 l 1
 362 -4 l 1
 254 407 l 1
 146 -4 l 1
 117 -4 l 1
 17 623 l 1
EndSplineSet
EndChar

StartChar: X
Encoding: 88 88 57
Width: 500
GlyphClass: 2
Flags: MW
HStem: 0 21G<41 117 41 41 389 468 389 389> 604 20G<44 119 119 119 379 449 449 449>
LayerCount: 2
Fore
SplineSet
379 624 m 1
 449 624 l 1
 291 319 l 1
 468 0 l 1
 389 0 l 1
 250 247 l 1
 117 0 l 1
 41 0 l 1
 211 318 l 1
 44 624 l 1
 119 624 l 1
 250 387 l 1
 379 624 l 1
EndSplineSet
EndChar

StartChar: Y
Encoding: 89 89 58
Width: 500
GlyphClass: 2
Flags: MW
HStem: 0 21G<220 296 220 220> 604 20G<28 108 108 108>
VStem: 220 76<0 246 0 246>
LayerCount: 2
Fore
SplineSet
28 624 m 1
 108 624 l 1
 261 321 l 1
 399 623 l 1
 473 623 l 1
 296 246 l 1
 296 0 l 1
 220 0 l 1
 220 246 l 1
 28 624 l 1
EndSplineSet
EndChar

StartChar: Z
Encoding: 90 90 59
Width: 500
GlyphClass: 2
Flags: MW
HStem: -1 62<138 432 432 439 138 462> 560 63<62 364 62 447>
LayerCount: 2
Fore
SplineSet
62 623 m 1
 447 623 l 1
 446 574 l 1
 138 61 l 1
 432 61 l 2
 446 61 450 69 462 67 c 1
 462 -1 l 1
 50 -1 l 1
 50 48 l 1
 364 560 l 1
 62 560 l 1
 62 623 l 1
EndSplineSet
EndChar

StartChar: bracketleft
Encoding: 91 91 60
Width: 500
GlyphClass: 2
Flags: MW
HStem: -89 57<195 417 195 417> 610 60<195 417 195 195>
VStem: 131 64<-32 610 -32 670 -32 670>
LayerCount: 2
Fore
SplineSet
131 670 m 1
 417 670 l 1
 417 610 l 1
 195 610 l 1
 195 -32 l 1
 417 -32 l 1
 417 -89 l 1
 131 -89 l 1
 131 670 l 1
EndSplineSet
EndChar

StartChar: backslash
Encoding: 92 92 61
Width: 500
GlyphClass: 2
Flags: MW
HStem: 645 20G<124 124>
LayerCount: 2
Fore
SplineSet
437 -13 m 1
 378 -42 l 1
 64 634 l 1
 124 665 l 1
 437 -13 l 1
EndSplineSet
EndChar

StartChar: bracketright
Encoding: 93 93 62
Width: 500
GlyphClass: 2
Flags: MW
HStem: -89 57<83 306 83 369 83 306> 610 60<83 306 83 369>
VStem: 306 63<-32 610 610 610>
LayerCount: 2
Fore
SplineSet
369 670 m 1
 369 -89 l 1
 83 -89 l 1
 83 -32 l 1
 306 -32 l 1
 306 610 l 1
 83 610 l 1
 83 670 l 1
 369 670 l 1
EndSplineSet
EndChar

StartChar: asciicircum
Encoding: 94 94 63
Width: 500
GlyphClass: 2
Flags: MW
HStem: 343 280<143 268 246 350>
VStem: 93 310<367 368>
LayerCount: 2
Fore
SplineSet
93 367 m 1
 246 623 l 1
 268 623 l 1
 403 368 l 1
 350 343 l 1
 253 518 l 1
 143 343 l 1
 93 367 l 1
EndSplineSet
EndChar

StartChar: underscore
Encoding: 95 95 64
Width: 500
GlyphClass: 2
Flags: MW
HStem: -80 61<35 466 35 466>
LayerCount: 2
Fore
SplineSet
35 -19 m 1
 466 -19 l 1
 466 -80 l 1
 35 -80 l 1
 35 -19 l 1
EndSplineSet
EndChar

StartChar: grave
Encoding: 96 96 65
Width: 500
GlyphClass: 2
Flags: W
LayerCount: 2
Fore
SplineSet
219 461 m 0
 202 481 189 512 164 580 c 2
 139 646 l 1
 190 671 l 1
 217 605 l 2
 224 588 233 572 246 557 c 0
 260 540 277 529 291 512 c 0
 316 482 308 454 293 442 c 0
 278 429 248 426 219 461 c 0
EndSplineSet
EndChar

StartChar: a
Encoding: 97 97 66
Width: 500
GlyphClass: 2
Flags: MW
HStem: -11 55<186.5 231> 0 21G<367 435 367 367> 214 55<351 352 352 366 351 369> 408 59<236 284>
VStem: 49 73<102.5 139.5 102.5 143.5> 367 68<0 50 50 50>
LayerCount: 2
Fore
SplineSet
91 403 m 1xbc
 133 447 191 467 253 467 c 0
 324 467 383 441 413 391 c 0
 434 356 435 321 435 283 c 2
 435 0 l 1
 367 0 l 1x7c
 367 50 l 1
 317 9 259 -11 203 -11 c 0
 108 -11 49 51 49 118 c 0
 49 169 82 223 154 249 c 0
 212 270 284 269 351 269 c 2
 366 269 l 1
 366 286 l 2
 366 310 366 339 351 364 c 0
 338 385 311 408 257 408 c 0
 215 408 164 396 126 357 c 1
 91 403 l 1xbc
369 214 m 1
 352 214 l 2
 305 214 244 217 202 207 c 0
 145 193 122 156 122 123 c 0
 122 82 156 44 217 44 c 0xbc
 277 44 320 80 337 98 c 0
 368 131 369 161 369 184 c 2
 369 214 l 1
EndSplineSet
EndChar

StartChar: b
Encoding: 98 98 67
Width: 500
GlyphClass: 2
Flags: MW
HStem: -11 65<239.5 270.5 232.5 314> 0 21G<60 106 60 60> 406 62<244 270.5> 646 20G<60 144 144 144>
VStem: 60 73<223 264 387 643> 382 76<151 299.5>
LayerCount: 2
Fore
SplineSet
60 666 m 1x7c
 144 666 l 1
 145 660 140 655 139 654 c 0
 134 650 133 648 133 643 c 2
 133 387 l 1
 162 437 215 468 273 468 c 0
 363 468 458 394 458 234 c 0
 458 68 361 -11 267 -11 c 0xbc
 212 -11 161 17 131 61 c 1
 106 0 l 1
 60 0 l 1
 60 666 l 1x7c
249 406 m 0
 204 406 162 380 145 339 c 0
 135 314 133 285 133 243 c 0
 133 203 133 177 136 153 c 0
 148 66 217 54 248 54 c 0
 293 54 382 79 382 219 c 0
 382 380 292 406 249 406 c 0
EndSplineSet
EndChar

StartChar: c
Encoding: 99 99 68
Width: 500
GlyphClass: 2
Flags: MW
HStem: -11 65<242.5 310 242.5 313> 405 61<239 320>
VStem: 56 74<182.5 288 182.5 297.5>
LayerCount: 2
Fore
SplineSet
457 381 m 1
 406 322 l 1
 398 328 403 337 399 345 c 0
 397 350 359 405 281 405 c 0
 197 405 130 340 130 236 c 0
 130 129 198 54 287 54 c 0
 333 54 377 74 408 109 c 1
 450 61 l 1
 407 14 345 -11 281 -11 c 0
 152 -11 56 91 56 229 c 0
 56 366 152 466 286 466 c 0
 359 466 421 434 457 381 c 1
EndSplineSet
EndChar

StartChar: d
Encoding: 100 100 69
Width: 500
GlyphClass: 2
Flags: MW
HStem: -10 63<217 256.5> 0 21G<372 443 372 372> 410 59<213.5 260> 646 20G<371 448 448 448>
VStem: 45 70<169 309 169 319.5> 365 74 371 67<637 639.5 637 666 637 666> 371 77<662.5 666 662.5 666 662.5 666>
LayerCount: 2
Fore
SplineSet
371 390 m 1xba
 371 666 l 1
 448 666 l 1xb9
 448 659 444 653 442 650 c 0
 439 645 438 642 438 637 c 2xba
 439 42 l 2
 439 28 440 14 443 0 c 1
 372 0 l 1x7c
 369 11 368 23 368 34 c 2
 368 73 l 1
 339 22 286 -10 227 -10 c 0
 139 -10 45 64 45 232 c 0
 45 407 150 469 237 469 c 0
 300 469 349 437 371 390 c 1xba
240 410 m 0
 187 410 115 374 115 244 c 0
 115 94 191 53 243 53 c 0
 291 53 338 85 356 140 c 0
 363 163 365 188 365 223 c 0xbc
 365 274 363 300 357 321 c 0
 339 389 280 410 240 410 c 0
EndSplineSet
EndChar

StartChar: e
Encoding: 101 101 70
Width: 500
GlyphClass: 2
Flags: MW
HStem: -10 58<242.5 295.5 242.5 300.5> 218 55<121 372 121 443 119 372> 413 55<228.5 290>
VStem: 49 70<218 218 218 306.5>
LayerCount: 2
Fore
SplineSet
259 468 m 0
 334 468 418 429 439 306 c 0
 443 280 446 249 443 218 c 1
 119 218 l 1
 124 81 212 48 273 48 c 0
 318 48 362 66 392 99 c 1
 432 61 l 1
 393 14 333 -10 268 -10 c 0
 144 -10 49 71 49 223 c 0
 49 390 150 468 259 468 c 0
121 273 m 1
 372 273 l 1
 381 347 327 413 253 413 c 0
 204 413 135 381 121 273 c 1
EndSplineSet
EndChar

StartChar: f
Encoding: 102 102 71
Width: 500
GlyphClass: 2
Flags: MW
HStem: 0 21G<162 231 162 162> 373 57<63 162 63 162 231 380> 614 57<321 362>
VStem: 162 69<0 373 0 373 430 465>
LayerCount: 2
Fore
SplineSet
343 671 m 0
 401 671 450 648 483 608 c 1
 451 542 l 2
 448 542 442 543 442 550 c 0
 442 554 442 557 439 562 c 0
 420 591 384 614 340 614 c 0
 302 614 267 598 248 564 c 0
 231 533 231 498 231 465 c 2
 231 430 l 1
 380 430 l 1
 380 373 l 1
 231 373 l 1
 231 0 l 1
 162 0 l 1
 162 373 l 1
 63 373 l 1
 63 430 l 1
 162 430 l 1
 162 475 l 2
 162 516 165 553 188 591 c 0
 220 643 279 671 343 671 c 0
EndSplineSet
EndChar

StartChar: g
Encoding: 103 103 72
Width: 500
GlyphClass: 2
Flags: MW
HStem: -172 54<233.5 259.5 233.5 322.5> 24 61 156 58<217 255 199 272> 415 57<199 252 185.5 255>
VStem: 39 65<-55 -46> 60 66<286.5 341.5 286.5 354.5> 76 61<108 112.5> 327 65<286.5 326 270 341.5> 389 66<-47 -27>
LayerCount: 2
Fore
SplineSet
126 314 m 0xf5
 126 259 171 214 227 214 c 0
 283 214 327 259 327 314 c 0
 327 369 283 415 227 415 c 0
 171 415 126 369 126 314 c 0xf5
231 472 m 0
 273 472 311 456 339 428 c 1
 374 458 420 472 466 469 c 1
 475 410 l 1
 466 411 457 412 448 412 c 0
 420 412 393 405 369 390 c 1
 384 367 392 340 392 312 c 0
 392 228 317 156 227 156 c 0
 207 156 188 160 169 167 c 1
 165 163 137 139 137 115 c 0xf3
 137 101 146 90 164 85 c 0
 174 83 195 80 229 80 c 0
 281 80 336 87 384 67 c 0
 432 47 455 8 455 -32 c 0
 455 -93 400 -172 245 -172 c 0
 85 -172 39 -114 39 -64 c 0xf880
 39 -28 64 6 113 37 c 1
 84 52 76 79 76 98 c 0xf2
 76 127 95 159 128 187 c 1
 86 214 60 260 60 310 c 0
 60 399 140 472 231 472 c 0
161 24 m 1
 135 9 104 -14 104 -47 c 0
 104 -63 112 -88 149 -103 c 0
 184 -117 223 -118 244 -118 c 0
 275 -118 312 -116 346 -98 c 0
 377 -81 389 -57 389 -37 c 0xf880
 389 -17 376 10 334 16 c 0
 308 20 272 18 238 19 c 0
 203 20 178 22 161 24 c 1
EndSplineSet
EndChar

StartChar: h
Encoding: 104 104 73
Width: 500
GlyphClass: 2
Flags: MW
HStem: 0 21G<70 70 70 143 362 362 362 433> 405 63<264 286.5> 645 20G<70 153 153 153>
VStem: 70 73<0 263 376 641> 70 83<659.5 662 662 665 659.5 665> 362 71<0 275 275 277 0 291>
LayerCount: 2
Fore
SplineSet
70 0 m 1xf4
 70 665 l 1
 153 665 l 1
 153 662 l 2xec
 153 657 149 653 147 651 c 0
 144 648 143 644 143 641 c 2
 143 376 l 1
 177 427 233 468 295 468 c 0
 347 468 394 438 417 387 c 0
 433 350 433 313 433 277 c 2
 433 0 l 1
 362 0 l 1
 362 275 l 2
 362 307 362 346 337 376 c 0
 320 396 298 405 275 405 c 0
 227 405 184 365 166 342 c 0
 147 317 143 294 143 263 c 2
 143 0 l 1
 70 0 l 1xf4
EndSplineSet
EndChar

StartChar: i
Encoding: 105 105 74
Width: 500
GlyphClass: 2
Flags: MW
HStem: 0 58<100 217 289 396 100 217> 399 59<106 217 106 289> 553 103<239.5 268.5>
VStem: 203 103<590 618> 217 72<58 399 399 399>
LayerCount: 2
Fore
SplineSet
106 458 m 1xe8
 289 458 l 1
 289 58 l 1
 396 58 l 1
 396 0 l 1
 100 0 l 1
 100 58 l 1
 217 58 l 1
 217 399 l 1
 106 399 l 1
 106 458 l 1xe8
254 656 m 0
 283 656 306 632 306 604 c 0
 306 576 283 553 254 553 c 0
 225 553 203 576 203 604 c 0xf0
 203 632 225 656 254 656 c 0
EndSplineSet
EndChar

StartChar: j
Encoding: 106 106 75
Width: 500
GlyphClass: 2
Flags: MW
HStem: -174 62<164.5 211.5 164.5 220.5> 398 60<126 296 126 369> 553 103<318.5 347.5>
VStem: 281 104<590 618> 296 73<18 32 32 398 398 398>
LayerCount: 2
Fore
SplineSet
126 458 m 1xe8
 369 458 l 1
 369 32 l 2
 369 -8 368 -45 348 -83 c 0
 317 -144 253 -174 188 -174 c 0
 131 -174 81 -151 48 -110 c 1
 95 -48 l 1
 101 -53 100 -60 104 -67 c 0
 108 -73 137 -112 192 -112 c 0
 231 -112 267 -92 284 -55 c 0
 295 -31 296 -6 296 18 c 2
 296 398 l 1
 126 398 l 1
 126 458 l 1xe8
333 656 m 0
 362 656 385 632 385 604 c 0
 385 576 362 553 333 553 c 0
 304 553 281 576 281 604 c 0xf0
 281 632 304 656 333 656 c 0
EndSplineSet
EndChar

StartChar: k
Encoding: 107 107 76
Width: 500
GlyphClass: 2
Flags: MW
HStem: -1 21G<66 139 66 66 448 472 472 479> 439 20G<368 368> 645 20G<66 148 148 148>
VStem: 66 73<-1 172 247 639>
LayerCount: 2
Fore
SplineSet
66 665 m 1
 148 665 l 1
 149 658 145 653 143 650 c 0
 140 646 139 643 139 639 c 2
 139 247 l 1
 368 459 l 1
 386 455 403 454 421 454 c 2
 447 454 l 1
 254 273 l 1
 479 -1 l 1
 472 -1 l 2
 424 -1 386 -4 386 -4 c 1
 199 229 l 1
 139 172 l 1
 139 -1 l 1
 66 -1 l 1
 66 665 l 1
EndSplineSet
EndChar

StartChar: l
Encoding: 108 108 77
Width: 500
GlyphClass: 2
Flags: MW
HStem: 0 58<79 214 287 421 79 214> 606 59<84 214 84 287>
VStem: 214 73<58 606 606 606>
LayerCount: 2
Fore
SplineSet
84 665 m 1
 287 665 l 1
 287 58 l 1
 421 58 l 1
 421 0 l 1
 79 0 l 1
 79 58 l 1
 214 58 l 1
 214 606 l 1
 84 606 l 1
 84 665 l 1
EndSplineSet
EndChar

StartChar: m
Encoding: 109 109 78
Width: 500
GlyphClass: 2
Flags: MW
HStem: 0 21G<38 38 38 104 220 220 220 288> 413 55<178 181> 437 20G<38 104 104 104>
VStem: 38 66<0 305 412 457> 220 68<0 302 0 317 0 326.5> 402 68<-1 324 324 325 -1 334.5>
LayerCount: 2
Fore
SplineSet
38 0 m 1xdc
 38 457 l 1
 104 457 l 1xbc
 104 412 l 1
 125 444 159 468 197 468 c 0
 238 468 271 439 278 401 c 1
 296 442 336 468 380 468 c 0
 406 468 434 458 452 432 c 0
 472 401 470 363 470 325 c 2
 470 -1 l 1
 402 -1 l 1
 402 324 l 2
 402 345 404 371 396 390 c 0
 389 407 375 415 360 415 c 0
 332 415 314 387 307 374 c 0
 290 346 288 326 288 302 c 2
 288 0 l 1
 220 0 l 1
 220 317 l 2
 220 336 221 358 215 377 c 0
 207 402 189 413 173 413 c 0
 155 413 135 401 118 370 c 0
 105 346 104 326 104 305 c 2
 104 0 l 1
 38 0 l 1xdc
EndSplineSet
EndChar

StartChar: n
Encoding: 110 110 79
Width: 500
GlyphClass: 2
Flags: MW
HStem: 0 21G<68 68 68 142 361 361 361 432> 405 63<262 285.5> 437 20G<68 142 142 142>
VStem: 68 74<0 263 376 457> 361 71<0 275 275 277 0 291>
LayerCount: 2
Fore
SplineSet
68 0 m 1xd8
 68 457 l 1
 142 457 l 1xb8
 142 376 l 1
 176 427 231 468 293 468 c 0
 345 468 392 438 415 387 c 0
 431 350 432 313 432 277 c 2
 432 0 l 1
 361 0 l 1
 361 275 l 2
 361 307 361 346 336 376 c 0
 319 396 297 405 274 405 c 0
 226 405 182 365 164 342 c 0
 145 317 142 294 142 263 c 2
 142 0 l 1
 68 0 l 1xd8
EndSplineSet
EndChar

StartChar: o
Encoding: 111 111 80
Width: 500
GlyphClass: 2
Flags: MW
HStem: -12 62<218.5 288.5 218.5 308> 406 61<217 285>
VStem: 41 76<174.5 287 174.5 295.5> 388 72<165.5 285.5>
LayerCount: 2
Fore
SplineSet
460 227 m 0
 460 76 362 -12 254 -12 c 0
 139 -12 41 86 41 225 c 0
 41 366 141 467 257 467 c 0
 361 467 460 385 460 227 c 0
252 406 m 0
 182 406 117 343 117 231 c 0
 117 118 182 50 255 50 c 0
 322 50 388 108 388 223 c 0
 388 348 318 406 252 406 c 0
EndSplineSet
EndChar

StartChar: p
Encoding: 112 112 81
Width: 500
GlyphClass: 2
Flags: MW
HStem: -167 21G<61 134 61 61> -12 64<243 271.5 228.5 317.5> 406 61<247.5 271> 437 20G<60 133 133 133>
VStem: 60 73<457 457> 388 74<149.5 302>
LayerCount: 2
Fore
SplineSet
60 457 m 1xdc
 133 457 l 1xdc
 133 387 l 1
 164 437 218 467 277 467 c 0xec
 367 467 462 394 462 233 c 0
 462 66 364 -12 271 -12 c 0
 215 -12 164 16 134 61 c 1
 134 -167 l 1
 61 -167 l 1
 60 457 l 1xdc
251 406 m 0xec
 205 406 163 380 145 339 c 0
 135 315 133 289 133 250 c 0
 133 184 133 146 146 115 c 0
 164 73 207 52 250 52 c 0
 293 52 388 75 388 219 c 0
 388 385 291 406 251 406 c 0xec
EndSplineSet
EndChar

StartChar: q
Encoding: 113 113 82
Width: 500
GlyphClass: 2
Flags: MW
HStem: -167 21G<370 442 370 370> -10 63<213.5 259> 410 59<212 263.5> 437 20G<374 442 442 442>
VStem: 42 73<178.5 302.5 178.5 310.5> 370 72<-167 73 73 73>
LayerCount: 2
Fore
SplineSet
374 390 m 1xec
 374 457 l 1
 442 457 l 1xdc
 442 -167 l 1
 370 -167 l 1
 370 73 l 1
 341 22 288 -10 230 -10 c 0
 129 -10 42 85 42 233 c 0
 42 388 141 469 241 469 c 0
 343 469 374 390 374 390 c 1xec
243 410 m 0xec
 181 410 115 362 115 243 c 0
 115 114 181 53 246 53 c 0
 294 53 340 85 358 140 c 0
 365 163 368 189 368 223 c 0
 368 278 366 307 357 332 c 0
 337 388 284 410 243 410 c 0xec
EndSplineSet
EndChar

StartChar: r
Encoding: 114 114 83
Width: 500
GlyphClass: 2
Flags: MW
HStem: -1 21G<99 172 99 99> 406 62<316 351.5> 437 20G<99 174 174 174>
VStem: 99 73<-1 222>
LayerCount: 2
Fore
SplineSet
99 457 m 1xb0
 174 457 l 1xb0
 172 369 l 1
 202 434 269 468 336 468 c 0
 387 468 429 446 458 417 c 1
 425 349 l 1
 417 356 414 364 408 372 c 0
 395 389 371 406 332 406 c 0xd0
 300 406 246 394 204 329 c 0
 173 280 172 249 172 222 c 2
 172 -1 l 1
 99 -1 l 1
 99 457 l 1xb0
EndSplineSet
EndChar

StartChar: s
Encoding: 115 115 84
Width: 500
GlyphClass: 2
Flags: MW
HStem: -10 60<215.5 281.5 210 312.5> 414 54<230 288.5>
VStem: 86 74<343.5 369.5 343.5 374> 366 74<101.5 131.5>
LayerCount: 2
Fore
SplineSet
432 396 m 1
 390 333 l 2
 388 333 385 335 385 341 c 0
 385 344 386 348 383 351 c 0
 365 373 321 414 256 414 c 0
 204 414 160 388 160 351 c 0
 160 336 168 313 205 295 c 0
 247 274 321 264 373 235 c 0
 427 205 440 164 440 132 c 0
 440 63 375 -10 250 -10 c 0
 181 -10 111 12 57 62 c 1
 98 134 l 1
 103 132 103 126 103 125 c 0
 103 121 102 118 105 114 c 0
 120 97 171 50 249 50 c 0
 314 50 366 80 366 123 c 0
 366 140 358 163 320 181 c 0
 286 197 237 209 198 223 c 0
 173 232 86 260 86 340 c 0
 86 408 156 468 262 468 c 0
 329 468 390 442 432 396 c 1
EndSplineSet
EndChar

StartChar: t
Encoding: 116 116 85
Width: 500
GlyphClass: 2
Flags: MW
HStem: -9 67<303 325> 398 60<250 399 250 399 249 399>
VStem: 167 73<186 203> 188 79<579 592>
LayerCount: 2
Fore
SplineSet
188 579 m 1xd0
 267 592 l 1xd0
 270 582 263 576 261 565 c 0
 256 540 250 458 250 458 c 1
 399 458 l 1
 399 398 l 1
 249 398 l 1
 243 338 240 279 240 219 c 0
 240 153 243 135 243 131 c 0
 250 76 286 58 320 58 c 0
 348 58 383 70 422 99 c 1
 444 42 l 1
 405 14 352 -9 298 -9 c 0
 251 -9 215 9 194 40 c 0
 168 78 167 123 167 164 c 0xe0
 167 242 171 320 177 398 c 1
 70 398 l 1
 71 457 l 1
 180 457 l 1
 188 579 l 1xd0
EndSplineSet
EndChar

StartChar: u
Encoding: 117 117 86
Width: 500
GlyphClass: 2
Flags: MW
HStem: -11 58<221 250.5> 0 21G<364 440 364 364> 437 20G<63 135 135 135 362 435 435 435>
VStem: 62 73<186.5 202 186.5 202> 362 73<29 42 206 457>
LayerCount: 2
Fore
SplineSet
63 457 m 1xb8
 135 457 l 1
 135 202 l 2
 135 171 135 136 151 104 c 0
 169 68 203 47 239 47 c 0xb8
 283 47 323 77 344 115 c 0
 359 143 362 171 362 206 c 2
 362 457 l 1
 435 457 l 1
 435 42 l 2
 435 29 436 14 440 0 c 1
 364 0 l 1x78
 362 12 362 23 362 35 c 2
 363 70 l 1
 333 20 279 -11 222 -11 c 0
 162 -11 107 22 80 82 c 0
 62 122 62 162 62 202 c 2
 63 457 l 1xb8
EndSplineSet
EndChar

StartChar: v
Encoding: 118 118 87
Width: 500
GlyphClass: 2
Flags: MW
HStem: -3 21G<221 277 221 221> 438 20G<40 126 126 126 392 457 457 457>
VStem: 392 65<458 458>
LayerCount: 2
Fore
SplineSet
40 458 m 1
 126 458 l 1
 128 450 123 444 123 438 c 0
 123 436 124 434 125 432 c 2
 256 98 l 1
 330 268 l 2
 356 328 380 392 392 458 c 1
 457 458 l 1
 442 388 415 321 388 257 c 2
 277 -3 l 1
 221 -3 l 1
 40 458 l 1
EndSplineSet
EndChar

StartChar: w
Encoding: 119 119 88
Width: 500
GlyphClass: 2
Flags: MW
HStem: -1 21G<108 172 108 108 337 405 337 337> 438 20G<16 89 89 89>
VStem: 16 70<419 458> 414 66<457 457>
LayerCount: 2
Fore
SplineSet
16 458 m 1
 89 458 l 1
 91 450 88 443 87 438 c 0
 85 430 85 426 86 419 c 2
 153 90 l 1
 231 414 l 1
 275 414 l 1
 372 91 l 1
 412 351 416 402 414 457 c 1
 480 457 l 1
 460 304 436 150 405 -1 c 1
 337 -1 l 1
 253 295 l 1
 172 -1 l 1
 108 -1 l 1
 16 458 l 1
EndSplineSet
EndChar

StartChar: x
Encoding: 120 120 89
Width: 500
GlyphClass: 2
Flags: MW
HStem: 0 21G<47 128 47 47 374 456 374 374> 438 20G<50 128 128 128 362 436 436 436>
LayerCount: 2
Fore
SplineSet
362 458 m 1
 436 458 l 1
 288 235 l 1
 456 0 l 1
 374 0 l 1
 248 178 l 1
 128 0 l 1
 47 0 l 1
 208 232 l 1
 50 458 l 1
 128 458 l 1
 249 288 l 1
 362 458 l 1
EndSplineSet
EndChar

StartChar: y
Encoding: 121 121 90
Width: 500
GlyphClass: 2
Flags: MW
HStem: -174 59<104 131.5 104 143> 437 20G<46 135 135 135>
VStem: 388 75<458 458>
LayerCount: 2
Fore
SplineSet
46 457 m 1
 135 457 l 1
 135 448 131 442 131 435 c 0
 131 432 132 430 133 427 c 2
 267 91 l 1
 354 336 l 2
 368 376 381 416 388 458 c 1
 463 458 l 1
 449 414 434 368 417 325 c 2
 275 -52 l 2
 265 -78 256 -102 236 -124 c 0
 206 -158 164 -174 122 -174 c 0
 84 -174 48 -160 22 -135 c 1
 60 -71 l 1
 66 -75 65 -82 67 -87 c 0
 69 -92 87 -115 121 -115 c 0
 142 -115 166 -105 185 -85 c 0
 200 -69 209 -50 217 -32 c 2
 231 2 l 1
 46 457 l 1
EndSplineSet
EndChar

StartChar: z
Encoding: 122 122 91
Width: 500
GlyphClass: 2
Flags: MW
HStem: -1 62<147 419 419 426 147 450> 395 63<71 333 71 426>
LayerCount: 2
Fore
SplineSet
71 458 m 1
 426 458 l 1
 426 408 l 1
 147 61 l 1
 419 61 l 2
 433 61 438 69 450 67 c 1
 450 -1 l 1
 50 -1 l 1
 50 48 l 1
 333 395 l 1
 71 395 l 1
 71 458 l 1
EndSplineSet
EndChar

StartChar: braceleft
Encoding: 123 123 92
Width: 500
GlyphClass: 2
Flags: MW
HStem: -159 56<370 371 371 407> 228 56<53 72 72 73 53 72> 580 57<352 408 378 408 378 408>
VStem: 159 70<0 30 0 36.5> 163 69<462 482>
LayerCount: 2
Fore
SplineSet
53 284 m 1xe8
 72 284 l 2
 90 284 118 284 140 307 c 0
 163 331 166 368 166 392 c 0
 166 416 163 438 163 463 c 0
 163 501 168 557 212 597 c 0
 260 641 324 637 378 637 c 2
 408 637 l 1
 408 580 l 1
 374 580 l 2
 330 580 299 584 272 567 c 0
 233 543 232 495 232 474 c 0xe8
 232 450 235 428 235 404 c 0
 235 380 233 351 220 324 c 0
 205 294 179 269 148 256 c 1
 186 243 233 205 233 101 c 0
 233 70 229 43 229 17 c 0
 229 -17 235 -62 271 -86 c 0
 298 -105 329 -103 370 -103 c 2
 407 -103 l 1
 407 -159 l 1
 371 -159 l 2
 309 -159 258 -162 215 -129 c 0
 162 -88 159 -19 159 17 c 0xf0
 159 56 163 85 163 116 c 0
 163 159 157 189 137 208 c 0
 116 228 90 228 73 228 c 2
 53 228 l 1
 53 284 l 1xe8
EndSplineSet
EndChar

StartChar: bar
Encoding: 124 124 93
Width: 500
GlyphClass: 2
Flags: MW
VStem: 217 67<-151 652 -151 652>
LayerCount: 2
Fore
SplineSet
217 652 m 1
 284 652 l 1
 284 -151 l 1
 217 -151 l 1
 217 652 l 1
EndSplineSet
EndChar

StartChar: braceright
Encoding: 125 125 94
Width: 500
GlyphClass: 2
Flags: MW
HStem: -159 56<93 129 93 130> 228 56<418.5 448 428 448 428 448> 580 57<92 123 123 127 92 123>
VStem: 268 70<462 482 450.5 484.5>
LayerCount: 2
Fore
SplineSet
448 284 m 1
 448 228 l 1
 427 228 l 2
 410 228 385 228 364 208 c 0
 344 189 337 159 337 116 c 0
 337 85 341 56 341 17 c 0
 341 -19 339 -88 286 -129 c 0
 243 -162 191 -159 129 -159 c 2
 93 -159 l 1
 93 -103 l 1
 130 -103 l 2
 171 -103 203 -105 230 -86 c 0
 266 -62 271 -17 271 17 c 0
 271 43 268 70 268 101 c 0
 268 205 314 243 352 256 c 1
 321 269 296 294 281 324 c 0
 268 351 265 380 265 404 c 0
 265 428 268 450 268 474 c 0
 268 495 267 543 228 567 c 0
 201 584 171 580 127 580 c 2
 92 580 l 1
 92 637 l 1
 123 637 l 2
 177 637 241 641 289 597 c 0
 333 557 338 501 338 463 c 0
 338 438 335 416 335 392 c 0
 335 368 338 331 361 307 c 0
 383 284 410 284 428 284 c 2
 448 284 l 1
EndSplineSet
EndChar

StartChar: asciitilde
Encoding: 126 126 95
Width: 500
GlyphClass: 2
Flags: MW
HStem: 324 65<316.5 361.5 316.5 368.5> 403 61<160 204.5>
LayerCount: 2
Fore
SplineSet
91 342 m 1
 42 375 l 1
 71 425 122 464 179 464 c 0
 262 464 288 389 345 389 c 0
 378 389 401 415 430 454 c 1
 476 416 l 1
 450 376 400 324 337 324 c 0
 256 324 235 403 174 403 c 0
 146 403 116 384 91 342 c 1
EndSplineSet
EndChar

StartChar: exclamdown
Encoding: 161 161 97
Width: 500
GlyphClass: 2
Flags: MW
HStem: -11 21G<228.5 246.5> 442 20G<214 264 264 264> 550 118<222.5 255.5>
VStem: 180 119<592.5 625.5> 187 92 187 102<60.5 80 54.5 91>
LayerCount: 2
Fore
SplineSet
180 609 m 0xf0
 180 642 206 668 239 668 c 0
 272 668 299 642 299 609 c 0
 299 576 272 550 239 550 c 0
 206 550 180 576 180 609 c 0xf0
238 -11 m 0
 219 -11 198 2 190 32 c 0
 189 38 187 49 187 72 c 0xe4
 187 110 194 149 196 187 c 2
 214 462 l 1
 264 462 l 1
 279 187 l 2xe8
 282 121 289 96 289 64 c 0xe4
 289 45 286 32 282 21 c 0
 273 0 255 -11 238 -11 c 0
EndSplineSet
EndChar

StartChar: cent
Encoding: 162 162 98
Width: 500
GlyphClass: 2
Flags: MW
HStem: 33 64<270 279 270 279> 454 58<264 271> 604 20G<285 285>
VStem: 48 71<238.5 334 238.5 339>
LayerCount: 2
Fore
SplineSet
285 624 m 1
 352 617 l 1
 352 611 350 605 349 603 c 0
 347 599 344 596 343 589 c 2
 333 507 l 1
 387 496 427 468 451 430 c 1
 407 373 l 1
 402 376 403 382 403 383 c 0
 403 389 404 393 399 399 c 0
 386 414 362 436 325 447 c 1
 278 97 l 1
 279 97 l 2
 327 97 375 117 410 153 c 1
 446 104 l 1
 403 57 342 33 277 33 c 2
 270 33 l 1
 255 -79 l 1
 198 -72 l 1
 212 42 l 1
 114 69 48 157 48 272 c 0
 48 406 137 506 271 512 c 1
 285 624 l 1
220 108 m 1
 264 454 l 1
 182 449 119 386 119 282 c 0
 119 195 159 132 220 108 c 1
EndSplineSet
EndChar

StartChar: sterling
Encoding: 163 163 99
Width: 500
GlyphClass: 2
Flags: MW
HStem: -15 66<341.5 383.5 341.5 387.5> -8 21G<65 65> 30 62<200.5 224.5> 321 57<67 119 67 133 67 119 201 287 201 201> 566 57<259 307>
VStem: 112 67<432.5 484.5 432.5 498> 148 66<199.5 239>
LayerCount: 2
Fore
SplineSet
417 572 m 1x7c
 374 517 l 1
 366 523 366 532 360 538 c 0
 356 543 328 566 286 566 c 0
 232 566 179 526 179 443 c 0x7c
 179 422 183 400 188 378 c 1
 287 378 l 1
 287 321 l 1
 201 321 l 1
 208 290 214 258 214 224 c 0
 214 175 202 129 178 90 c 1
 187 91 196 92 205 92 c 0x7a
 271 92 313 51 370 51 c 0
 397 51 422 61 443 79 c 1
 470 27 l 1
 448 9 409 -15 366 -15 c 0x9a
 302 -15 261 30 188 30 c 0
 167 30 129 26 65 -8 c 1
 39 49 l 1
 85 70 97 76 113 100 c 0
 135 135 148 177 148 222 c 0x7a
 148 256 141 289 133 321 c 1
 67 321 l 1
 67 378 l 1
 119 378 l 1
 115 399 112 421 112 442 c 0
 112 554 195 623 288 623 c 0
 336 623 381 605 417 572 c 1x7c
EndSplineSet
EndChar

StartChar: currency
Encoding: 164 164 100
Width: 500
GlyphClass: 2
Flags: MW
HStem: 190 55<234 268> 445 55<234 267.5 234 278.5>
VStem: 96 54<328.5 362> 351 55<328 362 328 372.5>
LayerCount: 2
Fore
SplineSet
68 492 m 1
 104 527 l 1
 160 471 l 1
 185 490 217 500 251 500 c 0
 284 500 315 490 340 472 c 1
 396 527 l 1
 432 492 l 1
 376 437 l 1
 395 411 406 379 406 345 c 0
 406 311 396 279 377 254 c 1
 432 199 l 1
 396 164 l 1
 341 219 l 1
 316 201 285 190 251 190 c 0
 217 190 186 201 160 220 c 1
 104 164 l 1
 68 199 l 1
 124 255 l 1
 106 280 96 312 96 345 c 0
 96 379 107 411 125 436 c 1
 68 492 l 1
251 445 m 0
 196 445 150 400 150 345 c 0
 150 290 196 245 251 245 c 0
 306 245 351 290 351 345 c 0
 351 400 306 445 251 445 c 0
EndSplineSet
EndChar

StartChar: yen
Encoding: 165 165 101
Width: 500
GlyphClass: 2
Flags: MW
HStem: 0 21G<224 292 224 224> 98 56<83 224 83 224 292 426> 217 57<83 224 83 224 292 426> 604 20G<36 114 114 114>
VStem: 224 68<0 98 0 98 154 217 274 295>
LayerCount: 2
Fore
SplineSet
36 624 m 1
 114 624 l 1
 259 363 l 1
 392 623 l 1
 466 623 l 1
 292 295 l 1
 292 274 l 1
 426 274 l 1
 426 217 l 1
 292 217 l 1
 292 154 l 1
 426 154 l 1
 426 98 l 1
 292 98 l 1
 292 0 l 1
 224 0 l 1
 224 98 l 1
 83 98 l 1
 83 154 l 1
 224 154 l 1
 224 217 l 1
 83 217 l 1
 83 274 l 1
 224 274 l 1
 224 295 l 1
 36 624 l 1
EndSplineSet
EndChar

StartChar: brokenbar
Encoding: 166 166 102
Width: 500
GlyphClass: 2
Flags: MW
VStem: 217 67<-151 196 295 652>
LayerCount: 2
Fore
SplineSet
217 652 m 1
 284 652 l 1
 284 295 l 1
 217 295 l 1
 217 652 l 1
284 -151 m 1
 217 -151 l 1
 217 196 l 1
 284 196 l 1
 284 -151 l 1
EndSplineSet
EndChar

StartChar: section
Encoding: 167 167 103
Width: 500
GlyphClass: 2
Flags: MW
HStem: -54 66<205 268.5 200.5 288.5> 613 59<230.5 283.5>
VStem: 79 73<325 338.5> 94 73<525.5 557 525.5 568> 337 71<70 102.5> 343 75<285 299.5>
LayerCount: 2
Fore
SplineSet
413 583 m 1xd0
 356 533 l 1
 349 538 351 547 349 554 c 0
 341 576 310 613 257 613 c 0
 204 613 167 578 167 536 c 0
 167 515 177 484 220 461 c 0
 249 446 286 437 326 418 c 0
 396 385 418 342 418 306 c 0xd4
 418 264 387 227 344 209 c 1
 388 179 408 135 408 93 c 0
 408 15 339 -54 238 -54 c 0
 172 -54 107 -24 65 31 c 1
 117 92 l 1
 125 89 123 81 125 75 c 0
 128 67 163 12 238 12 c 0
 299 12 337 49 337 91 c 0
 337 114 325 142 291 162 c 0
 249 186 193 190 143 219 c 0
 99 245 79 281 79 316 c 0xe8
 79 361 113 400 161 417 c 1
 113 447 94 490 94 530 c 0
 94 606 163 672 257 672 c 0
 323 672 382 637 413 583 c 1xd0
197 398 m 1
 171 389 152 365 152 336 c 0xe4
 152 314 164 283 206 262 c 0
 236 247 271 244 307 229 c 1
 329 240 343 262 343 288 c 0
 343 311 331 344 285 367 c 0
 259 380 228 386 197 398 c 1
EndSplineSet
EndChar

StartChar: dieresis
Encoding: 168 168 104
Width: 500
GlyphClass: 2
Flags: MW
HStem: 563 102<149 177 327.5 354.5>
VStem: 112 101<600 628> 291 100<600 628>
LayerCount: 2
Fore
SplineSet
213 614 m 0
 213 586 191 563 163 563 c 0
 135 563 112 586 112 614 c 0
 112 642 135 665 163 665 c 0
 191 665 213 642 213 614 c 0
391 614 m 0
 391 586 368 563 341 563 c 0
 314 563 291 586 291 614 c 0
 291 642 314 665 341 665 c 0
 368 665 391 642 391 614 c 0
EndSplineSet
EndChar

StartChar: copyright
Encoding: 169 169 105
Width: 500
GlyphClass: 2
Flags: MW
HStem: 19 43<203 310.5 203 322> 122 52<238.5 280.5 238.5 285.5> 374 50<240.5 288.5> 488 42<203.5 310.5>
VStem: 14 45<214.5 334 214.5 345.5> 115 56<251.5 313 251.5 318.5> 331 56<332 332> 455 43<215 335>
LayerCount: 2
Fore
SplineSet
262 424 m 0
 325 424 374 385 387 332 c 1
 335 312 l 1
 330 319 332 326 331 332 c 0
 329 339 313 374 264 374 c 0
 217 374 171 344 171 282 c 0
 171 221 212 174 265 174 c 0
 296 174 325 192 340 219 c 1
 384 190 l 1
 356 148 310 122 261 122 c 0
 179 122 115 193 115 276 c 0
 115 361 181 424 262 424 c 0
256 19 m 0
 124 19 14 131 14 274 c 0
 14 417 124 530 256 530 c 0
 388 530 498 418 498 275 c 0
 498 132 388 19 256 19 c 0
59 274 m 0
 59 155 149 62 257 62 c 0
 364 62 455 155 455 275 c 0
 455 395 364 488 257 488 c 0
 150 488 59 394 59 274 c 0
EndSplineSet
EndChar

StartChar: ordfeminine
Encoding: 170 170 106
Width: 500
GlyphClass: 2
Flags: MW
HStem: 152 54<76 425 76 425> 257 54<209.5 239.5> 424 52<311 312 312 325 311 328> 569 54<233.5 265.5>
VStem: 102 65<350 374.5 350 377.5> 326 63<267 300 300 300>
LayerCount: 2
Fore
SplineSet
123 566 m 1
 159 608 210 623 257 623 c 0
 311 623 356 601 377 557 c 0
 388 535 389 511 389 485 c 2
 389 267 l 1
 326 267 l 1
 326 300 l 1
 296 272 259 257 220 257 c 0
 151 257 102 305 102 361 c 0
 102 394 119 432 161 454 c 0
 206 478 262 476 311 476 c 2
 325 476 l 1
 325 488 l 2
 325 505 325 522 314 539 c 0
 303 557 281 569 250 569 c 0
 215 569 179 556 157 525 c 1
 123 566 l 1
328 424 m 1
 312 424 l 2
 286 424 252 426 226 421 c 0
 182 413 167 385 167 364 c 0
 167 336 190 311 229 311 c 0
 260 311 288 326 306 343 c 0
 327 363 328 383 328 406 c 2
 328 424 l 1
76 206 m 1
 425 206 l 1
 425 152 l 1
 76 152 l 1
 76 206 l 1
EndSplineSet
EndChar

StartChar: guillemotleft
Encoding: 171 171 107
Width: 500
GlyphClass: 2
Flags: W
LayerCount: 2
Fore
SplineSet
249 253 m 1
 400 400 l 1
 439 359 l 1
 318 241 l 1
 446 101 l 1
 406 61 l 1
 249 229 l 1
 249 253 l 1
67 253 m 1
 219 400 l 1
 258 359 l 1
 137 241 l 1
 265 101 l 1
 225 61 l 1
 67 229 l 1
 67 253 l 1
EndSplineSet
EndChar

StartChar: logicalnot
Encoding: 172 172 108
Width: 500
GlyphClass: 2
Flags: MW
HStem: 284 63<91 351 91 414>
VStem: 351 63<157 284 284 284>
LayerCount: 2
Fore
SplineSet
91 347 m 1
 414 347 l 1
 414 157 l 1
 351 157 l 1
 351 284 l 1
 91 284 l 1
 91 347 l 1
EndSplineSet
EndChar

StartChar: softhyphen
Encoding: 173 173 109
Width: 500
GlyphClass: 2
Flags: MW
HStem: 281 67<71 431 71 431>
LayerCount: 2
Fore
SplineSet
71 348 m 1
 431 348 l 1
 431 281 l 1
 71 281 l 1
 71 348 l 1
EndSplineSet
EndChar

StartChar: registered
Encoding: 174 174 110
Width: 500
GlyphClass: 2
Flags: MW
HStem: 19 43<203 310.5 203 322> 256 40<201 253 253 261.5 201 267 201 253> 384 41<201 201 201 250> 488 42<203.5 310.5>
VStem: 14 45<214.5 334 214.5 345.5> 155 46<133 256 133 296 296 384> 325 45<334 346.5> 455 43<215 335>
LayerCount: 2
Fore
SplineSet
256 19 m 0
 124 19 14 131 14 274 c 0
 14 417 124 530 256 530 c 0
 388 530 498 418 498 275 c 0
 498 132 388 19 256 19 c 0
59 274 m 0
 59 155 149 62 257 62 c 0
 364 62 455 155 455 275 c 0
 455 395 364 488 257 488 c 0
 150 488 59 394 59 274 c 0
155 133 m 1
 155 425 l 1
 250 425 l 2
 272 425 295 425 318 415 c 0
 352 401 370 371 370 340 c 0
 370 304 347 273 312 263 c 1
 376 138 l 1
 329 131 l 1
 267 256 l 1
 201 256 l 1
 201 133 l 1
 155 133 l 1
201 384 m 1
 201 296 l 1
 253 296 l 2
 270 296 289 296 305 306 c 0
 319 314 325 328 325 340 c 0
 325 353 317 366 302 375 c 0
 286 384 267 384 250 384 c 2
 201 384 l 1
EndSplineSet
EndChar

StartChar: macron
Encoding: 175 175 111
Width: 500
GlyphClass: 2
Flags: MW
HStem: 565 57<124 377 124 377>
VStem: 124 253<565 622 565 622>
LayerCount: 2
Fore
SplineSet
124 622 m 1
 377 622 l 1
 377 565 l 1
 124 565 l 1
 124 622 l 1
EndSplineSet
EndChar

StartChar: degree
Encoding: 176 176 112
Width: 500
GlyphClass: 2
Flags: MW
HStem: 370 55<236.5 277.5 236.5 293.5> 586 53<236.5 277.5>
VStem: 121 61<482.5 527.5 482.5 541> 332 59<483.5 528.5>
LayerCount: 2
Fore
SplineSet
391 504 m 0
 391 430 331 370 256 370 c 0
 181 370 121 430 121 504 c 0
 121 578 181 639 256 639 c 0
 331 639 391 578 391 504 c 0
257 586 m 0
 216 586 182 550 182 505 c 0
 182 460 216 425 257 425 c 0
 298 425 332 461 332 506 c 0
 332 551 298 586 257 586 c 0
EndSplineSet
EndChar

StartChar: plusminus
Encoding: 177 177 113
Width: 500
GlyphClass: 2
Flags: MW
HStem: 17 63<46 458 46 458> 343 61<45 222 45 222 285 456>
VStem: 222 63<155 343 155 343 404 575>
LayerCount: 2
Fore
SplineSet
46 80 m 1
 458 80 l 1
 458 17 l 1
 46 17 l 1
 46 80 l 1
222 575 m 1
 285 575 l 1
 285 404 l 1
 456 404 l 1
 456 343 l 1
 285 343 l 1
 285 155 l 1
 222 155 l 1
 222 343 l 1
 45 343 l 1
 45 404 l 1
 222 404 l 1
 222 575 l 1
EndSplineSet
EndChar

StartChar: uni00B2
Encoding: 178 178 114
Width: 500
GlyphClass: 2
Flags: MW
HStem: 253 54<194 376 376 378 194 400> 253 63<121 400> 586 51<236.5 280>
VStem: 332 60<510 541>
LayerCount: 2
Fore
SplineSet
111 554 m 1xb0
 141 606 197 637 258 637 c 0
 338 637 392 586 392 525 c 0
 392 478 359 445 345 432 c 0
 305 395 250 369 194 307 c 1
 376 307 l 2xb0
 380 307 383 309 387 312 c 0
 389 314 394 318 400 316 c 1
 400 253 l 1x70
 121 253 l 1
 121 297 l 1
 177 374 250 423 280 447 c 0
 309 470 332 495 332 525 c 0
 332 557 304 586 256 586 c 0
 217 586 185 565 167 543 c 0
 162 536 163 532 158 523 c 1
 111 554 l 1xb0
EndSplineSet
EndChar

StartChar: uni00B3
Encoding: 179 179 115
Width: 500
GlyphClass: 2
Flags: MW
HStem: 251 56<231.5 279.5 231.5 294> 427 48<251 278.5 242.5 294.5> 585 53<237 276.5>
VStem: 329 60<514.5 541> 344 62<354 381.5>
LayerCount: 2
Fore
SplineSet
258 638 m 0xf0
 333 638 389 588 389 530 c 0xf0
 389 493 365 463 332 452 c 1
 374 445 406 409 406 367 c 0
 406 302 334 251 254 251 c 0
 199 251 148 275 112 316 c 1
 159 368 l 1
 168 359 164 349 173 340 c 0
 178 335 208 307 255 307 c 0
 304 307 344 336 344 372 c 0xe8
 344 391 333 427 256 427 c 0
 246 427 236 426 226 425 c 1
 226 476 l 1
 232 476 239 475 246 475 c 0
 311 475 329 503 329 526 c 0
 329 556 299 585 254 585 c 0
 220 585 186 569 162 539 c 1
 125 576 l 1
 159 616 208 638 258 638 c 0xf0
EndSplineSet
EndChar

StartChar: acute
Encoding: 180 180 116
Width: 500
GlyphClass: 2
Flags: MW
HStem: 522 177<254 292>
VStem: 204 150<552 657>
LayerCount: 2
Fore
SplineSet
292 699 m 1
 354 657 l 1
 254 522 l 1
 204 552 l 1
 292 699 l 1
EndSplineSet
EndChar

StartChar: micro
Encoding: 181 181 117
Width: 500
GlyphClass: 2
Flags: MW
HStem: -167 21G<24 24 24 86> -11 54<190 224 190 226.5> 437 20G<44 109 109 109 308 372 372 372>
VStem: 24 62<-167 -167> 44 65<202 457> 308 64<191 457>
LayerCount: 2
Fore
SplineSet
24 -167 m 1xf4
 25 -51 44 76 44 202 c 2
 44 457 l 1
 109 457 l 1
 109 186 l 2xec
 109 156 111 127 125 99 c 0
 143 63 174 43 206 43 c 0
 242 43 277 67 295 108 c 0
 306 134 308 160 308 191 c 2
 308 457 l 1
 372 457 l 1
 372 116 l 2
 372 101 372 82 380 67 c 0
 387 54 400 47 412 47 c 0
 446 47 467 96 467 96 c 1
 494 45 l 1
 475 16 443 -10 406 -10 c 0
 364 -10 329 24 324 67 c 1
 301 19 252 -11 201 -11 c 0
 152 -11 108 17 87 61 c 1
 87 -15 87 -92 86 -167 c 1
 24 -167 l 1xf4
EndSplineSet
EndChar

StartChar: paragraph
Encoding: 182 182 118
Width: 500
GlyphClass: 2
Flags: MW
HStem: 608 58<311 378 302 436>
VStem: 64 238<451 527> 243 59<-68 322 322 322> 378 58<-68 608 608 608>
LayerCount: 2
Fore
SplineSet
436 666 m 1xd0
 436 -68 l 1
 378 -68 l 1
 378 608 l 1
 302 608 l 1
 302 -68 l 1
 243 -68 l 1
 243 322 l 1xb0
 141 329 64 406 64 496 c 0
 64 558 101 616 167 645 c 0
 215 666 265 666 311 666 c 2
 436 666 l 1xd0
EndSplineSet
EndChar

StartChar: periodcentered
Encoding: 183 183 119
Width: 500
GlyphClass: 2
Flags: MW
HStem: 273 115<222.5 255.5>
VStem: 180 118<315.5 346.5 315.5 346.5>
LayerCount: 2
Fore
SplineSet
298 331 m 0
 298 300 272 273 239 273 c 0
 206 273 180 299 180 331 c 0
 180 362 206 388 239 388 c 0
 272 388 298 362 298 331 c 0
EndSplineSet
EndChar

StartChar: cedilla
Encoding: 184 184 120
Width: 500
GlyphClass: 2
Flags: MW
HStem: -177 43<266 300.5 266 311.5> -85 85<262 280 250 305>
VStem: 262 37 327 57<-113.5 -106>
LayerCount: 2
Fore
SplineSet
262 0 m 1
 305 0 l 1
 299 -47 l 1
 316 -48 l 2
 329 -48 341 -50 354 -56 c 0
 373 -65 384 -83 384 -103 c 0
 384 -139 348 -177 275 -177 c 0
 236 -177 195 -166 157 -140 c 1
 182 -98 l 1
 213 -123 251 -134 281 -134 c 0
 320 -134 327 -118 327 -109 c 0
 327 -103 324 -97 316 -92 c 0
 305 -85 291 -85 280 -85 c 2
 250 -85 l 1
 262 0 l 1
EndSplineSet
EndChar

StartChar: uni00B9
Encoding: 185 185 121
Width: 500
GlyphClass: 2
Flags: MW
VStem: 235 64<253 553 553 553>
LayerCount: 2
Fore
SplineSet
299 633 m 1
 299 253 l 1
 235 253 l 1
 235 553 l 1
 138 528 l 1
 122 559 l 1
 255 633 l 1
 299 633 l 1
EndSplineSet
EndChar

StartChar: ordmasculine
Encoding: 186 186 122
Width: 500
GlyphClass: 2
Flags: MW
HStem: 152 54<76 425 76 425> 256 58<225 268.5 225 282.5> 566 56<224.5 270>
VStem: 96 60<395.5 480 395.5 489.5> 337 60<394 480>
LayerCount: 2
Fore
SplineSet
252 622 m 0
 324 622 397 564 397 444 c 0
 397 315 319 256 246 256 c 0
 167 256 96 323 96 432 c 0
 96 547 169 622 252 622 c 0
156 437 m 0
 156 354 203 314 247 314 c 0
 290 314 337 351 337 437 c 0
 337 523 293 566 247 566 c 0
 202 566 156 523 156 437 c 0
76 206 m 1
 425 206 l 1
 425 152 l 1
 76 152 l 1
 76 206 l 1
EndSplineSet
EndChar

StartChar: guillemotright
Encoding: 187 187 123
Width: 500
GlyphClass: 2
Flags: W
LayerCount: 2
Fore
SplineSet
265 253 m 1
 265 229 l 1
 107 61 l 1
 67 101 l 1
 195 241 l 1
 74 359 l 1
 113 400 l 1
 265 253 l 1
446 253 m 1
 446 229 l 1
 288 61 l 1
 249 101 l 1
 376 241 l 1
 255 359 l 1
 294 400 l 1
 446 253 l 1
EndSplineSet
EndChar

StartChar: onequarter
Encoding: 188 188 124
Width: 500
GlyphClass: 2
Flags: MW
HStem: 8 37<288 381> 645 20G<389 389>
VStem: 95 51<374 614 614 614> 382 45<45 164 164 164>
LayerCount: 2
Fore
SplineSet
76 -17 m 1
 389 665 l 1
 437 638 l 1
 123 -42 l 1
 76 -17 l 1
396 242 m 1
 427 242 l 1
 427 45 l 1
 477 45 l 1
 477 7 l 1
 427 7 l 1
 427 -70 l 1
 381 -70 l 1
 381 8 l 1
 236 8 l 1
 236 37 l 1
 396 242 l 1
382 164 m 1
 288 45 l 1
 382 45 l 1
 382 164 l 1
146 677 m 1
 146 374 l 1
 95 374 l 1
 95 614 l 1
 18 594 l 1
 5 619 l 1
 112 677 l 1
 146 677 l 1
EndSplineSet
EndChar

StartChar: onehalf
Encoding: 189 189 125
Width: 500
GlyphClass: 2
Flags: MW
HStem: -73 44<329 475 475 476.5 329 494> 193 41<363.5 398> 645 20G<389 389>
VStem: 95 51<374 614 614 614> 439 48<133 157.5>
LayerCount: 2
Fore
SplineSet
76 -17 m 1
 389 665 l 1
 437 638 l 1
 123 -42 l 1
 76 -17 l 1
263 168 m 1
 287 210 332 234 380 234 c 0
 443 234 487 193 487 145 c 0
 487 107 461 81 450 71 c 0
 418 42 374 21 329 -29 c 1
 475 -29 l 2
 478 -29 480 -29 483 -26 c 0
 484 -25 489 -20 494 -22 c 1
 494 -73 l 1
 271 -73 l 1
 271 -38 l 1
 315 24 373 63 397 83 c 0
 420 102 439 121 439 145 c 0
 439 170 417 193 379 193 c 0
 348 193 322 178 308 160 c 0
 304 155 304 150 300 143 c 1
 263 168 l 1
146 677 m 1
 146 374 l 1
 95 374 l 1
 95 614 l 1
 18 594 l 1
 5 619 l 1
 112 677 l 1
 146 677 l 1
EndSplineSet
EndChar

StartChar: threequarters
Encoding: 190 190 126
Width: 500
GlyphClass: 2
Flags: MW
HStem: 8 37<288 381> 375 44<107 145.5 107 157> 448 20G<48 48> 515 38<122 144 115.5 156.5> 642 42<111.5 143> 645 20G<395 395>
VStem: 185 47<584.5 606> 197 49<457 478.5> 382 45<45 164 164 164>
LayerCount: 2
Fore
SplineSet
81 -17 m 1xf480
 395 665 l 1
 442 638 l 1
 128 -42 l 1
 81 -17 l 1xf480
127 684 m 0xfa80
 187 684 232 644 232 598 c 0xfa80
 232 569 214 543 188 535 c 1
 222 529 246 501 246 467 c 0
 246 415 189 375 125 375 c 0
 82 375 40 393 11 426 c 1
 48 468 l 1
 55 461 53 452 60 445 c 0
 64 441 88 419 126 419 c 0
 165 419 197 443 197 471 c 0xf980
 197 486 187 515 126 515 c 0
 118 515 111 515 103 514 c 1
 103 554 l 1
 108 554 113 553 118 553 c 0
 170 553 185 575 185 594 c 0
 185 618 161 642 125 642 c 0
 98 642 70 628 51 604 c 1
 21 634 l 1
 48 666 87 684 127 684 c 0xfa80
396 242 m 1
 427 242 l 1
 427 45 l 1
 477 45 l 1
 477 7 l 1
 427 7 l 1
 427 -70 l 1
 381 -70 l 1
 381 8 l 1
 236 8 l 1
 236 37 l 1
 396 242 l 1
382 164 m 1
 288 45 l 1
 382 45 l 1
 382 164 l 1
EndSplineSet
EndChar

StartChar: questiondown
Encoding: 191 191 127
Width: 500
GlyphClass: 2
Flags: MW
HStem: -13 65<221 276.5 221 282.5> 448 20G<210 275 275 275> 551 115<224.5 257.5>
VStem: 67 79<128.5 190.5 128.5 211> 181 119<592.5 623.5> 210 65<426 468 403.5 468>
LayerCount: 2
Fore
SplineSet
181 608 m 0xf8
 181 639 208 666 241 666 c 0
 274 666 300 640 300 608 c 0
 300 577 274 551 241 551 c 0
 208 551 181 577 181 608 c 0xf8
438 91 m 1
 395 24 320 -13 245 -13 c 0
 132 -13 67 71 67 164 c 0
 67 258 134 296 167 325 c 0
 208 362 210 391 210 426 c 2
 210 468 l 1
 275 468 l 1
 275 426 l 2xf4
 275 381 273 346 229 298 c 0
 199 265 146 223 146 158 c 0
 146 99 191 52 251 52 c 0
 302 52 355 86 387 139 c 1
 438 91 l 1
EndSplineSet
EndChar

StartChar: Agrave
Encoding: 192 192 128
Width: 500
GlyphClass: 2
Flags: MW
HStem: 0 20G 182 54<158 326 158 342 144 326>
LayerCount: 2
Fore
SplineSet
181 792 m 1
 334 702 l 1
 311 660 l 1
 142 722 l 1
 181 792 l 1
15 -1 m 1
 235 634 l 1
 243 634 l 1
 483 0 l 1
 411 0 l 1
 342 182 l 1
 144 182 l 1
 83 -1 l 1
 15 -1 l 1
326 236 m 1
 238 474 l 1
 158 236 l 1
 326 236 l 1
EndSplineSet
EndChar

StartChar: Aacute
Encoding: 193 193 129
Width: 500
GlyphClass: 2
Flags: MW
HStem: 0 20G 182 54<158 326 158 342 144 326>
LayerCount: 2
Fore
SplineSet
308 792 m 1
 348 722 l 1
 179 660 l 1
 155 702 l 1
 308 792 l 1
15 -1 m 1
 235 634 l 1
 243 634 l 1
 483 0 l 1
 411 0 l 1
 342 182 l 1
 144 182 l 1
 83 -1 l 1
 15 -1 l 1
326 236 m 1
 238 474 l 1
 158 236 l 1
 326 236 l 1
EndSplineSet
EndChar

StartChar: Acircumflex
Encoding: 194 194 130
Width: 500
GlyphClass: 2
Flags: MW
HStem: 0 20G 182 54<158 326 158 342 144 326>
LayerCount: 2
Fore
SplineSet
102 692 m 1
 233 792 l 1
 254 792 l 1
 378 694 l 1
 345 656 l 1
 242 727 l 1
 130 659 l 1
 102 692 l 1
15 -1 m 1
 235 634 l 1
 243 634 l 1
 483 0 l 1
 411 0 l 1
 342 182 l 1
 144 182 l 1
 83 -1 l 1
 15 -1 l 1
326 236 m 1
 238 474 l 1
 158 236 l 1
 326 236 l 1
EndSplineSet
EndChar

StartChar: Atilde
Encoding: 195 195 131
Width: 500
GlyphClass: 2
Flags: MW
HStem: 0 20G 182 54<158 326 158 342 144 326> 669 59<320.5 342.5 320.5 344.5> 745 57<184 219>
LayerCount: 2
Fore
SplineSet
131 684 m 1
 86 715 l 1
 123 774 160 802 199 802 c 0
 240 802 266 772 279 759 c 0
 295 742 311 728 330 728 c 0
 355 728 366 751 388 780 c 1
 425 740 l 1
 390 697 363 669 326 669 c 0
 268 669 241 745 197 745 c 0
 171 745 155 723 131 684 c 1
15 -1 m 1
 235 634 l 1
 243 634 l 1
 483 0 l 1
 411 0 l 1
 342 182 l 1
 144 182 l 1
 83 -1 l 1
 15 -1 l 1
326 236 m 1
 238 474 l 1
 158 236 l 1
 326 236 l 1
EndSplineSet
EndChar

StartChar: Adieresis
Encoding: 196 196 132
Width: 500
GlyphClass: 2
Flags: MW
HStem: 0 20G 182 54<158 326 158 342 144 326> 688 101<137 165 316.5 343.5>
VStem: 101 101<724 752> 280 100<724 752>
LayerCount: 2
Fore
SplineSet
202 738 m 0
 202 710 179 688 151 688 c 0
 123 688 101 710 101 738 c 0
 101 766 123 789 151 789 c 0
 179 789 202 766 202 738 c 0
380 738 m 0
 380 710 357 688 330 688 c 0
 303 688 280 710 280 738 c 0
 280 766 303 789 330 789 c 0
 357 789 380 766 380 738 c 0
15 -1 m 1
 235 634 l 1
 243 634 l 1
 483 0 l 1
 411 0 l 1
 342 182 l 1
 144 182 l 1
 83 -1 l 1
 15 -1 l 1
326 236 m 1
 238 474 l 1
 158 236 l 1
 326 236 l 1
EndSplineSet
EndChar

StartChar: Aring
Encoding: 197 197 133
Width: 500
GlyphClass: 2
Flags: MW
HStem: 0 21G<411 483 411 411> 182 54<158 326 158 342 144 326> 753 42<230 252>
VStem: 148 51<695.5 721 695.5 731> 282 50<695 721>
LayerCount: 2
Fore
SplineSet
199 708 m 0
 199 683 218 662 241 662 c 0
 263 662 282 682 282 708 c 0
 282 734 263 753 241 753 c 0
 219 753 199 734 199 708 c 0
326 236 m 1
 238 474 l 1
 158 236 l 1
 326 236 l 1
248 619 m 1
 483 0 l 1
 411 0 l 1
 342 182 l 1
 144 182 l 1
 83 -1 l 1
 15 -1 l 1
 229 619 l 1
 183 624 148 662 148 707 c 0
 148 755 189 795 240 795 c 0
 291 795 332 755 332 707 c 0
 332 662 295 623 248 619 c 1
EndSplineSet
EndChar

StartChar: AE
Encoding: 198 198 134
Width: 500
GlyphClass: 2
Flags: MW
HStem: 0 62<315 481 315 481> 169 58<136 252 136 252 122 252> 293 64<313 458 313 313> 562 62<241 252 241 241 311 484 311 311>
VStem: 252 61<293 293 293 562>
LayerCount: 2
Fore
SplineSet
200 624 m 1
 484 624 l 1
 484 562 l 1
 311 562 l 1
 312 357 l 1
 458 357 l 1
 458 293 l 1
 313 293 l 1
 315 62 l 1
 481 62 l 1
 481 0 l 1
 252 0 l 1
 252 169 l 1
 122 169 l 1
 68 0 l 1
 4 0 l 1
 200 624 l 1
252 562 m 1
 241 562 l 1
 136 227 l 1
 252 227 l 1
 252 562 l 1
EndSplineSet
EndChar

StartChar: Ccedilla
Encoding: 199 199 135
Width: 500
GlyphClass: 2
Flags: MW
HStem: -177 43<266 300.5 266 311.5> -10 60<260 260> 572 56<231 299.5>
VStem: 41 68<230 397 230 433> 327 57<-113.5 -106>
LayerCount: 2
Fore
SplineSet
277 628 m 0
 360 628 435 580 469 505 c 1
 402 472 l 1
 397 475 397 481 397 482 c 0
 397 484 398 487 398 489 c 0
 398 494 397 497 395 500 c 0
 370 543 324 572 275 572 c 0
 187 572 109 480 109 314 c 0
 109 146 189 50 281 50 c 0
 330 50 379 79 408 126 c 1
 460 92 l 1
 426 36 368 -1 304 -9 c 1
 299 -47 l 1
 316 -48 l 2
 329 -48 341 -50 354 -56 c 0
 373 -65 384 -83 384 -103 c 0
 384 -139 348 -177 275 -177 c 0
 236 -177 195 -166 157 -140 c 1
 182 -98 l 1
 213 -123 251 -134 281 -134 c 0
 320 -134 327 -118 327 -109 c 0
 327 -103 324 -97 316 -92 c 0
 305 -85 291 -85 280 -85 c 2
 250 -85 l 1
 260 -10 l 1
 160 -2 41 80 41 308 c 0
 41 558 180 628 277 628 c 0
EndSplineSet
EndChar

StartChar: Egrave
Encoding: 200 200 136
Width: 500
GlyphClass: 2
Flags: MW
HStem: 0 62<125 438 125 438> 293 64<125 386 125 386> 562 62<125 441 125 125>
VStem: 59 66<62 293 357 562>
LayerCount: 2
Fore
SplineSet
181 792 m 1
 334 702 l 1
 311 660 l 1
 142 722 l 1
 181 792 l 1
59 624 m 1
 441 624 l 1
 441 562 l 1
 125 562 l 1
 125 357 l 1
 386 357 l 1
 386 293 l 1
 125 293 l 1
 125 62 l 1
 438 62 l 1
 438 0 l 1
 59 0 l 1
 59 624 l 1
EndSplineSet
EndChar

StartChar: Eacute
Encoding: 201 201 137
Width: 500
GlyphClass: 2
Flags: MW
HStem: 0 62<125 438 125 438> 293 64<125 386 125 386> 562 62<125 441 125 125>
VStem: 59 66<62 293 357 562>
LayerCount: 2
Fore
SplineSet
325 792 m 1
 365 722 l 1
 196 660 l 1
 172 702 l 1
 325 792 l 1
59 624 m 1
 441 624 l 1
 441 562 l 1
 125 562 l 1
 125 357 l 1
 386 357 l 1
 386 293 l 1
 125 293 l 1
 125 62 l 1
 438 62 l 1
 438 0 l 1
 59 0 l 1
 59 624 l 1
EndSplineSet
EndChar

StartChar: Ecircumflex
Encoding: 202 202 138
Width: 500
GlyphClass: 2
Flags: MW
HStem: 0 62<125 438 125 438> 293 64<125 386 125 386> 562 62<125 441 125 125>
VStem: 59 66<62 293 357 562>
LayerCount: 2
Fore
SplineSet
110 692 m 1
 242 792 l 1
 263 792 l 1
 387 694 l 1
 354 656 l 1
 250 727 l 1
 139 659 l 1
 110 692 l 1
59 624 m 1
 441 624 l 1
 441 562 l 1
 125 562 l 1
 125 357 l 1
 386 357 l 1
 386 293 l 1
 125 293 l 1
 125 62 l 1
 438 62 l 1
 438 0 l 1
 59 0 l 1
 59 624 l 1
EndSplineSet
EndChar

StartChar: Edieresis
Encoding: 203 203 139
Width: 500
GlyphClass: 2
Flags: MW
HStem: 0 62<125 438 125 438> 293 64<125 386 125 386> 562 62<125 441 125 125> 688 101<144 172 322.5 349.5>
VStem: 59 66<62 293 357 562> 108 101<724 752> 287 100<724 752>
LayerCount: 2
Fore
SplineSet
209 738 m 0xf6
 209 710 186 688 158 688 c 0
 130 688 108 710 108 738 c 0
 108 766 130 789 158 789 c 0
 186 789 209 766 209 738 c 0xf6
387 738 m 0
 387 710 363 688 336 688 c 0
 309 688 287 710 287 738 c 0
 287 766 309 789 336 789 c 0
 363 789 387 766 387 738 c 0
59 624 m 1xfa
 441 624 l 1
 441 562 l 1
 125 562 l 1
 125 357 l 1
 386 357 l 1
 386 293 l 1
 125 293 l 1
 125 62 l 1
 438 62 l 1
 438 0 l 1
 59 0 l 1
 59 624 l 1xfa
EndSplineSet
EndChar

StartChar: Igrave
Encoding: 204 204 140
Width: 500
GlyphClass: 2
Flags: MW
HStem: -1 58<273 403 273 403> 564 59<88 204 88 397 273 397 273 273>
VStem: 204 69<58 564 57 564>
LayerCount: 2
Fore
SplineSet
181 792 m 1
 334 702 l 1
 311 660 l 1
 142 722 l 1
 181 792 l 1
88 623 m 1
 397 623 l 1
 397 564 l 1
 273 564 l 1
 273 57 l 1
 403 57 l 1
 403 -1 l 1
 81 -1 l 1
 81 58 l 1
 204 58 l 1
 204 564 l 1
 88 564 l 1
 88 623 l 1
EndSplineSet
EndChar

StartChar: Iacute
Encoding: 205 205 141
Width: 500
GlyphClass: 2
Flags: MW
HStem: -1 58<273 403 273 403> 564 59<88 204 88 397 273 397 273 273>
VStem: 204 69<58 564 57 564>
LayerCount: 2
Fore
SplineSet
325 792 m 1
 365 722 l 1
 196 660 l 1
 172 702 l 1
 325 792 l 1
88 623 m 1
 397 623 l 1
 397 564 l 1
 273 564 l 1
 273 57 l 1
 403 57 l 1
 403 -1 l 1
 81 -1 l 1
 81 58 l 1
 204 58 l 1
 204 564 l 1
 88 564 l 1
 88 623 l 1
EndSplineSet
EndChar

StartChar: Icircumflex
Encoding: 206 206 142
Width: 500
GlyphClass: 2
Flags: MW
HStem: -1 58<273 403 273 403> 564 59<88 204 88 397 273 397 273 273>
VStem: 204 69<58 564 57 564>
LayerCount: 2
Fore
SplineSet
101 692 m 1
 232 792 l 1
 254 792 l 1
 377 694 l 1
 344 656 l 1
 241 727 l 1
 129 659 l 1
 101 692 l 1
88 623 m 1
 397 623 l 1
 397 564 l 1
 273 564 l 1
 273 57 l 1
 403 57 l 1
 403 -1 l 1
 81 -1 l 1
 81 58 l 1
 204 58 l 1
 204 564 l 1
 88 564 l 1
 88 623 l 1
EndSplineSet
EndChar

StartChar: Idieresis
Encoding: 207 207 143
Width: 500
GlyphClass: 2
Flags: MW
HStem: -1 58<273 403 273 403> 564 59<88 204 88 397 273 397 273 273> 688 101<141 169 319.5 346.5>
VStem: 104 102<724 752> 204 69<58 564 57 564> 283 100<724 752>
LayerCount: 2
Fore
SplineSet
206 738 m 0xf4
 206 710 183 688 155 688 c 0
 127 688 104 710 104 738 c 0
 104 766 127 789 155 789 c 0
 183 789 206 766 206 738 c 0xf4
383 738 m 0
 383 710 360 688 333 688 c 0
 306 688 283 710 283 738 c 0
 283 766 306 789 333 789 c 0
 360 789 383 766 383 738 c 0
88 623 m 1
 397 623 l 1
 397 564 l 1
 273 564 l 1
 273 57 l 1
 403 57 l 1
 403 -1 l 1
 81 -1 l 1
 81 58 l 1
 204 58 l 1
 204 564 l 1xec
 88 564 l 1
 88 623 l 1
EndSplineSet
EndChar

StartChar: Eth
Encoding: 208 208 144
Width: 500
GlyphClass: 2
Flags: MW
HStem: -1 58<143 203 203 206> 301 58<30 79 30 79 143 248> 564 59<143 214 143 143>
VStem: 79 64<57 301 57 301 57 301 359 564> 399 67<257.5 341.5>
LayerCount: 2
Fore
SplineSet
79 623 m 1
 218 623 l 2
 272 623 316 618 359 586 c 0
 434 530 466 421 466 315 c 0
 466 182 415 63 319 19 c 0
 284 2 250 -1 206 -1 c 2
 79 -1 l 1
 79 301 l 1
 30 301 l 1
 30 359 l 1
 79 359 l 1
 79 623 l 1
143 301 m 1
 143 57 l 1
 203 57 l 2
 239 57 272 59 307 83 c 0
 367 124 399 208 399 307 c 0
 399 376 384 453 346 504 c 0
 304 562 253 564 214 564 c 2
 143 564 l 1
 143 359 l 1
 248 359 l 1
 248 301 l 1
 143 301 l 1
EndSplineSet
EndChar

StartChar: Ntilde
Encoding: 209 209 145
Width: 500
GlyphClass: 2
Flags: MW
HStem: 0 21G<50 50 50 117> 603 21G 669 59<323.5 345.5 323.5 348.5> 745 57<188 223>
VStem: 50 67<0 490 0 623> 380 67<162 597 -1 624 -1 624>
LayerCount: 2
Fore
SplineSet
135 684 m 1
 91 715 l 1
 128 774 165 802 204 802 c 0
 245 802 271 772 284 759 c 0
 300 742 314 728 333 728 c 0
 358 728 370 751 392 780 c 1
 429 740 l 1
 394 697 367 669 330 669 c 0
 272 669 245 745 201 745 c 0
 175 745 159 723 135 684 c 1
50 0 m 1
 50 623 l 1
 118 623 l 1
 380 162 l 1
 380 624 l 1
 454 624 l 1
 455 618 452 613 451 611 c 0
 449 607 447 604 447 597 c 2
 447 -1 l 1
 392 -1 l 1
 117 490 l 1
 117 0 l 1
 50 0 l 1
EndSplineSet
EndChar

StartChar: Ograve
Encoding: 210 210 146
Width: 500
GlyphClass: 2
Flags: MW
HStem: -9 68<219 275 219 287.5> 564 66<217.5 272>
VStem: 29 69<223 415 223 434.5> 401 70<282.5 327.5>
LayerCount: 2
Fore
SplineSet
181 792 m 1
 334 702 l 1
 311 660 l 1
 142 722 l 1
 181 792 l 1
471 310 m 0
 471 255 467 178 434 111 c 0
 393 28 321 -9 254 -9 c 0
 159 -9 29 67 29 312 c 0
 29 557 160 630 253 630 c 0
 321 630 392 593 433 513 c 0
 467 447 471 368 471 310 c 0
250 564 m 0
 185 564 98 508 98 322 c 0
 98 124 184 59 254 59 c 0
 296 59 345 82 374 143 c 0
 399 197 401 260 401 301 c 0
 401 354 398 414 377 466 c 0
 348 538 294 564 250 564 c 0
EndSplineSet
EndChar

StartChar: Oacute
Encoding: 211 211 147
Width: 500
GlyphClass: 2
Flags: MW
HStem: -9 68<219 275 219 287.5> 564 66<217.5 272>
VStem: 29 69<223 415 223 434.5> 401 70<282.5 327.5>
LayerCount: 2
Fore
SplineSet
325 792 m 1
 365 722 l 1
 196 660 l 1
 172 702 l 1
 325 792 l 1
471 310 m 0
 471 255 467 178 434 111 c 0
 393 28 321 -9 254 -9 c 0
 159 -9 29 67 29 312 c 0
 29 557 160 630 253 630 c 0
 321 630 392 593 433 513 c 0
 467 447 471 368 471 310 c 0
250 564 m 0
 185 564 98 508 98 322 c 0
 98 124 184 59 254 59 c 0
 296 59 345 82 374 143 c 0
 399 197 401 260 401 301 c 0
 401 354 398 414 377 466 c 0
 348 538 294 564 250 564 c 0
EndSplineSet
EndChar

StartChar: Ocircumflex
Encoding: 212 212 148
Width: 500
GlyphClass: 2
Flags: MW
HStem: -9 68<219 275 219 287.5> 564 66<217.5 272>
VStem: 29 69<223 415 223 434.5> 401 70<282.5 327.5>
LayerCount: 2
Fore
SplineSet
113 692 m 1
 244 792 l 1
 266 792 l 1
 389 694 l 1
 356 656 l 1
 253 727 l 1
 142 659 l 1
 113 692 l 1
471 310 m 0
 471 255 467 178 434 111 c 0
 393 28 321 -9 254 -9 c 0
 159 -9 29 67 29 312 c 0
 29 557 160 630 253 630 c 0
 321 630 392 593 433 513 c 0
 467 447 471 368 471 310 c 0
250 564 m 0
 185 564 98 508 98 322 c 0
 98 124 184 59 254 59 c 0
 296 59 345 82 374 143 c 0
 399 197 401 260 401 301 c 0
 401 354 398 414 377 466 c 0
 348 538 294 564 250 564 c 0
EndSplineSet
EndChar

StartChar: Otilde
Encoding: 213 213 149
Width: 500
GlyphClass: 2
Flags: MW
HStem: -9 68<219 275 219 287.5> 564 66<217.5 272> 669 59<323.5 345.5 323.5 348.5> 745 57<188 223>
VStem: 29 69<223 415 223 434.5> 401 70<282.5 327.5>
LayerCount: 2
Fore
SplineSet
135 684 m 1
 91 715 l 1
 128 774 165 802 204 802 c 0
 245 802 271 772 284 759 c 0
 300 742 314 728 333 728 c 0
 358 728 370 751 392 780 c 1
 429 740 l 1
 394 697 367 669 330 669 c 0
 272 669 245 745 201 745 c 0
 175 745 159 723 135 684 c 1
471 310 m 0
 471 255 467 178 434 111 c 0
 393 28 321 -9 254 -9 c 0
 159 -9 29 67 29 312 c 0
 29 557 160 630 253 630 c 0
 321 630 392 593 433 513 c 0
 467 447 471 368 471 310 c 0
250 564 m 0
 185 564 98 508 98 322 c 0
 98 124 184 59 254 59 c 0
 296 59 345 82 374 143 c 0
 399 197 401 260 401 301 c 0
 401 354 398 414 377 466 c 0
 348 538 294 564 250 564 c 0
EndSplineSet
EndChar

StartChar: Odieresis
Encoding: 214 214 150
Width: 500
GlyphClass: 2
Flags: MW
HStem: -9 68<219 275 219 287.5> 564 66<217.5 272> 688 101<144 172 322.5 349.5>
VStem: 29 69<223 415 223 434.5> 108 101<724 752> 287 100<724 752> 401 70<282.5 327.5>
LayerCount: 2
Fore
SplineSet
209 738 m 0
 209 710 186 688 158 688 c 0
 130 688 108 710 108 738 c 0
 108 766 130 789 158 789 c 0
 186 789 209 766 209 738 c 0
387 738 m 0
 387 710 363 688 336 688 c 0
 309 688 287 710 287 738 c 0
 287 766 309 789 336 789 c 0
 363 789 387 766 387 738 c 0
471 310 m 0
 471 255 467 178 434 111 c 0
 393 28 321 -9 254 -9 c 0
 159 -9 29 67 29 312 c 0
 29 557 160 630 253 630 c 0
 321 630 392 593 433 513 c 0
 467 447 471 368 471 310 c 0
250 564 m 0
 185 564 98 508 98 322 c 0
 98 124 184 59 254 59 c 0
 296 59 345 82 374 143 c 0
 399 197 401 260 401 301 c 0
 401 354 398 414 377 466 c 0
 348 538 294 564 250 564 c 0
EndSplineSet
EndChar

StartChar: multiply
Encoding: 215 215 151
Width: 500
GlyphClass: 2
Flags: W
LayerCount: 2
Fore
SplineSet
382 503 m 1
 430 459 l 1
 300 325 l 1
 427 191 l 1
 380 145 l 1
 254 278 l 1
 129 149 l 1
 84 193 l 1
 210 324 l 1
 84 458 l 1
 132 503 l 1
 256 372 l 1
 382 503 l 1
EndSplineSet
EndChar

StartChar: Oslash
Encoding: 216 216 152
Width: 500
GlyphClass: 2
Flags: MW
HStem: -9 68<240.5 275 240.5 287.5> 564 66<217.5 264>
VStem: 29 69<282.5 415 282.5 434.5> 401 70<282.5 327.5>
LayerCount: 2
Fore
SplineSet
250 564 m 0
 185 564 98 508 98 322 c 0
 98 243 111 186 132 145 c 1
 336 528 l 1
 309 553 278 564 250 564 c 0
471 310 m 0
 471 255 467 178 434 111 c 0
 393 28 321 -9 254 -9 c 0
 217 -9 176 2 138 30 c 1
 88 -63 l 1
 36 -36 l 1
 95 74 l 1
 56 124 29 200 29 312 c 0
 29 557 160 630 253 630 c 0
 293 630 334 617 369 590 c 1
 415 677 l 1
 469 648 l 1
 414 545 l 1
 421 535 427 525 433 513 c 0
 467 447 471 368 471 310 c 0
375 472 m 1
 171 92 l 1
 197 68 227 59 254 59 c 0
 296 59 345 82 374 143 c 0
 399 197 401 260 401 301 c 0
 401 354 398 414 377 466 c 2
 375 472 l 1
EndSplineSet
EndChar

StartChar: Ugrave
Encoding: 217 217 153
Width: 500
GlyphClass: 2
Flags: MW
HStem: -11 59<228.5 277.5 228.5 287> 603 20G<50 128 128 128 388 454 454 454>
VStem: 50 69<215 591> 50 79<615 619 615 623 615 623> 388 66<217 218 218 623>
LayerCount: 2
Fore
SplineSet
181 792 m 1xc8
 334 702 l 1
 311 660 l 1
 142 722 l 1
 181 792 l 1xc8
50 623 m 1xd8
 128 623 l 2
 128 622 129 620 129 618 c 0xd8
 129 612 125 608 123 604 c 0
 119 599 119 595 119 591 c 2
 119 214 l 2
 119 183 120 153 134 122 c 0
 156 74 204 48 253 48 c 0
 302 48 349 73 372 121 c 0
 387 153 388 185 388 217 c 2
 388 623 l 1
 454 623 l 1
 454 218 l 2
 454 173 452 129 429 86 c 0
 393 21 323 -11 251 -11 c 0
 177 -11 109 21 74 85 c 0
 51 128 50 171 50 215 c 2xe8
 50 623 l 1xd8
EndSplineSet
EndChar

StartChar: Uacute
Encoding: 218 218 154
Width: 500
GlyphClass: 2
Flags: MW
HStem: -11 59<228.5 277.5 228.5 287> 603 20G<50 128 128 128 388 454 454 454>
VStem: 50 69<215 591> 50 79<615 619 615 623 615 623> 388 66<217 218 218 623>
LayerCount: 2
Fore
SplineSet
325 792 m 1xc8
 365 722 l 1
 196 660 l 1
 172 702 l 1
 325 792 l 1xc8
50 623 m 1xd8
 128 623 l 2
 128 622 129 620 129 618 c 0xd8
 129 612 125 608 123 604 c 0
 119 599 119 595 119 591 c 2
 119 214 l 2
 119 183 120 153 134 122 c 0
 156 74 204 48 253 48 c 0
 302 48 349 73 372 121 c 0
 387 153 388 185 388 217 c 2
 388 623 l 1
 454 623 l 1
 454 218 l 2
 454 173 452 129 429 86 c 0
 393 21 323 -11 251 -11 c 0
 177 -11 109 21 74 85 c 0
 51 128 50 171 50 215 c 2xe8
 50 623 l 1xd8
EndSplineSet
EndChar

StartChar: Ucircumflex
Encoding: 219 219 155
Width: 500
GlyphClass: 2
Flags: MW
HStem: -11 59<228.5 277.5 228.5 287> 603 20G<50 128 128 128 388 454 454 454>
VStem: 50 69<215 591> 50 79<615 619 615 623 615 623> 388 66<217 218 218 623>
LayerCount: 2
Fore
SplineSet
113 692 m 1xc8
 244 792 l 1
 266 792 l 1
 389 694 l 1
 356 656 l 1
 253 727 l 1
 142 659 l 1
 113 692 l 1xc8
50 623 m 1xd8
 128 623 l 2
 128 622 129 620 129 618 c 0xd8
 129 612 125 608 123 604 c 0
 119 599 119 595 119 591 c 2
 119 214 l 2
 119 183 120 153 134 122 c 0
 156 74 204 48 253 48 c 0
 302 48 349 73 372 121 c 0
 387 153 388 185 388 217 c 2
 388 623 l 1
 454 623 l 1
 454 218 l 2
 454 173 452 129 429 86 c 0
 393 21 323 -11 251 -11 c 0
 177 -11 109 21 74 85 c 0
 51 128 50 171 50 215 c 2xe8
 50 623 l 1xd8
EndSplineSet
EndChar

StartChar: Udieresis
Encoding: 220 220 156
Width: 500
GlyphClass: 2
Flags: MW
HStem: -11 59<228.5 277.5 228.5 287> 603 20G<50 128 128 128 388 454 454 454> 688 101<153 181 331.5 358.5>
VStem: 50 69<215 591> 50 79<615 619 615 623 615 623> 117 100<724 752> 295 100<724 752> 388 66<217 218 218 623>
LayerCount: 2
Fore
SplineSet
217 738 m 0xe4
 217 710 195 688 167 688 c 0
 139 688 117 710 117 738 c 0
 117 766 139 789 167 789 c 0
 195 789 217 766 217 738 c 0xe4
395 738 m 0xe2
 395 710 372 688 345 688 c 0
 318 688 295 710 295 738 c 0
 295 766 318 789 345 789 c 0
 372 789 395 766 395 738 c 0xe2
50 623 m 1xe8
 128 623 l 2
 128 622 129 620 129 618 c 0xe8
 129 612 125 608 123 604 c 0
 119 599 119 595 119 591 c 2
 119 214 l 2
 119 183 120 153 134 122 c 0
 156 74 204 48 253 48 c 0
 302 48 349 73 372 121 c 0
 387 153 388 185 388 217 c 2
 388 623 l 1
 454 623 l 1
 454 218 l 2
 454 173 452 129 429 86 c 0
 393 21 323 -11 251 -11 c 0
 177 -11 109 21 74 85 c 0
 51 128 50 171 50 215 c 2xf1
 50 623 l 1xe8
EndSplineSet
EndChar

StartChar: Yacute
Encoding: 221 221 157
Width: 500
GlyphClass: 2
Flags: MW
HStem: 0 21G<220 296 220 220> 604 20G<28 108 108 108>
VStem: 220 76<0 246 0 246>
LayerCount: 2
Fore
SplineSet
325 792 m 1
 365 722 l 1
 196 660 l 1
 172 702 l 1
 325 792 l 1
28 624 m 1
 108 624 l 1
 261 321 l 1
 399 623 l 1
 473 623 l 1
 296 246 l 1
 296 0 l 1
 220 0 l 1
 220 246 l 1
 28 624 l 1
EndSplineSet
EndChar

StartChar: Thorn
Encoding: 222 222 158
Width: 500
GlyphClass: 2
Flags: MW
HStem: 0 21G<59 129 59 59> 158 61<129 254 129 256> 440 66<129 249 129 249> 603 20G<59 137 137 137>
VStem: 59 70<0 158 0 219 219 440 506 596> 59 79<616.5 619.5 616.5 623 616.5 623> 384 72<307 347.5>
LayerCount: 2
Fore
SplineSet
59 623 m 1xf6
 137 623 l 2
 137 622 138 620 138 619 c 0xf6
 138 614 134 609 132 606 c 0
 129 602 129 599 129 596 c 2
 129 506 l 1
 249 506 l 2
 289 506 327 504 366 484 c 0
 425 454 456 393 456 330 c 0
 456 267 426 207 368 178 c 0
 330 159 293 158 254 158 c 2
 129 158 l 1
 129 0 l 1
 59 0 l 1xfa
 59 623 l 1xf6
129 440 m 1xfa
 129 219 l 1
 256 219 l 2
 280 219 305 220 329 232 c 0
 365 250 384 287 384 327 c 0
 384 368 364 407 325 427 c 0
 300 440 275 440 249 440 c 2
 129 440 l 1xfa
EndSplineSet
EndChar

StartChar: germandbls
Encoding: 223 223 159
Width: 500
GlyphClass: 2
Flags: MW
HStem: -10 64<268 312 268 332.5> 0 21G 323 57<214 243 243 244 214 243> 611 58<226.5 273>
VStem: 55 69<0 423 423 425 0 445.5> 352 68<471.5 528> 398 66<145 207.5>
LayerCount: 2
Fore
SplineSet
55 0 m 1x7c
 55 423 l 2
 55 468 55 515 76 561 c 0
 107 631 171 669 239 669 c 0
 339 669 420 588 420 493 c 0x7c
 420 435 390 384 341 359 c 1
 416 336 464 264 464 181 c 0
 464 72 384 -10 281 -10 c 0xba
 244 -10 208 0 177 21 c 1x7a
 212 77 l 1
 231 62 256 54 280 54 c 0
 344 54 398 109 398 181 c 0xba
 398 234 370 280 332 303 c 0
 304 321 277 323 244 323 c 2
 214 323 l 1
 214 380 l 1
 243 380 l 2
 258 380 272 381 289 388 c 0
 327 405 352 448 352 495 c 0
 352 561 303 611 243 611 c 0
 210 611 175 595 152 561 c 0
 124 519 124 469 124 425 c 2
 124 0 l 1
 55 0 l 1x7c
EndSplineSet
EndChar

StartChar: agrave
Encoding: 224 224 160
Width: 500
GlyphClass: 2
Flags: MW
HStem: -11 55<186.5 231> 0 21G<367 435 367 367> 214 55<351 352 352 366 351 369> 408 59<236 284>
VStem: 49 73<102.5 139.5 102.5 143.5> 367 68<0 50 50 50>
LayerCount: 2
Fore
SplineSet
243 699 m 1x3c
 332 552 l 1
 281 522 l 1
 180 657 l 1
 243 699 l 1x3c
91 403 m 1
 133 447 191 467 253 467 c 0
 324 467 383 441 413 391 c 0
 434 356 435 321 435 283 c 2
 435 0 l 1
 367 0 l 1x7c
 367 50 l 1
 317 9 259 -11 203 -11 c 0xbc
 108 -11 49 51 49 118 c 0
 49 169 82 223 154 249 c 0
 212 270 284 269 351 269 c 2
 366 269 l 1
 366 286 l 2
 366 310 366 339 351 364 c 0
 338 385 311 408 257 408 c 0
 215 408 164 396 126 357 c 1
 91 403 l 1
369 214 m 1
 352 214 l 2
 305 214 244 217 202 207 c 0
 145 193 122 156 122 123 c 0
 122 82 156 44 217 44 c 0xbc
 277 44 320 80 337 98 c 0
 368 131 369 161 369 184 c 2
 369 214 l 1
EndSplineSet
EndChar

StartChar: aacute
Encoding: 225 225 161
Width: 500
GlyphClass: 2
Flags: MW
HStem: -11 55<186.5 231> 0 21G<367 435 367 367> 214 55<351 352 352 366 351 369> 408 59<236 284>
VStem: 49 73<102.5 139.5 102.5 143.5> 367 68<0 50 50 50>
LayerCount: 2
Fore
SplineSet
292 699 m 1x3c
 354 657 l 1
 254 522 l 1
 204 552 l 1
 292 699 l 1x3c
91 403 m 1
 133 447 191 467 253 467 c 0
 324 467 383 441 413 391 c 0
 434 356 435 321 435 283 c 2
 435 0 l 1
 367 0 l 1x7c
 367 50 l 1
 317 9 259 -11 203 -11 c 0xbc
 108 -11 49 51 49 118 c 0
 49 169 82 223 154 249 c 0
 212 270 284 269 351 269 c 2
 366 269 l 1
 366 286 l 2
 366 310 366 339 351 364 c 0
 338 385 311 408 257 408 c 0
 215 408 164 396 126 357 c 1
 91 403 l 1
369 214 m 1
 352 214 l 2
 305 214 244 217 202 207 c 0
 145 193 122 156 122 123 c 0
 122 82 156 44 217 44 c 0xbc
 277 44 320 80 337 98 c 0
 368 131 369 161 369 184 c 2
 369 214 l 1
EndSplineSet
EndChar

StartChar: acircumflex
Encoding: 226 226 162
Width: 500
GlyphClass: 2
Flags: MW
HStem: -11 55<186.5 231> 0 21G<367 435 367 367> 214 55<351 352 352 366 351 369> 408 59<236 284>
VStem: 49 73<102.5 139.5 102.5 143.5> 367 68<0 50 50 50>
LayerCount: 2
Fore
SplineSet
141 544 m 1x3c
 252 685 l 1
 273 685 l 1
 384 543 l 1
 337 509 l 1
 260 612 l 1
 179 510 l 1
 141 544 l 1x3c
91 403 m 1
 133 447 191 467 253 467 c 0
 324 467 383 441 413 391 c 0
 434 356 435 321 435 283 c 2
 435 0 l 1
 367 0 l 1x7c
 367 50 l 1
 317 9 259 -11 203 -11 c 0xbc
 108 -11 49 51 49 118 c 0
 49 169 82 223 154 249 c 0
 212 270 284 269 351 269 c 2
 366 269 l 1
 366 286 l 2
 366 310 366 339 351 364 c 0
 338 385 311 408 257 408 c 0
 215 408 164 396 126 357 c 1
 91 403 l 1
369 214 m 1
 352 214 l 2
 305 214 244 217 202 207 c 0
 145 193 122 156 122 123 c 0
 122 82 156 44 217 44 c 0xbc
 277 44 320 80 337 98 c 0
 368 131 369 161 369 184 c 2
 369 214 l 1
EndSplineSet
EndChar

StartChar: atilde
Encoding: 227 227 163
Width: 500
GlyphClass: 2
Flags: MW
HStem: -11 55<186.5 231> 0 21G<367 435 367 367> 214 55<351 352 352 366 351 369> 408 59<236 284> 543 59<333.5 355.5 333.5 358.5> 619 57<197 232>
VStem: 49 73<102.5 139.5 102.5 143.5> 367 68<0 50 50 50>
LayerCount: 2
Fore
SplineSet
145 558 m 1x3f
 100 589 l 1
 137 648 174 676 213 676 c 0
 254 676 280 646 293 633 c 0
 309 616 324 602 343 602 c 0
 368 602 379 625 401 654 c 1
 438 614 l 1
 403 571 377 543 340 543 c 0
 282 543 254 619 210 619 c 0
 184 619 169 597 145 558 c 1x3f
91 403 m 1
 133 447 191 467 253 467 c 0
 324 467 383 441 413 391 c 0
 434 356 435 321 435 283 c 2
 435 0 l 1
 367 0 l 1x7f
 367 50 l 1
 317 9 259 -11 203 -11 c 0xbf
 108 -11 49 51 49 118 c 0
 49 169 82 223 154 249 c 0
 212 270 284 269 351 269 c 2
 366 269 l 1
 366 286 l 2
 366 310 366 339 351 364 c 0
 338 385 311 408 257 408 c 0
 215 408 164 396 126 357 c 1
 91 403 l 1
369 214 m 1
 352 214 l 2
 305 214 244 217 202 207 c 0
 145 193 122 156 122 123 c 0
 122 82 156 44 217 44 c 0xbf
 277 44 320 80 337 98 c 0
 368 131 369 161 369 184 c 2
 369 214 l 1
EndSplineSet
EndChar

StartChar: adieresis
Encoding: 228 228 164
Width: 500
GlyphClass: 2
Flags: MW
HStem: -11 55<186.5 231> 0 21G<367 435 367 367> 214 55<351 352 352 366 351 369> 408 59<236 284> 563 102<162 190 340.5 367.5>
VStem: 49 73<102.5 139.5 102.5 143.5> 125 101<600 628> 304 100<600 628> 367 68<0 50 50 50>
LayerCount: 2
Fore
SplineSet
226 614 m 0x3e
 226 586 204 563 176 563 c 0
 148 563 125 586 125 614 c 0
 125 642 148 665 176 665 c 0
 204 665 226 642 226 614 c 0x3e
404 614 m 0x3f
 404 586 381 563 354 563 c 0
 327 563 304 586 304 614 c 0
 304 642 327 665 354 665 c 0
 381 665 404 642 404 614 c 0x3f
91 403 m 1
 133 447 191 467 253 467 c 0
 324 467 383 441 413 391 c 0
 434 356 435 321 435 283 c 2
 435 0 l 1
 367 0 l 1x7e80
 367 50 l 1
 317 9 259 -11 203 -11 c 0xbe80
 108 -11 49 51 49 118 c 0
 49 169 82 223 154 249 c 0
 212 270 284 269 351 269 c 2
 366 269 l 1
 366 286 l 2
 366 310 366 339 351 364 c 0
 338 385 311 408 257 408 c 0
 215 408 164 396 126 357 c 1
 91 403 l 1
369 214 m 1
 352 214 l 2
 305 214 244 217 202 207 c 0
 145 193 122 156 122 123 c 0
 122 82 156 44 217 44 c 0xbe
 277 44 320 80 337 98 c 0
 368 131 369 161 369 184 c 2
 369 214 l 1
EndSplineSet
EndChar

StartChar: aring
Encoding: 229 229 165
Width: 500
GlyphClass: 2
Flags: MW
HStem: -11 55<186.5 231> 0 21G<367 435 367 367> 214 55<351 352 352 366 351 369> 408 59<236 284> 517 43<245.5 268 245.5 281.5> 651 42<246 268>
VStem: 49 73<102.5 139.5 102.5 143.5> 165 51<592.5 618 592.5 629> 299 49<593 619> 367 68<0 50 50 50>
LayerCount: 2
Fore
SplineSet
348 605 m 0x3fc0
 348 557 307 517 256 517 c 0
 205 517 165 557 165 605 c 0
 165 653 205 693 256 693 c 0
 307 693 348 653 348 605 c 0x3fc0
216 605 m 0
 216 580 234 560 257 560 c 0
 279 560 299 580 299 606 c 0
 299 632 279 651 257 651 c 0
 235 651 216 631 216 605 c 0
91 403 m 1
 133 447 191 467 253 467 c 0
 324 467 383 441 413 391 c 0
 434 356 435 321 435 283 c 2
 435 0 l 1
 367 0 l 1x7fc0
 367 50 l 1
 317 9 259 -11 203 -11 c 0xbfc0
 108 -11 49 51 49 118 c 0
 49 169 82 223 154 249 c 0
 212 270 284 269 351 269 c 2
 366 269 l 1
 366 286 l 2
 366 310 366 339 351 364 c 0
 338 385 311 408 257 408 c 0
 215 408 164 396 126 357 c 1
 91 403 l 1
369 214 m 1
 352 214 l 2
 305 214 244 217 202 207 c 0
 145 193 122 156 122 123 c 0
 122 82 156 44 217 44 c 0xbfc0
 277 44 320 80 337 98 c 0
 368 131 369 161 369 184 c 2
 369 214 l 1
EndSplineSet
EndChar

StartChar: ae
Encoding: 230 230 166
Width: 500
GlyphClass: 2
Flags: MW
HStem: -11 58<366.5 400.5 366.5 402> 219 60<221 221> 230 55 411 56<128 157.5 349.5 374.5>
VStem: 10 64<106.5 142.5 106.5 149.5> 221 61<181 219 219 219 279 296> 432 58<230 305 230 315.5>
LayerCount: 2
Fore
SplineSet
31 412 m 1xde
 59 448 102 467 146 467 c 0
 195 467 237 443 258 405 c 1
 280 444 321 467 363 467 c 0
 399 467 439 450 464 409 c 0
 491 366 490 314 490 269 c 2
 490 230 l 1xbe
 282 222 l 1
 282 175 l 2
 282 151 282 130 292 109 c 0
 309 70 347 47 386 47 c 0
 415 47 442 60 459 83 c 1
 495 42 l 1
 467 8 424 -11 380 -11 c 0
 329 -11 281 15 254 58 c 1
 233 16 190 -11 142 -11 c 0
 70 -11 10 49 10 124 c 0
 10 175 40 231 102 259 c 0
 139 276 175 277 199 278 c 2
 221 279 l 1
 221 305 l 2
 221 324 220 339 214 356 c 0
 202 390 173 411 142 411 c 0
 114 411 85 394 66 368 c 1
 31 412 l 1xde
221 219 m 1xde
 199 218 l 2
 174 217 147 217 122 204 c 0
 89 187 74 157 74 128 c 0
 74 85 107 50 148 50 c 0
 175 50 203 66 214 97 c 0
 223 121 221 146 221 181 c 2
 221 219 l 1xde
282 279 m 1
 432 285 l 1xbe
 432 305 l 2
 432 326 432 346 423 367 c 0
 411 395 387 411 362 411 c 0
 337 411 316 396 301 374 c 0
 283 348 282 320 282 296 c 2
 282 279 l 1
EndSplineSet
EndChar

StartChar: ccedilla
Encoding: 231 231 167
Width: 500
GlyphClass: 2
Flags: MW
HStem: -177 43<266 300.5 266 311.5> -10 64<260 260 304 304> 405 61<239 320>
VStem: 56 74<182.5 288 182.5 297.5> 327 57<-113.5 -106>
LayerCount: 2
Fore
SplineSet
457 381 m 1
 406 322 l 1
 398 328 403 337 399 345 c 0
 397 350 359 405 281 405 c 0
 197 405 130 340 130 236 c 0
 130 129 198 54 287 54 c 0
 333 54 377 74 408 109 c 1
 450 61 l 1
 411 19 360 -5 304 -10 c 1
 299 -47 l 1
 316 -48 l 2
 329 -48 341 -50 354 -56 c 0
 373 -65 384 -83 384 -103 c 0
 384 -139 348 -177 275 -177 c 0
 236 -177 195 -166 157 -140 c 1
 182 -98 l 1
 213 -123 251 -134 281 -134 c 0
 320 -134 327 -118 327 -109 c 0
 327 -103 324 -97 316 -92 c 0
 305 -85 291 -85 280 -85 c 2
 250 -85 l 1
 260 -10 l 1
 141 0 56 99 56 229 c 0
 56 366 152 466 286 466 c 0
 359 466 421 434 457 381 c 1
EndSplineSet
EndChar

StartChar: egrave
Encoding: 232 232 168
Width: 500
GlyphClass: 2
Flags: MW
HStem: -10 58<242.5 295.5 242.5 300.5> 218 55<121 372 121 443 119 372> 413 55<228.5 290>
VStem: 49 70<218 218 218 306.5>
LayerCount: 2
Fore
SplineSet
243 699 m 1
 332 552 l 1
 281 522 l 1
 180 657 l 1
 243 699 l 1
259 468 m 0
 334 468 418 429 439 306 c 0
 443 280 446 249 443 218 c 1
 119 218 l 1
 124 81 212 48 273 48 c 0
 318 48 362 66 392 99 c 1
 432 61 l 1
 393 14 333 -10 268 -10 c 0
 144 -10 49 71 49 223 c 0
 49 390 150 468 259 468 c 0
121 273 m 1
 372 273 l 1
 381 347 327 413 253 413 c 0
 204 413 135 381 121 273 c 1
EndSplineSet
EndChar

StartChar: eacute
Encoding: 233 233 169
Width: 500
GlyphClass: 2
Flags: MW
HStem: -10 58<242.5 295.5 242.5 300.5> 218 55<121 372 121 443 119 372> 413 55<228.5 290>
VStem: 49 70<218 218 218 306.5>
LayerCount: 2
Fore
SplineSet
292 699 m 1
 354 657 l 1
 254 522 l 1
 204 552 l 1
 292 699 l 1
259 468 m 0
 334 468 418 429 439 306 c 0
 443 280 446 249 443 218 c 1
 119 218 l 1
 124 81 212 48 273 48 c 0
 318 48 362 66 392 99 c 1
 432 61 l 1
 393 14 333 -10 268 -10 c 0
 144 -10 49 71 49 223 c 0
 49 390 150 468 259 468 c 0
121 273 m 1
 372 273 l 1
 381 347 327 413 253 413 c 0
 204 413 135 381 121 273 c 1
EndSplineSet
EndChar

StartChar: ecircumflex
Encoding: 234 234 170
Width: 500
GlyphClass: 2
Flags: MW
HStem: -10 58<242.5 295.5 242.5 300.5> 218 55<121 372 121 443 119 372> 413 55<228.5 290>
VStem: 49 70<218 218 218 306.5>
LayerCount: 2
Fore
SplineSet
134 544 m 1
 245 685 l 1
 267 685 l 1
 377 543 l 1
 331 509 l 1
 253 612 l 1
 172 510 l 1
 134 544 l 1
259 468 m 0
 334 468 418 429 439 306 c 0
 443 280 446 249 443 218 c 1
 119 218 l 1
 124 81 212 48 273 48 c 0
 318 48 362 66 392 99 c 1
 432 61 l 1
 393 14 333 -10 268 -10 c 0
 144 -10 49 71 49 223 c 0
 49 390 150 468 259 468 c 0
121 273 m 1
 372 273 l 1
 381 347 327 413 253 413 c 0
 204 413 135 381 121 273 c 1
EndSplineSet
EndChar

StartChar: edieresis
Encoding: 235 235 171
Width: 500
GlyphClass: 2
Flags: MW
HStem: -10 58<242.5 295.5 242.5 300.5> 218 55<121 372 121 443 119 372> 413 55<228.5 290> 563 102<151 179 329.5 356.5>
VStem: 49 70<218 218 218 306.5> 114 101<600 628> 292 101<600 628>
LayerCount: 2
Fore
SplineSet
215 614 m 0xf6
 215 586 193 563 165 563 c 0
 137 563 114 586 114 614 c 0
 114 642 137 665 165 665 c 0
 193 665 215 642 215 614 c 0xf6
393 614 m 0
 393 586 370 563 343 563 c 0
 316 563 292 586 292 614 c 0
 292 642 316 665 343 665 c 0
 370 665 393 642 393 614 c 0
259 468 m 0
 334 468 418 429 439 306 c 0
 443 280 446 249 443 218 c 1
 119 218 l 1
 124 81 212 48 273 48 c 0
 318 48 362 66 392 99 c 1
 432 61 l 1
 393 14 333 -10 268 -10 c 0
 144 -10 49 71 49 223 c 0xfa
 49 390 150 468 259 468 c 0
121 273 m 1
 372 273 l 1
 381 347 327 413 253 413 c 0
 204 413 135 381 121 273 c 1
EndSplineSet
EndChar

StartChar: igrave
Encoding: 236 236 172
Width: 500
GlyphClass: 2
Flags: MW
HStem: 0 58<100 217 289 396 100 217> 399 59<106 217 106 289>
VStem: 217 72<58 399 399 399>
LayerCount: 2
Fore
SplineSet
191 699 m 1
 280 552 l 1
 229 522 l 1
 128 657 l 1
 191 699 l 1
106 458 m 1
 289 458 l 1
 289 58 l 1
 396 58 l 1
 396 0 l 1
 100 0 l 1
 100 58 l 1
 217 58 l 1
 217 399 l 1
 106 399 l 1
 106 458 l 1
EndSplineSet
EndChar

StartChar: iacute
Encoding: 237 237 173
Width: 500
GlyphClass: 2
Flags: MW
HStem: 0 58<100 217 289 396 100 217> 399 59<106 217 106 289>
VStem: 217 72<58 399 399 399>
LayerCount: 2
Fore
SplineSet
283 699 m 1
 346 657 l 1
 245 522 l 1
 195 552 l 1
 283 699 l 1
106 458 m 1
 289 458 l 1
 289 58 l 1
 396 58 l 1
 396 0 l 1
 100 0 l 1
 100 58 l 1
 217 58 l 1
 217 399 l 1
 106 399 l 1
 106 458 l 1
EndSplineSet
EndChar

StartChar: icircumflex
Encoding: 238 238 174
Width: 500
GlyphClass: 2
Flags: MW
HStem: 0 58<100 217 289 396 100 217> 399 59<106 217 106 289>
VStem: 217 72<58 399 399 399>
LayerCount: 2
Fore
SplineSet
113 544 m 1
 225 685 l 1
 246 685 l 1
 356 543 l 1
 310 509 l 1
 232 612 l 1
 151 510 l 1
 113 544 l 1
106 458 m 1
 289 458 l 1
 289 58 l 1
 396 58 l 1
 396 0 l 1
 100 0 l 1
 100 58 l 1
 217 58 l 1
 217 399 l 1
 106 399 l 1
 106 458 l 1
EndSplineSet
EndChar

StartChar: idieresis
Encoding: 239 239 175
Width: 500
GlyphClass: 2
Flags: MW
HStem: 0 58<100 217 289 396 100 217> 399 59<106 217 106 289> 563 102<138 166 317.5 344.5>
VStem: 102 101<600 628> 217 72<58 399 399 399> 280 100<600 628>
LayerCount: 2
Fore
SplineSet
203 614 m 0xf0
 203 586 180 563 152 563 c 0
 124 563 102 586 102 614 c 0
 102 642 124 665 152 665 c 0
 180 665 203 642 203 614 c 0xf0
380 614 m 0xf4
 380 586 358 563 331 563 c 0
 304 563 280 586 280 614 c 0
 280 642 304 665 331 665 c 0
 358 665 380 642 380 614 c 0xf4
106 458 m 1
 289 458 l 1
 289 58 l 1
 396 58 l 1
 396 0 l 1
 100 0 l 1
 100 58 l 1
 217 58 l 1
 217 399 l 1xf8
 106 399 l 1
 106 458 l 1
EndSplineSet
EndChar

StartChar: eth
Encoding: 240 240 176
Width: 500
GlyphClass: 2
Flags: MW
HStem: -12 62<219 283 219 289> 406 61<221.5 272 193.5 281>
VStem: 41 76<174 291 174 291.5> 388 72<226 301.5>
LayerCount: 2
Fore
SplineSet
255 406 m 0
 188 406 117 350 117 232 c 0
 117 116 183 50 255 50 c 0
 311 50 388 93 388 232 c 0
 388 371 307 406 255 406 c 0
347 570 m 1
 408 501 460 399 460 253 c 0
 460 199 453 136 421 82 c 0
 384 21 322 -12 256 -12 c 0
 140 -12 41 86 41 223 c 0
 41 360 138 467 249 467 c 0
 295 467 339 448 369 415 c 1
 349 466 320 512 283 552 c 1
 155 516 l 1
 137 563 l 1
 241 592 l 1
 210 618 176 639 139 656 c 1
 220 672 l 1
 246 657 276 637 307 610 c 1
 415 640 l 1
 432 595 l 1
 347 570 l 1
EndSplineSet
EndChar

StartChar: ntilde
Encoding: 241 241 177
Width: 500
GlyphClass: 2
Flags: MW
HStem: 0 21G<68 68 68 142 361 361 361 432> 405 63<262 285.5> 437 20G<68 142 142 142> 543 59<319.5 341.5 319.5 343.5> 619 57<183 218>
VStem: 68 74<0 263 376 457> 361 71<0 275 275 277 0 291>
LayerCount: 2
Fore
SplineSet
130 558 m 1x9e
 85 589 l 1
 122 648 160 676 199 676 c 0
 240 676 266 646 279 633 c 0
 295 616 310 602 329 602 c 0
 354 602 365 625 387 654 c 1
 424 614 l 1
 389 571 362 543 325 543 c 0
 267 543 240 619 196 619 c 0
 170 619 154 597 130 558 c 1x9e
68 0 m 1
 68 457 l 1
 142 457 l 1xbe
 142 376 l 1
 176 427 231 468 293 468 c 0
 345 468 392 438 415 387 c 0
 431 350 432 313 432 277 c 2
 432 0 l 1
 361 0 l 1
 361 275 l 2
 361 307 361 346 336 376 c 0
 319 396 297 405 274 405 c 0xde
 226 405 182 365 164 342 c 0
 145 317 142 294 142 263 c 2
 142 0 l 1
 68 0 l 1
EndSplineSet
EndChar

StartChar: ograve
Encoding: 242 242 178
Width: 500
GlyphClass: 2
Flags: MW
HStem: -12 62<218.5 288.5 218.5 308> 406 61<217 285>
VStem: 41 76<174.5 287 174.5 295.5> 388 72<165.5 285.5>
LayerCount: 2
Fore
SplineSet
243 699 m 1
 332 552 l 1
 281 522 l 1
 180 657 l 1
 243 699 l 1
460 227 m 0
 460 76 362 -12 254 -12 c 0
 139 -12 41 86 41 225 c 0
 41 366 141 467 257 467 c 0
 361 467 460 385 460 227 c 0
252 406 m 0
 182 406 117 343 117 231 c 0
 117 118 182 50 255 50 c 0
 322 50 388 108 388 223 c 0
 388 348 318 406 252 406 c 0
EndSplineSet
EndChar

StartChar: oacute
Encoding: 243 243 179
Width: 500
GlyphClass: 2
Flags: MW
HStem: -12 62<218.5 288.5 218.5 308> 406 61<217 285>
VStem: 41 76<174.5 287 174.5 295.5> 388 72<165.5 285.5>
LayerCount: 2
Fore
SplineSet
292 699 m 1
 354 657 l 1
 254 522 l 1
 204 552 l 1
 292 699 l 1
460 227 m 0
 460 76 362 -12 254 -12 c 0
 139 -12 41 86 41 225 c 0
 41 366 141 467 257 467 c 0
 361 467 460 385 460 227 c 0
252 406 m 0
 182 406 117 343 117 231 c 0
 117 118 182 50 255 50 c 0
 322 50 388 108 388 223 c 0
 388 348 318 406 252 406 c 0
EndSplineSet
EndChar

StartChar: ocircumflex
Encoding: 244 244 180
Width: 500
GlyphClass: 2
Flags: MW
HStem: -12 62<218.5 288.5 218.5 308> 406 61<217 285>
VStem: 41 76<174.5 287 174.5 295.5> 388 72<165.5 285.5>
LayerCount: 2
Fore
SplineSet
134 544 m 1
 245 685 l 1
 267 685 l 1
 377 543 l 1
 331 509 l 1
 253 612 l 1
 172 510 l 1
 134 544 l 1
460 227 m 0
 460 76 362 -12 254 -12 c 0
 139 -12 41 86 41 225 c 0
 41 366 141 467 257 467 c 0
 361 467 460 385 460 227 c 0
252 406 m 0
 182 406 117 343 117 231 c 0
 117 118 182 50 255 50 c 0
 322 50 388 108 388 223 c 0
 388 348 318 406 252 406 c 0
EndSplineSet
EndChar

StartChar: otilde
Encoding: 245 245 181
Width: 500
GlyphClass: 2
Flags: MW
HStem: -12 62<218.5 288.5 218.5 308> 406 61<217 285> 543 59<323.5 345.5 323.5 348.5> 619 57<188 223>
VStem: 41 76<174.5 287 174.5 295.5> 388 72<165.5 285.5>
LayerCount: 2
Fore
SplineSet
135 558 m 1
 91 589 l 1
 128 648 165 676 204 676 c 0
 245 676 271 646 284 633 c 0
 300 616 314 602 333 602 c 0
 358 602 370 625 392 654 c 1
 429 614 l 1
 394 571 367 543 330 543 c 0
 272 543 245 619 201 619 c 0
 175 619 159 597 135 558 c 1
460 227 m 0
 460 76 362 -12 254 -12 c 0
 139 -12 41 86 41 225 c 0
 41 366 141 467 257 467 c 0
 361 467 460 385 460 227 c 0
252 406 m 0
 182 406 117 343 117 231 c 0
 117 118 182 50 255 50 c 0
 322 50 388 108 388 223 c 0
 388 348 318 406 252 406 c 0
EndSplineSet
EndChar

StartChar: odieresis
Encoding: 246 246 182
Width: 500
GlyphClass: 2
Flags: MW
HStem: -12 62<218.5 288.5 218.5 308> 406 61<217 285> 563 102<149 177 327.5 354.5>
VStem: 41 76<174.5 287 174.5 295.5> 112 101<600 628> 291 100<600 628> 388 72<165.5 285.5>
LayerCount: 2
Fore
SplineSet
213 614 m 0xe8
 213 586 191 563 163 563 c 0
 135 563 112 586 112 614 c 0
 112 642 135 665 163 665 c 0
 191 665 213 642 213 614 c 0xe8
391 614 m 0xe4
 391 586 368 563 341 563 c 0
 314 563 291 586 291 614 c 0
 291 642 314 665 341 665 c 0
 368 665 391 642 391 614 c 0xe4
460 227 m 0xf2
 460 76 362 -12 254 -12 c 0
 139 -12 41 86 41 225 c 0
 41 366 141 467 257 467 c 0
 361 467 460 385 460 227 c 0xf2
252 406 m 0
 182 406 117 343 117 231 c 0
 117 118 182 50 255 50 c 0
 322 50 388 108 388 223 c 0
 388 348 318 406 252 406 c 0
EndSplineSet
EndChar

StartChar: divide
Encoding: 247 247 183
Width: 500
GlyphClass: 2
Flags: MW
HStem: 114 90<242.5 267.5> 281 67<71 431 71 431> 422 90<242.5 267.5>
VStem: 210 90<146.5 171.5 454.5 479.5>
LayerCount: 2
Fore
SplineSet
71 348 m 1
 431 348 l 1
 431 281 l 1
 71 281 l 1
 71 348 l 1
300 467 m 0
 300 442 280 422 255 422 c 0
 230 422 210 442 210 467 c 0
 210 492 230 512 255 512 c 0
 280 512 300 492 300 467 c 0
300 159 m 0
 300 134 280 114 255 114 c 0
 230 114 210 134 210 159 c 0
 210 184 230 204 255 204 c 0
 280 204 300 184 300 159 c 0
EndSplineSet
EndChar

StartChar: oslash
Encoding: 248 248 184
Width: 500
GlyphClass: 2
Flags: MW
HStem: -12 62<244.5 288.5 244.5 308> 406 61<217 261>
VStem: 41 76<206 287 206 295.5> 388 72<165.5 252>
LayerCount: 2
Fore
SplineSet
252 406 m 0
 182 406 117 343 117 231 c 0
 117 181 129 140 150 110 c 1
 304 394 l 1
 287 402 270 406 252 406 c 0
460 227 m 0
 460 76 362 -12 254 -12 c 0
 221 -12 190 -5 162 10 c 1
 122 -64 l 1
 70 -37 l 1
 114 44 l 1
 69 86 41 150 41 225 c 0
 41 366 141 467 257 467 c 0
 284 467 310 461 335 450 c 1
 372 519 l 1
 425 490 l 1
 386 417 l 1
 430 377 460 314 460 227 c 0
351 354 m 1
 194 67 l 1
 213 56 234 50 255 50 c 0
 322 50 388 108 388 223 c 0
 388 281 373 324 351 354 c 1
EndSplineSet
EndChar

StartChar: ugrave
Encoding: 249 249 185
Width: 500
GlyphClass: 2
Flags: MW
HStem: -11 58<221 250.5> 0 21G<364 440 364 364> 437 20G<63 135 135 135 362 435 435 435>
VStem: 62 73<186.5 202 186.5 202> 362 73<29 42 206 457>
LayerCount: 2
Fore
SplineSet
243 699 m 1x38
 332 552 l 1
 281 522 l 1
 180 657 l 1
 243 699 l 1x38
63 457 m 1
 135 457 l 1
 135 202 l 2
 135 171 135 136 151 104 c 0
 169 68 203 47 239 47 c 0xb8
 283 47 323 77 344 115 c 0
 359 143 362 171 362 206 c 2
 362 457 l 1
 435 457 l 1
 435 42 l 2
 435 29 436 14 440 0 c 1
 364 0 l 1x78
 362 12 362 23 362 35 c 2
 363 70 l 1
 333 20 279 -11 222 -11 c 0xb8
 162 -11 107 22 80 82 c 0
 62 122 62 162 62 202 c 2
 63 457 l 1
EndSplineSet
EndChar

StartChar: uacute
Encoding: 250 250 186
Width: 500
GlyphClass: 2
Flags: MW
HStem: -11 58<221 250.5> 0 21G<364 440 364 364> 437 20G<63 135 135 135 362 435 435 435>
VStem: 62 73<186.5 202 186.5 202> 362 73<29 42 206 457>
LayerCount: 2
Fore
SplineSet
292 699 m 1x38
 354 657 l 1
 254 522 l 1
 204 552 l 1
 292 699 l 1x38
63 457 m 1
 135 457 l 1
 135 202 l 2
 135 171 135 136 151 104 c 0
 169 68 203 47 239 47 c 0xb8
 283 47 323 77 344 115 c 0
 359 143 362 171 362 206 c 2
 362 457 l 1
 435 457 l 1
 435 42 l 2
 435 29 436 14 440 0 c 1
 364 0 l 1x78
 362 12 362 23 362 35 c 2
 363 70 l 1
 333 20 279 -11 222 -11 c 0xb8
 162 -11 107 22 80 82 c 0
 62 122 62 162 62 202 c 2
 63 457 l 1
EndSplineSet
EndChar

StartChar: ucircumflex
Encoding: 251 251 187
Width: 500
GlyphClass: 2
Flags: MW
HStem: -11 58<221 250.5> 0 21G<364 440 364 364> 437 20G<63 135 135 135 362 435 435 435>
VStem: 62 73<186.5 202 186.5 202> 362 73<29 42 206 457>
LayerCount: 2
Fore
SplineSet
134 544 m 1x38
 245 685 l 1
 267 685 l 1
 377 543 l 1
 331 509 l 1
 253 612 l 1
 172 510 l 1
 134 544 l 1x38
63 457 m 1
 135 457 l 1
 135 202 l 2
 135 171 135 136 151 104 c 0
 169 68 203 47 239 47 c 0xb8
 283 47 323 77 344 115 c 0
 359 143 362 171 362 206 c 2
 362 457 l 1
 435 457 l 1
 435 42 l 2
 435 29 436 14 440 0 c 1
 364 0 l 1x78
 362 12 362 23 362 35 c 2
 363 70 l 1
 333 20 279 -11 222 -11 c 0xb8
 162 -11 107 22 80 82 c 0
 62 122 62 162 62 202 c 2
 63 457 l 1
EndSplineSet
EndChar

StartChar: udieresis
Encoding: 252 252 188
Width: 500
GlyphClass: 2
Flags: MW
HStem: -11 58<221 250.5> 0 21G<364 440 364 364> 437 20G<63 135 135 135 362 435 435 435> 563 102<149 177 327.5 354.5>
VStem: 62 73<186.5 202 186.5 202> 112 101<600 628> 291 100<600 628> 362 73<29 42 206 457>
LayerCount: 2
Fore
SplineSet
213 614 m 0x34
 213 586 191 563 163 563 c 0
 135 563 112 586 112 614 c 0
 112 642 135 665 163 665 c 0
 191 665 213 642 213 614 c 0x34
391 614 m 0x32
 391 586 368 563 341 563 c 0
 314 563 291 586 291 614 c 0
 291 642 314 665 341 665 c 0
 368 665 391 642 391 614 c 0x32
63 457 m 1
 135 457 l 1
 135 202 l 2
 135 171 135 136 151 104 c 0
 169 68 203 47 239 47 c 0xb9
 283 47 323 77 344 115 c 0
 359 143 362 171 362 206 c 2
 362 457 l 1
 435 457 l 1
 435 42 l 2
 435 29 436 14 440 0 c 1
 364 0 l 1x79
 362 12 362 23 362 35 c 2
 363 70 l 1
 333 20 279 -11 222 -11 c 0
 162 -11 107 22 80 82 c 0
 62 122 62 162 62 202 c 2xb9
 63 457 l 1
EndSplineSet
EndChar

StartChar: yacute
Encoding: 253 253 189
Width: 500
GlyphClass: 2
Flags: MW
HStem: -174 59<104 131.5 104 143> 437 20G<46 135 135 135>
VStem: 388 75<458 458>
LayerCount: 2
Fore
SplineSet
292 699 m 1
 354 657 l 1
 254 522 l 1
 204 552 l 1
 292 699 l 1
46 457 m 1
 135 457 l 1
 135 448 131 442 131 435 c 0
 131 432 132 430 133 427 c 2
 267 91 l 1
 354 336 l 2
 368 376 381 416 388 458 c 1
 463 458 l 1
 449 414 434 368 417 325 c 2
 275 -52 l 2
 265 -78 256 -102 236 -124 c 0
 206 -158 164 -174 122 -174 c 0
 84 -174 48 -160 22 -135 c 1
 60 -71 l 1
 66 -75 65 -82 67 -87 c 0
 69 -92 87 -115 121 -115 c 0
 142 -115 166 -105 185 -85 c 0
 200 -69 209 -50 217 -32 c 2
 231 2 l 1
 46 457 l 1
EndSplineSet
EndChar

StartChar: thorn
Encoding: 254 254 190
Width: 500
GlyphClass: 2
Flags: MW
HStem: -167 21G<61 134 61 61> -12 64<243 271.5 228.5 317.5> 406 61<247.5 271> 645 20G<61 140 140 140>
VStem: 61 72<217 269.5 387 632> 388 74<149.5 302>
LayerCount: 2
Fore
SplineSet
61 665 m 1
 140 665 l 1
 140 651 133 648 133 632 c 2
 133 387 l 1
 164 437 218 467 277 467 c 0
 367 467 462 394 462 233 c 0
 462 66 364 -12 271 -12 c 0
 215 -12 164 16 134 61 c 1
 134 -167 l 1
 61 -167 l 1
 61 665 l 1
251 406 m 0
 205 406 163 380 145 339 c 0
 135 315 133 289 133 250 c 0
 133 184 133 146 146 115 c 0
 164 73 207 52 250 52 c 0
 293 52 388 75 388 219 c 0
 388 385 291 406 251 406 c 0
EndSplineSet
EndChar

StartChar: ydieresis
Encoding: 255 255 191
Width: 500
GlyphClass: 2
Flags: MW
HStem: -174 59<104 131.5 104 143> 437 20G<46 135 135 135> 563 102<149 177 327.5 354.5>
VStem: 112 101<600 628> 291 100<600 628> 388 75<458 458>
LayerCount: 2
Fore
SplineSet
213 614 m 0xf0
 213 586 191 563 163 563 c 0
 135 563 112 586 112 614 c 0
 112 642 135 665 163 665 c 0
 191 665 213 642 213 614 c 0xf0
391 614 m 0xf8
 391 586 368 563 341 563 c 0
 314 563 291 586 291 614 c 0
 291 642 314 665 341 665 c 0
 368 665 391 642 391 614 c 0xf8
46 457 m 1
 135 457 l 1
 135 448 131 442 131 435 c 0
 131 432 132 430 133 427 c 2
 267 91 l 1
 354 336 l 2
 368 376 381 416 388 458 c 1
 463 458 l 1xf4
 449 414 434 368 417 325 c 2
 275 -52 l 2
 265 -78 256 -102 236 -124 c 0
 206 -158 164 -174 122 -174 c 0
 84 -174 48 -160 22 -135 c 1
 60 -71 l 1
 66 -75 65 -82 67 -87 c 0
 69 -92 87 -115 121 -115 c 0
 142 -115 166 -105 185 -85 c 0
 200 -69 209 -50 217 -32 c 2
 231 2 l 1
 46 457 l 1
EndSplineSet
EndChar

StartChar: Abreve
Encoding: 258 258 192
Width: 500
GlyphClass: 2
Flags: MW
HStem: 0 20G 182 54<158 326 158 342 144 326> 662 52<215.5 261 215.5 270.5>
LayerCount: 2
Fore
SplineSet
128 785 m 1
 151 749 191 714 240 714 c 0
 282 714 325 740 359 784 c 1
 388 742 l 1
 354 696 301 662 240 662 c 0
 185 662 131 691 91 739 c 1
 128 785 l 1
15 -1 m 1
 235 634 l 1
 243 634 l 1
 483 0 l 1
 411 0 l 1
 342 182 l 1
 144 182 l 1
 83 -1 l 1
 15 -1 l 1
326 236 m 1
 238 474 l 1
 158 236 l 1
 326 236 l 1
EndSplineSet
EndChar

StartChar: abreve
Encoding: 259 259 193
Width: 500
GlyphClass: 2
Flags: MW
HStem: -11 55<186.5 231> 0 21G<367 435 367 367> 214 55<351 352 352 366 351 369> 408 59<236 284> 524 52<233.5 279 233.5 288.5>
VStem: 49 73<102.5 139.5 102.5 143.5> 367 68<0 50 50 50>
LayerCount: 2
Fore
SplineSet
146 646 m 1x3e
 169 610 209 576 258 576 c 0
 300 576 343 602 377 646 c 1
 406 604 l 1
 372 558 319 524 258 524 c 0
 203 524 149 553 109 601 c 1
 146 646 l 1x3e
91 403 m 1
 133 447 191 467 253 467 c 0
 324 467 383 441 413 391 c 0
 434 356 435 321 435 283 c 2
 435 0 l 1
 367 0 l 1x7e
 367 50 l 1
 317 9 259 -11 203 -11 c 0xbe
 108 -11 49 51 49 118 c 0
 49 169 82 223 154 249 c 0
 212 270 284 269 351 269 c 2
 366 269 l 1
 366 286 l 2
 366 310 366 339 351 364 c 0
 338 385 311 408 257 408 c 0
 215 408 164 396 126 357 c 1
 91 403 l 1
369 214 m 1
 352 214 l 2
 305 214 244 217 202 207 c 0
 145 193 122 156 122 123 c 0
 122 82 156 44 217 44 c 0xbe
 277 44 320 80 337 98 c 0
 368 131 369 161 369 184 c 2
 369 214 l 1
EndSplineSet
EndChar

StartChar: Aogonek
Encoding: 260 260 194
Width: 500
GlyphClass: 2
Flags: MW
HStem: -176 46<421 429.5> -1 21G<15 15 15 83> 182 54<158 326 158 342 144 326>
VStem: 338 62<-109.5 -99>
LayerCount: 2
Fore
SplineSet
326 236 m 1
 238 474 l 1
 158 236 l 1
 326 236 l 1
15 -1 m 1
 235 634 l 1
 243 634 l 1
 483 0 l 1
 484 0 l 1
 450 -30 425 -57 417 -67 c 0
 410 -75 400 -87 400 -102 c 0
 400 -117 412 -130 430 -130 c 0
 436 -130 443 -129 454 -125 c 0
 470 -119 480 -112 486 -107 c 1
 486 -153 l 1
 466 -170 442 -176 417 -176 c 0
 365 -176 338 -148 338 -115 c 0
 338 -83 365 -43 417 0 c 1
 411 0 l 1
 342 182 l 1
 144 182 l 1
 83 -1 l 1
 15 -1 l 1
EndSplineSet
EndChar

StartChar: aogonek
Encoding: 261 261 195
Width: 500
GlyphClass: 2
Flags: MW
HStem: -176 46<371 379.5> -11 55<186.5 231> 214 55<351 352 352 366 351 369> 408 59<236 284>
VStem: 49 73<102.5 139.5 102.5 143.5> 288 63<-109.5 -99> 367 68<0 50 50 50>
LayerCount: 2
Fore
SplineSet
369 214 m 1
 352 214 l 2
 305 214 244 217 202 207 c 0
 145 193 122 156 122 123 c 0
 122 82 156 44 217 44 c 0
 277 44 320 80 337 98 c 0
 368 131 369 161 369 184 c 2
 369 214 l 1
91 403 m 1
 133 447 191 467 253 467 c 0
 324 467 383 441 413 391 c 0
 434 356 435 321 435 283 c 2
 435 0 l 1
 434 0 l 1
 400 -30 375 -57 367 -67 c 0
 360 -75 351 -87 351 -102 c 0
 351 -117 362 -130 380 -130 c 0
 386 -130 393 -129 404 -125 c 0
 420 -119 430 -112 436 -107 c 1
 436 -153 l 1
 416 -170 392 -176 367 -176 c 0
 315 -176 288 -148 288 -115 c 0
 288 -83 316 -43 368 0 c 1
 367 0 l 1
 367 50 l 1
 317 9 259 -11 203 -11 c 0
 108 -11 49 51 49 118 c 0
 49 169 82 223 154 249 c 0
 212 270 284 269 351 269 c 2
 366 269 l 1
 366 286 l 2
 366 310 366 339 351 364 c 0
 338 385 311 408 257 408 c 0
 215 408 164 396 126 357 c 1
 91 403 l 1
EndSplineSet
EndChar

StartChar: Cacute
Encoding: 262 262 196
Width: 500
GlyphClass: 2
Flags: MW
HStem: -10 60<235 305.5 235 314> 572 56<231 299.5>
VStem: 41 68<230 397 230 433>
LayerCount: 2
Fore
SplineSet
308 792 m 1
 348 722 l 1
 179 660 l 1
 155 702 l 1
 308 792 l 1
277 628 m 0
 360 628 435 580 469 505 c 1
 402 472 l 1
 398 475 397 481 397 482 c 0
 397 484 398 487 398 489 c 0
 398 494 397 497 395 500 c 0
 370 543 324 572 275 572 c 0
 187 572 109 480 109 314 c 0
 109 146 189 50 281 50 c 0
 330 50 379 79 408 126 c 1
 460 92 l 1
 421 28 351 -10 277 -10 c 0
 174 -10 41 67 41 308 c 0
 41 558 180 628 277 628 c 0
EndSplineSet
EndChar

StartChar: cacute
Encoding: 263 263 197
Width: 500
GlyphClass: 2
Flags: MW
HStem: -11 65<242.5 310 242.5 313> 405 61<239 320>
VStem: 56 74<182.5 288 182.5 297.5>
LayerCount: 2
Fore
SplineSet
292 699 m 1
 354 657 l 1
 254 522 l 1
 204 552 l 1
 292 699 l 1
457 381 m 1
 406 322 l 1
 398 328 403 337 399 345 c 0
 397 350 359 405 281 405 c 0
 197 405 130 340 130 236 c 0
 130 129 198 54 287 54 c 0
 333 54 377 74 408 109 c 1
 450 61 l 1
 407 14 345 -11 281 -11 c 0
 152 -11 56 91 56 229 c 0
 56 366 152 466 286 466 c 0
 359 466 421 434 457 381 c 1
EndSplineSet
EndChar

StartChar: Ccaron
Encoding: 268 268 198
Width: 500
GlyphClass: 2
Flags: MW
HStem: -10 60<235 305.5 235 314> 572 56<231 299.5>
VStem: 41 68<230 397 230 433>
LayerCount: 2
Fore
SplineSet
414 755 m 1
 282 656 l 1
 261 656 l 1
 137 753 l 1
 170 792 l 1
 273 721 l 1
 385 789 l 1
 414 755 l 1
277 628 m 0
 360 628 435 580 469 505 c 1
 402 472 l 1
 398 475 397 481 397 482 c 0
 397 484 398 487 398 489 c 0
 398 494 397 497 395 500 c 0
 370 543 324 572 275 572 c 0
 187 572 109 480 109 314 c 0
 109 146 189 50 281 50 c 0
 330 50 379 79 408 126 c 1
 460 92 l 1
 421 28 351 -10 277 -10 c 0
 174 -10 41 67 41 308 c 0
 41 558 180 628 277 628 c 0
EndSplineSet
EndChar

StartChar: ccaron
Encoding: 269 269 199
Width: 500
GlyphClass: 2
Flags: MW
HStem: -11 65<242.5 310 242.5 313> 405 61<239 320>
VStem: 56 74<182.5 288 182.5 297.5>
LayerCount: 2
Fore
SplineSet
457 381 m 1
 406 322 l 1
 398 328 403 337 399 345 c 0
 397 350 359 405 281 405 c 0
 197 405 130 340 130 236 c 0
 130 129 198 54 287 54 c 0
 333 54 377 74 408 109 c 1
 450 61 l 1
 407 14 345 -11 281 -11 c 0
 152 -11 56 91 56 229 c 0
 56 366 152 466 286 466 c 0
 359 466 421 434 457 381 c 1
377 659 m 1
 266 518 l 1
 244 518 l 1
 134 659 l 1
 180 694 l 1
 258 591 l 1
 339 693 l 1
 377 659 l 1
EndSplineSet
EndChar

StartChar: Dcaron
Encoding: 270 270 200
Width: 500
GlyphClass: 2
Flags: MW
HStem: -1 55<120 184 184 188> 563 60<120 120 120 195>
VStem: 54 66<54 563 54 623 54 623> 390 70<244 347.5>
LayerCount: 2
Fore
SplineSet
371 755 m 1
 240 656 l 1
 218 656 l 1
 95 753 l 1
 128 792 l 1
 231 721 l 1
 343 789 l 1
 371 755 l 1
54 623 m 1
 199 623 l 2
 254 623 299 619 344 590 c 0
 424 538 460 432 460 312 c 0
 460 176 411 70 322 24 c 0
 278 2 237 -1 188 -1 c 2
 54 -1 l 1
 54 623 l 1
120 563 m 1
 120 54 l 1
 184 54 l 2
 223 54 261 57 300 83 c 0
 350 117 390 184 390 303 c 0
 390 392 370 481 312 529 c 0
 273 561 234 563 195 563 c 2
 120 563 l 1
EndSplineSet
EndChar

StartChar: dcaron
Encoding: 271 271 201
Width: 500
GlyphClass: 2
Flags: MW
HStem: -10 63<151 200> 0 21G<310 381 310 310> 410 59<152.5 203.5> 646 20G<309 377 377 377>
VStem: 0 70<194.5 290.5 194.5 307.5> 303 74<199.5 250.5> 309 68<390 666> 448 61<555.5 624.5>
LayerCount: 2
Fore
SplineSet
309 390 m 1xbb
 309 666 l 1
 377 666 l 1
 377 42 l 2
 377 28 378 14 381 0 c 1
 310 0 l 1x7b
 307 11 306 23 306 34 c 2
 306 73 l 1
 278 25 228 -10 172 -10 c 0
 76 -10 0 91 0 232 c 0
 0 383 89 469 182 469 c 0
 237 469 285 438 309 390 c 1xbb
185 410 m 0
 120 410 70 340 70 241 c 0
 70 148 114 53 188 53 c 0
 228 53 262 81 281 112 c 0
 301 144 303 179 303 220 c 0xbd
 303 281 302 314 288 343 c 0
 268 385 222 410 185 410 c 0
509 604 m 0
 509 562 480 511 424 454 c 1
 396 479 l 1
 415 497 429 515 437 528 c 0
 441 534 448 549 448 562 c 0
 448 579 437 586 430 590 c 0
 423 595 407 604 407 625 c 0
 407 649 428 671 454 671 c 0
 482 671 509 645 509 604 c 0
EndSplineSet
EndChar

StartChar: Dcroat
Encoding: 272 272 202
Width: 500
GlyphClass: 2
Flags: MW
HStem: -1 58<143 203 203 206> 301 58<30 79 30 79 143 248> 564 59<143 214 143 143>
VStem: 79 64<57 301 57 301 57 301 359 564> 399 67<257.5 341.5>
LayerCount: 2
Fore
SplineSet
79 623 m 1
 218 623 l 2
 272 623 316 618 359 586 c 0
 434 530 466 421 466 315 c 0
 466 182 415 63 319 19 c 0
 284 2 250 -1 206 -1 c 2
 79 -1 l 1
 79 301 l 1
 30 301 l 1
 30 359 l 1
 79 359 l 1
 79 623 l 1
143 301 m 1
 143 57 l 1
 203 57 l 2
 239 57 272 59 307 83 c 0
 367 124 399 208 399 307 c 0
 399 376 384 453 346 504 c 0
 304 562 253 564 214 564 c 2
 143 564 l 1
 143 359 l 1
 248 359 l 1
 248 301 l 1
 143 301 l 1
EndSplineSet
EndChar

StartChar: dcroat
Encoding: 273 273 203
Width: 500
GlyphClass: 2
Flags: MW
HStem: -10 63<210 249.5> 0 21G<365 437 365 365> 410 59<206.5 253> 543 54<288 364 288 364 432 476> 646 20G<364 441 441 441>
VStem: 38 70<169 309 169 319.5> 364 68<390 543 597 637> 364 77<662.5 666 662.5 666 662.5 666>
LayerCount: 2
Fore
SplineSet
233 410 m 0xbc
 180 410 108 374 108 244 c 0
 108 94 184 53 236 53 c 0
 284 53 331 85 349 140 c 0
 356 163 358 188 358 223 c 0
 358 274 357 300 351 321 c 0
 333 389 273 410 233 410 c 0xbc
432 543 m 1xbe
 432 42 l 2
 432 28 434 14 437 0 c 1
 365 0 l 1x7e
 362 11 361 23 361 34 c 2
 361 73 l 1
 332 22 279 -10 220 -10 c 0
 132 -10 38 64 38 232 c 0
 38 407 143 469 230 469 c 0
 293 469 342 437 364 390 c 1
 364 543 l 1
 288 543 l 1
 288 597 l 1
 364 597 l 1xbe
 364 666 l 1
 441 666 l 1xbd
 441 659 438 653 436 650 c 0
 433 645 432 642 432 637 c 2
 432 597 l 1
 476 597 l 1
 476 543 l 1
 432 543 l 1xbe
EndSplineSet
EndChar

StartChar: Eogonek
Encoding: 280 280 204
Width: 500
GlyphClass: 2
Flags: MW
HStem: -176 46<373 381.5> 0 62<125 370 437 438 437 437> 293 64<125 386 125 386> 562 62<125 441 125 125>
VStem: 59 66<62 293 357 562> 291 62<-109.5 -99>
LayerCount: 2
Fore
SplineSet
59 624 m 1
 441 624 l 1
 441 562 l 1
 125 562 l 1
 125 357 l 1
 386 357 l 1
 386 293 l 1
 125 293 l 1
 125 62 l 1
 438 62 l 1
 438 0 l 1
 437 0 l 1
 403 -30 378 -57 370 -67 c 0
 363 -75 353 -87 353 -102 c 0
 353 -117 364 -130 382 -130 c 0
 388 -130 395 -129 406 -125 c 0
 422 -119 432 -112 438 -107 c 1
 438 -153 l 1
 418 -170 394 -176 369 -176 c 0
 317 -176 291 -148 291 -115 c 0
 291 -83 318 -43 370 0 c 1
 59 0 l 1
 59 624 l 1
EndSplineSet
EndChar

StartChar: eogonek
Encoding: 281 281 205
Width: 500
GlyphClass: 2
Flags: MW
HStem: -175 48<362 368.5> -10 58<242.5 272.5> 218 55<121 372 121 443 119 372> 413 55<228.5 290>
VStem: 49 70<218 218 218 308.5> 274 59<-99 -86>
LayerCount: 2
Fore
SplineSet
259 468 m 0
 334 468 418 428 439 305 c 0
 443 278 446 249 443 218 c 1
 119 218 l 1
 124 81 212 48 273 48 c 0
 318 48 362 66 392 99 c 1
 432 61 l 1
 396 17 l 2
 361 -26 333 -59 333 -88 c 0
 333 -110 351 -127 373 -127 c 0
 378 -127 395 -127 424 -108 c 1
 423 -157 l 1
 404 -167 380 -175 357 -175 c 0
 307 -175 274 -142 274 -101 c 0
 274 -71 293 -36 330 -1 c 1
 308 -7 284 -10 261 -10 c 0
 141 -10 49 76 49 226 c 0
 49 391 150 468 259 468 c 0
121 273 m 1
 372 273 l 1
 381 347 327 413 253 413 c 0
 204 413 135 381 121 273 c 1
EndSplineSet
EndChar

StartChar: Ecaron
Encoding: 282 282 206
Width: 500
GlyphClass: 2
Flags: MW
HStem: 0 62<125 438 125 438> 293 64<125 386 125 386> 562 62<125 441 125 125>
VStem: 59 66<62 293 357 562>
LayerCount: 2
Fore
SplineSet
397 755 m 1
 266 656 l 1
 244 656 l 1
 121 753 l 1
 154 792 l 1
 257 721 l 1
 369 789 l 1
 397 755 l 1
59 624 m 1
 441 624 l 1
 441 562 l 1
 125 562 l 1
 125 357 l 1
 386 357 l 1
 386 293 l 1
 125 293 l 1
 125 62 l 1
 438 62 l 1
 438 0 l 1
 59 0 l 1
 59 624 l 1
EndSplineSet
EndChar

StartChar: ecaron
Encoding: 283 283 207
Width: 500
GlyphClass: 2
Flags: MW
HStem: -10 58<242.5 295.5 242.5 300.5> 218 55<121 372 121 443 119 372> 413 55<228.5 290>
VStem: 49 70<218 218 218 306.5>
LayerCount: 2
Fore
SplineSet
377 659 m 1
 266 518 l 1
 244 518 l 1
 134 659 l 1
 180 694 l 1
 258 591 l 1
 339 693 l 1
 377 659 l 1
259 468 m 0
 334 468 418 429 439 306 c 0
 443 280 446 249 443 218 c 1
 119 218 l 1
 124 81 212 48 273 48 c 0
 318 48 362 66 392 99 c 1
 432 61 l 1
 393 14 333 -10 268 -10 c 0
 144 -10 49 71 49 223 c 0
 49 390 150 468 259 468 c 0
121 273 m 1
 372 273 l 1
 381 347 327 413 253 413 c 0
 204 413 135 381 121 273 c 1
EndSplineSet
EndChar

StartChar: Gbreve
Encoding: 286 286 208
Width: 500
GlyphClass: 2
Flags: MW
HStem: -10 62<262.5 301.5 262.5 306> 238 61<282 395 282 460> 568 61<251 305> 668 52<233.5 279 233.5 288.5>
VStem: 36 69<286 348 286 440.5> 395 65<90 238 238 238>
LayerCount: 2
Fore
SplineSet
146 791 m 1
 169 755 209 720 258 720 c 0
 300 720 343 746 377 790 c 1
 406 748 l 1
 372 702 319 668 258 668 c 0
 203 668 149 697 109 745 c 1
 146 791 l 1
277 629 m 0
 354 629 422 589 458 525 c 1
 409 475 l 1
 401 480 399 487 396 494 c 0
 377 536 333 568 277 568 c 0
 225 568 169 540 137 479 c 0
 113 433 105 377 105 319 c 0
 105 253 113 165 165 106 c 0
 199 67 242 52 283 52 c 0
 320 52 360 65 395 90 c 1
 395 238 l 1
 282 238 l 1
 282 299 l 1
 460 299 l 1
 460 55 l 1
 401 12 335 -10 277 -10 c 0
 168 -10 36 68 36 304 c 0
 36 577 194 629 277 629 c 0
EndSplineSet
EndChar

StartChar: gbreve
Encoding: 287 287 209
Width: 500
GlyphClass: 2
Flags: MW
HStem: -172 54<233.5 259.5 233.5 322.5> 24 61 156 58<217 255 199 272> 415 57<199 252 185.5 255> 524 52<233.5 279 233.5 288.5>
VStem: 39 65<-55 -46> 60 66<286.5 341.5 286.5 354.5> 76 61<108 112.5> 327 65<286.5 326 270 341.5> 389 66<-47 -27>
LayerCount: 2
Fore
SplineSet
146 646 m 1xf8
 169 610 209 576 258 576 c 0
 300 576 343 602 377 646 c 1
 406 604 l 1
 372 558 319 524 258 524 c 0
 203 524 149 553 109 601 c 1
 146 646 l 1xf8
126 314 m 0xfa80
 126 259 171 214 227 214 c 0
 283 214 327 259 327 314 c 0
 327 369 283 415 227 415 c 0
 171 415 126 369 126 314 c 0xfa80
231 472 m 0
 273 472 311 456 339 428 c 1
 374 458 420 472 466 469 c 1
 475 410 l 1
 466 411 457 412 448 412 c 0
 420 412 393 405 369 390 c 1
 384 367 392 340 392 312 c 0
 392 228 317 156 227 156 c 0
 207 156 188 160 169 167 c 1
 165 163 137 139 137 115 c 0xf980
 137 101 146 90 164 85 c 0
 174 83 195 80 229 80 c 0
 281 80 336 87 384 67 c 0
 432 47 455 8 455 -32 c 0
 455 -93 400 -172 245 -172 c 0
 85 -172 39 -114 39 -64 c 0xfc40
 39 -28 64 6 113 37 c 1
 84 52 76 79 76 98 c 0xf9
 76 127 95 159 128 187 c 1
 86 214 60 260 60 310 c 0
 60 399 140 472 231 472 c 0
161 24 m 1
 135 9 104 -14 104 -47 c 0
 104 -63 112 -88 149 -103 c 0
 184 -117 223 -118 244 -118 c 0
 275 -118 312 -116 346 -98 c 0
 377 -81 389 -57 389 -37 c 0xfc40
 389 -17 376 10 334 16 c 0
 308 20 272 18 238 19 c 0
 203 20 178 22 161 24 c 1
EndSplineSet
EndChar

StartChar: Idotaccent
Encoding: 304 304 210
Width: 500
GlyphClass: 2
Flags: MW
HStem: -1 58<273 403 273 403> 564 59<88 204 88 397 273 397 273 273> 688 104<222.5 251.5>
VStem: 186 103<726 754> 204 69<58 564 57 564>
LayerCount: 2
Fore
SplineSet
237 792 m 0xf0
 266 792 289 768 289 740 c 0
 289 712 266 688 237 688 c 0
 208 688 186 712 186 740 c 0
 186 768 208 792 237 792 c 0xf0
88 623 m 1
 397 623 l 1
 397 564 l 1
 273 564 l 1
 273 57 l 1
 403 57 l 1
 403 -1 l 1
 81 -1 l 1
 81 58 l 1
 204 58 l 1
 204 564 l 1xe8
 88 564 l 1
 88 623 l 1
EndSplineSet
EndChar

StartChar: dotlessi
Encoding: 305 305 211
Width: 500
GlyphClass: 2
Flags: MW
HStem: 0 58<100 217 289 396 100 217> 399 59<106 217 106 289>
VStem: 217 72<58 399 399 399>
LayerCount: 2
Fore
SplineSet
106 458 m 1
 289 458 l 1
 289 58 l 1
 396 58 l 1
 396 0 l 1
 100 0 l 1
 100 58 l 1
 217 58 l 1
 217 399 l 1
 106 399 l 1
 106 458 l 1
EndSplineSet
EndChar

StartChar: kgreenlandic
Encoding: 312 312 212
Width: 500
GlyphClass: 2
Flags: MW
HStem: -1 21G<66 139 66 66 448 472 472 479> 437 20G<66 148 148 148>
VStem: 66 73<-1 172 247 431> 66 82<452 455 455 457 452 457>
LayerCount: 2
Fore
SplineSet
66 457 m 1xd0
 148 457 l 1
 148 455 l 2xd0
 148 449 144 444 142 441 c 0
 139 437 139 435 139 431 c 2
 139 247 l 1
 368 459 l 1
 386 455 403 454 421 454 c 2
 447 454 l 1
 254 273 l 1
 479 -1 l 1
 472 -1 l 2
 424 -1 386 -4 386 -4 c 1
 199 229 l 1
 139 172 l 1
 139 -1 l 1
 66 -1 l 1xe0
 66 457 l 1xd0
EndSplineSet
EndChar

StartChar: Lacute
Encoding: 313 313 213
Width: 500
GlyphClass: 2
Flags: MW
HStem: -1 61<139 439 139 439> 603 20G<66 147 147 147>
VStem: 66 73<60 589 60 623 60 623> 66 81<-1 623 623 623>
LayerCount: 2
Fore
SplineSet
308 792 m 1xc0
 348 722 l 1
 179 660 l 1
 155 702 l 1
 308 792 l 1xc0
66 623 m 1xd0
 147 623 l 1xd0
 148 616 145 610 144 607 c 0
 141 602 139 598 139 589 c 2
 139 60 l 1
 439 60 l 1
 439 -1 l 1
 66 -1 l 1xe0
 66 623 l 1xd0
EndSplineSet
EndChar

StartChar: lacute
Encoding: 314 314 214
Width: 500
GlyphClass: 2
Flags: MW
HStem: 0 58<79 214 287 421 79 214> 606 59<84 214 84 287>
VStem: 214 73<58 606 606 606>
LayerCount: 2
Fore
SplineSet
84 665 m 1
 287 665 l 1
 287 58 l 1
 421 58 l 1
 421 0 l 1
 79 0 l 1
 79 58 l 1
 214 58 l 1
 214 606 l 1
 84 606 l 1
 84 665 l 1
308 834 m 1
 348 765 l 1
 179 703 l 1
 155 745 l 1
 308 834 l 1
EndSplineSet
EndChar

StartChar: Lcaron
Encoding: 317 317 215
Width: 500
GlyphClass: 2
Flags: MW
HStem: -1 61<139 439 139 439> 608 21G
VStem: 66 73<60 589 60 623 60 623> 66 81<-1 623 623 623> 362 61<512.5 582.5>
LayerCount: 2
Fore
SplineSet
423 562 m 0xc8
 423 520 394 468 338 411 c 1
 310 435 l 1
 329 453 342 472 350 485 c 0
 354 491 362 506 362 519 c 0
 362 536 350 543 343 547 c 0
 336 552 321 561 321 582 c 0
 321 606 341 628 367 628 c 0
 395 628 423 603 423 562 c 0xc8
66 623 m 1xd8
 147 623 l 1xd8
 148 616 145 610 144 607 c 0
 141 602 139 598 139 589 c 2
 139 60 l 1
 439 60 l 1
 439 -1 l 1
 66 -1 l 1xe8
 66 623 l 1xd8
EndSplineSet
EndChar

StartChar: lcaron
Encoding: 318 318 216
Width: 500
GlyphClass: 2
Flags: MW
HStem: 0 58<61 197 269 404 61 197> 606 59<67 197 67 269>
VStem: 197 72<58 606 606 606> 414 61<555.5 624.5>
LayerCount: 2
Fore
SplineSet
475 604 m 0
 475 562 446 511 390 454 c 1
 362 479 l 1
 381 497 394 515 402 528 c 0
 406 534 414 549 414 562 c 0
 414 579 402 586 395 590 c 0
 388 595 373 604 373 625 c 0
 373 649 393 671 419 671 c 0
 447 671 475 645 475 604 c 0
67 665 m 1
 269 665 l 1
 269 58 l 1
 404 58 l 1
 404 0 l 1
 61 0 l 1
 61 58 l 1
 197 58 l 1
 197 606 l 1
 67 606 l 1
 67 665 l 1
EndSplineSet
EndChar

StartChar: Lslash
Encoding: 321 321 217
Width: 500
GlyphClass: 2
Flags: MW
HStem: -1 61<146 446 146 446> 603 20G<73 154 154 154>
VStem: 73 73<60 243 243 243 329 589> 73 82<613.5 620.5 613.5 623 613.5 623>
LayerCount: 2
Fore
SplineSet
73 623 m 1xd0
 154 623 l 2
 154 622 155 621 155 620 c 0xd0
 155 607 146 605 146 589 c 2
 146 329 l 1
 312 382 l 2
 321 385 328 388 337 392 c 1
 337 328 l 1
 146 267 l 1
 146 60 l 1
 446 60 l 1
 446 -1 l 1
 73 -1 l 1
 73 243 l 1
 20 226 l 1
 20 288 l 1
 73 305 l 1xe0
 73 623 l 1xd0
EndSplineSet
EndChar

StartChar: lslash
Encoding: 322 322 218
Width: 500
GlyphClass: 2
Flags: MW
HStem: 0 58<79 214 287 421 79 214> 606 59<84 214 84 287>
VStem: 214 73<58 278 278 278 370 606 606 606>
LayerCount: 2
Fore
SplineSet
84 665 m 1
 287 665 l 1
 287 370 l 1
 351 393 l 2
 361 396 369 400 378 407 c 1
 378 334 l 1
 287 303 l 1
 287 58 l 1
 421 58 l 1
 421 0 l 1
 79 0 l 1
 79 58 l 1
 214 58 l 1
 214 278 l 1
 135 252 l 1
 135 317 l 1
 214 345 l 1
 214 606 l 1
 84 606 l 1
 84 665 l 1
EndSplineSet
EndChar

StartChar: Nacute
Encoding: 323 323 219
Width: 500
GlyphClass: 2
Flags: MW
HStem: 0 21G<50 50 50 117> 603 21G
VStem: 50 67<0 490 0 623> 380 67<162 597 -1 624 -1 624>
LayerCount: 2
Fore
SplineSet
308 792 m 1
 348 722 l 1
 179 660 l 1
 155 702 l 1
 308 792 l 1
50 0 m 1
 50 623 l 1
 118 623 l 1
 380 162 l 1
 380 624 l 1
 454 624 l 1
 455 618 452 613 451 611 c 0
 449 607 447 604 447 597 c 2
 447 -1 l 1
 392 -1 l 1
 117 490 l 1
 117 0 l 1
 50 0 l 1
EndSplineSet
EndChar

StartChar: nacute
Encoding: 324 324 220
Width: 500
GlyphClass: 2
Flags: MW
HStem: 0 21G<68 68 68 142 361 361 361 432> 405 63<262 285.5> 437 20G<68 142 142 142>
VStem: 68 74<0 263 376 457> 361 71<0 275 275 277 0 291>
LayerCount: 2
Fore
SplineSet
292 699 m 1x98
 354 657 l 1
 254 522 l 1
 204 552 l 1
 292 699 l 1x98
68 0 m 1
 68 457 l 1
 142 457 l 1xb8
 142 376 l 1
 176 427 231 468 293 468 c 0
 345 468 392 438 415 387 c 0
 431 350 432 313 432 277 c 2
 432 0 l 1
 361 0 l 1
 361 275 l 2
 361 307 361 346 336 376 c 0
 319 396 297 405 274 405 c 0xd8
 226 405 182 365 164 342 c 0
 145 317 142 294 142 263 c 2
 142 0 l 1
 68 0 l 1
EndSplineSet
EndChar

StartChar: Ncaron
Encoding: 327 327 221
Width: 500
GlyphClass: 2
Flags: MW
HStem: 0 21G<50 50 50 117> 603 21G
VStem: 50 67<0 490 0 623> 380 67<162 597 -1 624 -1 624>
LayerCount: 2
Fore
SplineSet
397 755 m 1
 266 656 l 1
 244 656 l 1
 121 753 l 1
 154 792 l 1
 257 721 l 1
 369 789 l 1
 397 755 l 1
50 0 m 1
 50 623 l 1
 118 623 l 1
 380 162 l 1
 380 624 l 1
 454 624 l 1
 455 618 452 613 451 611 c 0
 449 607 447 604 447 597 c 2
 447 -1 l 1
 392 -1 l 1
 117 490 l 1
 117 0 l 1
 50 0 l 1
EndSplineSet
EndChar

StartChar: ncaron
Encoding: 328 328 222
Width: 500
GlyphClass: 2
Flags: MW
HStem: 0 21G<68 68 68 142 361 361 361 432> 405 63<262 285.5> 437 20G<68 142 142 142>
VStem: 68 74<0 263 376 457> 361 71<0 275 275 277 0 291>
LayerCount: 2
Fore
SplineSet
377 659 m 1x98
 266 518 l 1
 244 518 l 1
 134 659 l 1
 180 694 l 1
 258 591 l 1
 339 693 l 1
 377 659 l 1x98
68 0 m 1
 68 457 l 1
 142 457 l 1xb8
 142 376 l 1
 176 427 231 468 293 468 c 0
 345 468 392 438 415 387 c 0
 431 350 432 313 432 277 c 2
 432 0 l 1
 361 0 l 1
 361 275 l 2
 361 307 361 346 336 376 c 0
 319 396 297 405 274 405 c 0xd8
 226 405 182 365 164 342 c 0
 145 317 142 294 142 263 c 2
 142 0 l 1
 68 0 l 1
EndSplineSet
EndChar

StartChar: Eng
Encoding: 330 330 223
Width: 500
GlyphClass: 2
Flags: MW
HStem: -11 63<288.5 314 288.5 326> 0 21G<51 51 51 125> 571 63<253.5 293> 603 20G<51 125 125 125>
VStem: 51 74<0 413 542 623> 378 71<170 175 175 422 422 424>
LayerCount: 2
Fore
SplineSet
51 0 m 1x6c
 51 623 l 1
 125 623 l 1x5c
 125 542 l 1
 161 597 221 634 286 634 c 0
 348 634 403 601 430 543 c 0
 448 503 449 464 449 424 c 2
 449 175 l 2
 449 140 448 107 432 72 c 0
 407 19 355 -11 297 -11 c 0
 266 -11 236 -2 209 14 c 1
 245 76 l 1
 251 73 252 67 256 64 c 0
 258 63 277 52 300 52 c 0xac
 328 52 354 68 367 96 c 0
 378 119 378 147 378 170 c 2
 378 422 l 2
 378 451 379 485 363 516 c 0
 345 552 312 571 274 571 c 0
 220 571 169 530 147 498 c 0
 127 471 125 446 125 413 c 2
 125 0 l 1
 51 0 l 1x6c
EndSplineSet
EndChar

StartChar: eng
Encoding: 331 331 224
Width: 500
GlyphClass: 2
Flags: MW
HStem: -176 67<248.5 277.5 248.5 293.5> 0 21G<68 68 68 142> 405 63<262 285.5> 437 20G<68 142 142 142>
VStem: 68 74<0 263 376 457> 361 71<45 56 56 275 275 277>
LayerCount: 2
Fore
SplineSet
68 0 m 1xec
 68 457 l 1
 142 457 l 1xdc
 142 376 l 1
 176 427 231 468 293 468 c 0
 345 468 392 438 415 387 c 0
 431 350 432 313 432 277 c 2
 432 56 l 2
 432 14 431 -28 414 -70 c 0
 386 -138 325 -176 262 -176 c 0
 227 -176 193 -164 165 -143 c 1
 199 -75 l 1
 206 -76 205 -84 208 -88 c 0
 210 -91 233 -109 264 -109 c 0
 291 -109 320 -95 339 -66 c 0
 361 -32 361 9 361 45 c 2
 361 275 l 2
 361 307 361 346 336 376 c 0
 319 396 297 405 274 405 c 0
 226 405 182 365 164 342 c 0
 145 317 142 294 142 263 c 2
 142 0 l 1
 68 0 l 1xec
EndSplineSet
EndChar

StartChar: omacron
Encoding: 333 333 225
Width: 500
GlyphClass: 2
Flags: MW
HStem: -12 62<218.5 288.5 218.5 308> 406 61<217 285> 565 57<124 377 124 377>
VStem: 41 76<174.5 287 174.5 295.5> 388 72<165.5 285.5>
LayerCount: 2
Fore
SplineSet
124 622 m 1
 377 622 l 1
 377 565 l 1
 124 565 l 1
 124 622 l 1
460 227 m 0
 460 76 362 -12 254 -12 c 0
 139 -12 41 86 41 225 c 0
 41 366 141 467 257 467 c 0
 361 467 460 385 460 227 c 0
252 406 m 0
 182 406 117 343 117 231 c 0
 117 118 182 50 255 50 c 0
 322 50 388 108 388 223 c 0
 388 348 318 406 252 406 c 0
EndSplineSet
EndChar

StartChar: Ohungarumlaut
Encoding: 336 336 226
Width: 500
GlyphClass: 2
Flags: MW
HStem: -9 68<219 275 219 287.5> 564 66<217.5 272>
VStem: 29 69<223 415 223 434.5> 401 70<282.5 327.5>
LayerCount: 2
Fore
SplineSet
411 811 m 1
 458 746 l 1
 312 645 l 1
 280 686 l 1
 411 811 l 1
233 811 m 1
 280 746 l 1
 134 645 l 1
 102 686 l 1
 233 811 l 1
471 310 m 0
 471 255 467 178 434 111 c 0
 393 28 321 -9 254 -9 c 0
 159 -9 29 67 29 312 c 0
 29 557 160 630 253 630 c 0
 321 630 392 593 433 513 c 0
 467 447 471 368 471 310 c 0
250 564 m 0
 185 564 98 508 98 322 c 0
 98 124 184 59 254 59 c 0
 296 59 345 82 374 143 c 0
 399 197 401 260 401 301 c 0
 401 354 398 414 377 466 c 0
 348 538 294 564 250 564 c 0
EndSplineSet
EndChar

StartChar: ohungarumlaut
Encoding: 337 337 227
Width: 500
GlyphClass: 2
Flags: MW
HStem: -12 62<218.5 288.5 218.5 308> 406 61<217 285>
VStem: 41 76<174.5 287 174.5 295.5> 388 72<165.5 285.5>
LayerCount: 2
Fore
SplineSet
214 699 m 1
 277 657 l 1
 176 522 l 1
 126 552 l 1
 214 699 l 1
369 699 m 1
 432 657 l 1
 332 522 l 1
 281 552 l 1
 369 699 l 1
460 227 m 0
 460 76 362 -12 254 -12 c 0
 139 -12 41 86 41 225 c 0
 41 366 141 467 257 467 c 0
 361 467 460 385 460 227 c 0
252 406 m 0
 182 406 117 343 117 231 c 0
 117 118 182 50 255 50 c 0
 322 50 388 108 388 223 c 0
 388 348 318 406 252 406 c 0
EndSplineSet
EndChar

StartChar: OE
Encoding: 338 338 228
Width: 500
GlyphClass: 2
Flags: MW
HStem: -7 61<168 186> 0 62<315 481 315 481> 293 64<315 458 315 458> 562 62<315 484 315 315> 574 58<155.5 186.5 150.5 192.5>
VStem: 9 64<310 354> 252 63<0 293 31 293 129 293 357 485 485 485>
LayerCount: 2
Fore
SplineSet
253 596 m 1xae
 253 624 l 1
 484 624 l 1
 484 562 l 1
 315 562 l 1
 315 357 l 1
 458 357 l 1
 458 293 l 1
 315 293 l 1
 315 62 l 1
 481 62 l 1
 481 0 l 1
 252 0 l 1x76
 252 31 l 1
 232 7 202 -7 170 -7 c 0
 121 -7 61 26 32 120 c 0
 28 132 9 195 9 312 c 0
 9 396 16 469 43 531 c 0
 76 609 130 632 171 632 c 0
 202 632 232 619 253 596 c 1xae
73 324 m 0
 73 296 73 191 101 123 c 0
 123 68 157 54 179 54 c 0
 214 54 242 85 252 129 c 1
 252 485 l 1
 241 519 215 574 170 574 c 0xae
 141 574 111 549 93 495 c 0
 87 476 73 430 73 324 c 0
EndSplineSet
EndChar

StartChar: oe
Encoding: 339 339 229
Width: 500
GlyphClass: 2
Flags: MW
HStem: -11 61<148 172> 221 57<263 431 263 490 262 431> 406 60<147 174>
VStem: 6 60<229 259> 431 59<221 287 221 302>
LayerCount: 2
Fore
SplineSet
162 466 m 0
 199 466 233 449 254 420 c 1
 279 449 317 466 356 466 c 0
 402 466 455 442 477 380 c 0
 493 336 490 282 490 232 c 2
 490 221 l 1
 262 221 l 1
 262 158 266 128 277 104 c 0
 295 64 332 46 369 46 c 0
 398 46 434 56 459 85 c 1
 495 42 l 1
 461 7 415 -12 367 -12 c 0
 325 -12 285 3 253 29 c 1
 226 4 190 -11 154 -11 c 0
 114 -11 64 9 34 70 c 0
 10 120 6 183 6 236 c 0
 6 282 9 337 34 383 c 0
 64 439 115 466 162 466 c 0
263 278 m 1
 431 278 l 1
 431 287 l 2
 431 317 432 348 416 374 c 0
 401 399 374 412 348 412 c 0
 322 412 290 399 274 357 c 0
 272 351 262 326 263 278 c 1
66 246 m 0
 66 212 68 163 81 123 c 0
 98 69 133 50 163 50 c 0
 188 50 213 64 213 89 c 0
 213 102 200 149 200 236 c 0
 200 310 209 348 209 362 c 0
 209 388 187 406 161 406 c 0
 133 406 102 387 84 348 c 0
 68 314 66 274 66 246 c 0
EndSplineSet
EndChar

StartChar: Racute
Encoding: 340 340 230
Width: 500
GlyphClass: 2
Flags: MW
HStem: 0 21G<56 127 56 56 386 464 386 386> 275 61<127 248 127 248> 558 65<127 127 127 240>
VStem: 56 71<0 275 0 336 336 558> 375 72<424 464.5>
LayerCount: 2
Fore
SplineSet
308 792 m 1
 348 722 l 1
 179 660 l 1
 155 702 l 1
 308 792 l 1
56 623 m 1
 240 623 l 2
 280 623 319 622 359 602 c 0
 416 573 447 514 447 452 c 0
 447 369 396 299 320 278 c 1
 464 0 l 1
 386 0 l 1
 248 275 l 1
 127 275 l 1
 127 0 l 1
 56 0 l 1
 56 623 l 1
127 558 m 1
 127 336 l 1
 248 336 l 2
 272 336 296 337 320 349 c 0
 356 367 375 404 375 444 c 0
 375 485 355 524 316 544 c 0
 291 557 266 558 240 558 c 2
 127 558 l 1
EndSplineSet
EndChar

StartChar: racute
Encoding: 341 341 231
Width: 500
GlyphClass: 2
Flags: MW
HStem: -1 21G<99 172 99 99> 406 62<316 351.5> 437 20G<99 174 174 174>
VStem: 99 73<-1 222>
LayerCount: 2
Fore
SplineSet
292 699 m 1x90
 354 657 l 1
 254 522 l 1
 204 552 l 1
 292 699 l 1x90
99 457 m 1xb0
 174 457 l 1xb0
 172 369 l 1
 202 434 269 468 336 468 c 0
 387 468 429 446 458 417 c 1
 425 349 l 1
 417 356 414 364 408 372 c 0
 395 389 371 406 332 406 c 0xd0
 300 406 246 394 204 329 c 0
 173 280 172 249 172 222 c 2
 172 -1 l 1
 99 -1 l 1
 99 457 l 1xb0
EndSplineSet
EndChar

StartChar: Rcaron
Encoding: 344 344 232
Width: 500
GlyphClass: 2
Flags: MW
HStem: 0 21G<56 127 56 56 386 464 386 386> 275 61<127 248 127 248> 558 65<127 127 127 240>
VStem: 56 71<0 275 0 336 336 558> 375 72<424 464.5>
LayerCount: 2
Fore
SplineSet
397 755 m 1
 266 656 l 1
 244 656 l 1
 121 753 l 1
 154 792 l 1
 257 721 l 1
 369 789 l 1
 397 755 l 1
56 623 m 1
 240 623 l 2
 280 623 319 622 359 602 c 0
 416 573 447 514 447 452 c 0
 447 369 396 299 320 278 c 1
 464 0 l 1
 386 0 l 1
 248 275 l 1
 127 275 l 1
 127 0 l 1
 56 0 l 1
 56 623 l 1
127 558 m 1
 127 336 l 1
 248 336 l 2
 272 336 296 337 320 349 c 0
 356 367 375 404 375 444 c 0
 375 485 355 524 316 544 c 0
 291 557 266 558 240 558 c 2
 127 558 l 1
EndSplineSet
EndChar

StartChar: rcaron
Encoding: 345 345 233
Width: 500
GlyphClass: 2
Flags: MW
HStem: -1 21G<99 172 99 99> 406 62<316 351.5> 437 20G<99 174 174 174>
VStem: 99 73<-1 222>
LayerCount: 2
Fore
SplineSet
377 659 m 1x90
 266 518 l 1
 244 518 l 1
 134 659 l 1
 180 694 l 1
 258 591 l 1
 339 693 l 1
 377 659 l 1x90
99 457 m 1xb0
 174 457 l 1xb0
 172 369 l 1
 202 434 269 468 336 468 c 0
 387 468 429 446 458 417 c 1
 425 349 l 1
 417 356 414 364 408 372 c 0
 395 389 371 406 332 406 c 0xd0
 300 406 246 394 204 329 c 0
 173 280 172 249 172 222 c 2
 172 -1 l 1
 99 -1 l 1
 99 457 l 1xb0
EndSplineSet
EndChar

StartChar: Sacute
Encoding: 346 346 234
Width: 500
GlyphClass: 2
Flags: MW
HStem: -10 63<216 295 216 324> 569 57<220.5 285>
VStem: 72 72<465.5 502 465.5 509.5> 386 69<139 180>
LayerCount: 2
Fore
SplineSet
308 792 m 1
 348 722 l 1
 179 660 l 1
 155 702 l 1
 308 792 l 1
435 549 m 1
 391 489 l 2
 389 489 386 493 386 498 c 0
 386 502 385 503 383 507 c 0
 359 542 314 569 256 569 c 0
 185 569 144 526 144 478 c 0
 144 453 156 415 208 385 c 0
 265 352 353 334 407 283 c 0
 446 246 455 202 455 169 c 0
 455 90 400 -10 248 -10 c 0
 171 -10 101 17 52 70 c 1
 93 142 l 1
 98 140 98 133 98 132 c 0
 98 128 98 125 101 121 c 0
 129 86 182 53 250 53 c 0
 340 53 386 112 386 166 c 0
 386 194 374 226 333 251 c 0
 286 280 197 303 139 345 c 0
 87 384 72 431 72 467 c 0
 72 552 150 626 262 626 c 0
 330 626 393 599 435 549 c 1
EndSplineSet
EndChar

StartChar: sacute
Encoding: 347 347 235
Width: 500
GlyphClass: 2
Flags: MW
HStem: -10 60<215.5 281.5 210 312.5> 414 54<230 288.5>
VStem: 86 74<343.5 369.5 343.5 374> 366 74<101.5 131.5>
LayerCount: 2
Fore
SplineSet
292 699 m 1
 354 657 l 1
 254 522 l 1
 204 552 l 1
 292 699 l 1
432 396 m 1
 390 333 l 2
 388 333 385 335 385 341 c 0
 385 344 386 348 383 351 c 0
 365 373 321 414 256 414 c 0
 204 414 160 388 160 351 c 0
 160 336 168 313 205 295 c 0
 247 274 321 264 373 235 c 0
 427 205 440 164 440 132 c 0
 440 63 375 -10 250 -10 c 0
 181 -10 111 12 57 62 c 1
 98 134 l 1
 103 132 103 126 103 125 c 0
 103 121 102 118 105 114 c 0
 120 97 171 50 249 50 c 0
 314 50 366 80 366 123 c 0
 366 140 358 163 320 181 c 0
 286 197 237 209 198 223 c 0
 173 232 86 260 86 340 c 0
 86 408 156 468 262 468 c 0
 329 468 390 442 432 396 c 1
EndSplineSet
EndChar

StartChar: Scedilla
Encoding: 350 350 236
Width: 500
GlyphClass: 2
Flags: MW
HStem: -177 43<235 269.5 235 280.5> -10 63<228 228> 569 57<220.5 285>
VStem: 72 72<465.5 502 465.5 509.5> 295 57<-113.5 -106> 386 69<139 180>
LayerCount: 2
Fore
SplineSet
435 549 m 1
 391 489 l 2
 389 489 386 493 386 498 c 0
 386 502 385 503 383 507 c 0
 359 542 314 569 256 569 c 0
 185 569 144 526 144 478 c 0
 144 453 156 415 208 385 c 0
 265 352 353 334 407 283 c 0
 446 246 455 202 455 169 c 0
 455 95 404 1 271 -9 c 1
 268 -47 l 1
 284 -48 l 2
 297 -48 310 -50 323 -56 c 0
 342 -65 352 -83 352 -103 c 0
 352 -139 317 -177 244 -177 c 0
 205 -177 163 -166 125 -140 c 1
 150 -98 l 1
 181 -123 220 -134 250 -134 c 0
 289 -134 295 -118 295 -109 c 0
 295 -103 292 -97 284 -92 c 0
 273 -85 259 -85 248 -85 c 2
 218 -85 l 1
 228 -10 l 1
 159 -6 97 21 52 70 c 1
 93 142 l 1
 98 140 98 133 98 132 c 0
 98 128 98 125 101 121 c 0
 129 86 182 53 250 53 c 0
 340 53 386 112 386 166 c 0
 386 194 374 226 333 251 c 0
 286 280 197 303 139 345 c 0
 87 384 72 431 72 467 c 0
 72 552 150 626 262 626 c 0
 330 626 393 599 435 549 c 1
EndSplineSet
EndChar

StartChar: scedilla
Encoding: 351 351 237
Width: 500
GlyphClass: 2
Flags: MW
HStem: -177 43<240 274.5 240 286.5> -10 60<234 234> 414 54<230 288.5>
VStem: 86 74<343.5 369.5 343.5 374> 301 57<-113.5 -106> 366 74<101.5 131.5>
LayerCount: 2
Fore
SplineSet
432 396 m 1
 390 333 l 2
 388 333 385 335 385 341 c 0
 385 344 386 348 383 351 c 0
 365 373 321 414 256 414 c 0
 204 414 160 388 160 351 c 0
 160 336 168 313 205 295 c 0
 247 274 321 264 373 235 c 0
 427 205 440 164 440 132 c 0
 440 69 384 1 278 -9 c 1
 273 -47 l 1
 290 -48 l 2
 303 -48 316 -50 329 -56 c 0
 348 -65 358 -83 358 -103 c 0
 358 -139 323 -177 250 -177 c 0
 211 -177 169 -166 131 -140 c 1
 156 -98 l 1
 187 -123 225 -134 255 -134 c 0
 294 -134 301 -118 301 -109 c 0
 301 -103 299 -97 291 -92 c 0
 280 -85 265 -85 254 -85 c 2
 225 -85 l 1
 234 -10 l 1
 170 -7 107 16 57 62 c 1
 98 134 l 1
 103 132 103 126 103 125 c 0
 103 121 102 118 105 114 c 0
 120 97 171 50 249 50 c 0
 314 50 366 80 366 123 c 0
 366 140 358 163 320 181 c 0
 286 197 237 209 198 223 c 0
 173 232 86 260 86 340 c 0
 86 408 156 468 262 468 c 0
 329 468 390 442 432 396 c 1
EndSplineSet
EndChar

StartChar: Scaron
Encoding: 352 352 238
Width: 500
GlyphClass: 2
Flags: MW
HStem: -10 63<216 295 216 324> 569 57<220.5 285>
VStem: 72 72<465.5 502 465.5 509.5> 386 69<139 180>
LayerCount: 2
Fore
SplineSet
402 755 m 1
 271 656 l 1
 250 656 l 1
 126 753 l 1
 159 792 l 1
 262 721 l 1
 374 789 l 1
 402 755 l 1
435 549 m 1
 391 489 l 2
 389 489 386 493 386 498 c 0
 386 502 385 503 383 507 c 0
 359 542 314 569 256 569 c 0
 185 569 144 526 144 478 c 0
 144 453 156 415 208 385 c 0
 265 352 353 334 407 283 c 0
 446 246 455 202 455 169 c 0
 455 90 400 -10 248 -10 c 0
 171 -10 101 17 52 70 c 1
 93 142 l 1
 98 140 98 133 98 132 c 0
 98 128 98 125 101 121 c 0
 129 86 182 53 250 53 c 0
 340 53 386 112 386 166 c 0
 386 194 374 226 333 251 c 0
 286 280 197 303 139 345 c 0
 87 384 72 431 72 467 c 0
 72 552 150 626 262 626 c 0
 330 626 393 599 435 549 c 1
EndSplineSet
EndChar

StartChar: scaron
Encoding: 353 353 239
Width: 500
GlyphClass: 2
Flags: MW
HStem: -10 60<215.5 281.5 210 312.5> 414 54<230 288.5>
VStem: 86 74<343.5 369.5 343.5 374> 366 74<101.5 131.5>
LayerCount: 2
Fore
SplineSet
377 659 m 1
 266 518 l 1
 244 518 l 1
 134 659 l 1
 180 694 l 1
 258 591 l 1
 339 693 l 1
 377 659 l 1
432 396 m 1
 390 333 l 2
 388 333 385 335 385 341 c 0
 385 344 386 348 383 351 c 0
 365 373 321 414 256 414 c 0
 204 414 160 388 160 351 c 0
 160 336 168 313 205 295 c 0
 247 274 321 264 373 235 c 0
 427 205 440 164 440 132 c 0
 440 63 375 -10 250 -10 c 0
 181 -10 111 12 57 62 c 1
 98 134 l 1
 103 132 103 126 103 125 c 0
 103 121 102 118 105 114 c 0
 120 97 171 50 249 50 c 0
 314 50 366 80 366 123 c 0
 366 140 358 163 320 181 c 0
 286 197 237 209 198 223 c 0
 173 232 86 260 86 340 c 0
 86 408 156 468 262 468 c 0
 329 468 390 442 432 396 c 1
EndSplineSet
EndChar

StartChar: Tcedilla
Encoding: 354 354 240
Width: 500
GlyphClass: 2
Flags: MW
HStem: -177 43<229 263.5 229 274.5> 561 63<31 208 31 462 279 462 279 279>
VStem: 208 71<-1 561 -1 561> 224 38 289 57<-113.5 -106>
LayerCount: 2
Fore
SplineSet
31 624 m 1xe8
 462 624 l 1
 462 561 l 1
 279 561 l 1
 279 -1 l 1xe8
 267 -1 l 1
 262 -47 l 1
 278 -48 l 2
 291 -48 303 -50 316 -56 c 0
 335 -65 346 -83 346 -103 c 0
 346 -139 311 -177 238 -177 c 0
 199 -177 157 -166 119 -140 c 1
 144 -98 l 1
 175 -123 214 -134 244 -134 c 0
 283 -134 289 -118 289 -109 c 0
 289 -103 286 -97 278 -92 c 0
 267 -85 253 -85 242 -85 c 2
 212 -85 l 1
 224 -1 l 1xd8
 208 -1 l 1
 208 561 l 1
 31 561 l 1
 31 624 l 1xe8
EndSplineSet
EndChar

StartChar: tcedilla
Encoding: 355 355 241
Width: 500
GlyphClass: 2
Flags: MW
HStem: -177 43<284 318.5 284 329.5> 398 60<250 399 250 399 249 399>
VStem: 167 73<186 203> 188 79<579 592> 344 57<-113.5 -106>
LayerCount: 2
Fore
SplineSet
188 579 m 1xd8
 267 592 l 1xd8
 270 582 263 576 261 565 c 0
 256 540 250 458 250 458 c 1
 399 458 l 1
 399 398 l 1
 249 398 l 1
 243 338 240 279 240 219 c 0
 240 153 243 135 243 131 c 0
 250 76 286 58 320 58 c 0
 348 58 383 70 422 99 c 1
 444 42 l 1
 411 18 367 -2 321 -7 c 1
 317 -47 l 1
 333 -48 l 2
 346 -48 359 -50 372 -56 c 0
 391 -65 401 -83 401 -103 c 0
 401 -139 366 -177 293 -177 c 0
 254 -177 212 -166 174 -140 c 1
 199 -98 l 1
 230 -123 269 -134 299 -134 c 0
 338 -134 344 -118 344 -109 c 0
 344 -103 341 -97 333 -92 c 0
 322 -85 308 -85 297 -85 c 2
 268 -85 l 1
 278 -7 l 1
 241 -3 213 14 194 40 c 0
 168 78 167 123 167 164 c 0xe8
 167 242 171 320 177 398 c 1
 70 398 l 1
 71 457 l 1
 180 457 l 1
 188 579 l 1xd8
EndSplineSet
EndChar

StartChar: Tcaron
Encoding: 356 356 242
Width: 500
GlyphClass: 2
Flags: MW
HStem: -1 21G<208 279 208 208> 561 63<31 208 31 462 279 462 279 279>
VStem: 208 71<-1 561 -1 561>
LayerCount: 2
Fore
SplineSet
397 755 m 1
 266 656 l 1
 244 656 l 1
 121 753 l 1
 154 792 l 1
 257 721 l 1
 369 789 l 1
 397 755 l 1
31 624 m 1
 462 624 l 1
 462 561 l 1
 279 561 l 1
 279 -1 l 1
 208 -1 l 1
 208 561 l 1
 31 561 l 1
 31 624 l 1
EndSplineSet
EndChar

StartChar: tcaron
Encoding: 357 357 243
Width: 500
GlyphClass: 2
Flags: MW
HStem: -9 67<277 299> 398 60<224 373 224 373 223 373>
VStem: 142 72<186 203> 162 79<579 592> 422 61<589.5 659.5>
LayerCount: 2
Fore
SplineSet
483 639 m 0xc8
 483 597 454 546 398 489 c 1
 371 513 l 1
 390 531 403 549 411 562 c 0
 415 568 422 583 422 596 c 0
 422 613 411 621 404 625 c 0
 397 630 381 639 381 660 c 0
 381 684 402 706 428 706 c 0
 456 706 483 680 483 639 c 0xc8
162 579 m 1xd8
 241 592 l 1xd8
 244 582 237 576 235 565 c 0
 230 540 224 458 224 458 c 1
 373 458 l 1
 373 398 l 1
 223 398 l 1
 217 338 214 279 214 219 c 0
 214 153 217 135 217 131 c 0
 224 76 260 58 294 58 c 0
 322 58 357 70 396 99 c 1
 418 42 l 1
 379 14 326 -9 272 -9 c 0
 225 -9 189 9 168 40 c 0
 142 78 142 123 142 164 c 0xe8
 142 242 145 320 151 398 c 1
 44 398 l 1
 45 457 l 1
 154 457 l 1
 162 579 l 1xd8
EndSplineSet
EndChar

StartChar: Uring
Encoding: 366 366 244
Width: 500
GlyphClass: 2
Flags: MW
HStem: -11 59<228.5 277.5 228.5 287> 603 20G<50 128 128 128 388 454 454 454> 619 43<242.5 265 242.5 278.5> 753 42<243 265>
VStem: 50 69<215 591> 50 79<615 619 615 623 615 623> 161 51<695.5 721 695.5 731> 295 49<695 721> 388 66<217 218 218 623>
LayerCount: 2
Fore
SplineSet
344 707 m 0xb380
 344 659 304 619 253 619 c 0
 202 619 161 659 161 707 c 0
 161 755 202 795 253 795 c 0
 304 795 344 755 344 707 c 0xb380
212 708 m 0
 212 683 231 662 254 662 c 0
 276 662 295 682 295 708 c 0
 295 734 276 753 254 753 c 0
 232 753 212 734 212 708 c 0
50 623 m 1xd780
 128 623 l 2
 128 622 129 620 129 618 c 0xd780
 129 612 125 608 123 604 c 0
 119 599 119 595 119 591 c 2
 119 214 l 2
 119 183 120 153 134 122 c 0
 156 74 204 48 253 48 c 0
 302 48 349 73 372 121 c 0
 387 153 388 185 388 217 c 2
 388 623 l 1
 454 623 l 1
 454 218 l 2
 454 173 452 129 429 86 c 0
 393 21 323 -11 251 -11 c 0
 177 -11 109 21 74 85 c 0
 51 128 50 171 50 215 c 2xdb80
 50 623 l 1xd780
EndSplineSet
EndChar

StartChar: uring
Encoding: 367 367 245
Width: 500
GlyphClass: 2
Flags: MW
HStem: -11 58<221 250.5> 0 21G<364 440 364 364> 437 20G<63 135 135 135 362 435 435 435> 517 43<245.5 268 245.5 281.5> 651 42<246 268>
VStem: 62 73<186.5 202 186.5 202> 165 51<592.5 618 592.5 629> 299 49<593 619> 362 73<29 42 206 457>
LayerCount: 2
Fore
SplineSet
348 605 m 0x3f80
 348 557 307 517 256 517 c 0
 205 517 165 557 165 605 c 0
 165 653 205 693 256 693 c 0
 307 693 348 653 348 605 c 0x3f80
216 605 m 0
 216 580 234 560 257 560 c 0
 279 560 299 580 299 606 c 0
 299 632 279 651 257 651 c 0
 235 651 216 631 216 605 c 0
63 457 m 1
 135 457 l 1
 135 202 l 2
 135 171 135 136 151 104 c 0
 169 68 203 47 239 47 c 0xbf80
 283 47 323 77 344 115 c 0
 359 143 362 171 362 206 c 2
 362 457 l 1
 435 457 l 1
 435 42 l 2
 435 29 436 14 440 0 c 1
 364 0 l 1x7f80
 362 12 362 23 362 35 c 2
 363 70 l 1
 333 20 279 -11 222 -11 c 0xbf80
 162 -11 107 22 80 82 c 0
 62 122 62 162 62 202 c 2
 63 457 l 1
EndSplineSet
EndChar

StartChar: Uhungarumlaut
Encoding: 368 368 246
Width: 500
GlyphClass: 2
Flags: MW
HStem: -11 59<228.5 277.5 228.5 287> 603 20G<50 128 128 128 388 454 454 454>
VStem: 50 69<215 591> 50 79<615 619 615 623 615 623> 388 66<217 218 218 623>
LayerCount: 2
Fore
SplineSet
411 811 m 1xc8
 458 746 l 1
 312 645 l 1
 280 686 l 1
 411 811 l 1xc8
233 811 m 1
 280 746 l 1
 134 645 l 1
 102 686 l 1
 233 811 l 1
50 623 m 1xd8
 128 623 l 2
 128 622 129 620 129 618 c 0xd8
 129 612 125 608 123 604 c 0
 119 599 119 595 119 591 c 2
 119 214 l 2
 119 183 120 153 134 122 c 0
 156 74 204 48 253 48 c 0
 302 48 349 73 372 121 c 0
 387 153 388 185 388 217 c 2
 388 623 l 1
 454 623 l 1
 454 218 l 2
 454 173 452 129 429 86 c 0
 393 21 323 -11 251 -11 c 0
 177 -11 109 21 74 85 c 0
 51 128 50 171 50 215 c 2xe8
 50 623 l 1xd8
EndSplineSet
EndChar

StartChar: uhungarumlaut
Encoding: 369 369 247
Width: 500
GlyphClass: 2
Flags: MW
HStem: -11 58<221 250.5> 0 21G<364 440 364 364> 437 20G<63 135 135 135 362 435 435 435>
VStem: 62 73<186.5 202 186.5 202> 362 73<29 42 206 457>
LayerCount: 2
Fore
SplineSet
214 699 m 1x38
 277 657 l 1
 176 522 l 1
 126 552 l 1
 214 699 l 1x38
369 699 m 1
 432 657 l 1
 332 522 l 1
 281 552 l 1
 369 699 l 1
63 457 m 1
 135 457 l 1
 135 202 l 2
 135 171 135 136 151 104 c 0
 169 68 203 47 239 47 c 0xb8
 283 47 323 77 344 115 c 0
 359 143 362 171 362 206 c 2
 362 457 l 1
 435 457 l 1
 435 42 l 2
 435 29 436 14 440 0 c 1
 364 0 l 1x78
 362 12 362 23 362 35 c 2
 363 70 l 1
 333 20 279 -11 222 -11 c 0xb8
 162 -11 107 22 80 82 c 0
 62 122 62 162 62 202 c 2
 63 457 l 1
EndSplineSet
EndChar

StartChar: Ydieresis
Encoding: 376 376 248
Width: 500
GlyphClass: 2
Flags: MW
HStem: 0 21G<220 296 220 220> 604 20G<28 108 108 108> 688 101<144 172 322.5 349.5>
VStem: 108 101<624 752 724 752> 220 76<0 246 0 246> 287 100<724 752>
LayerCount: 2
Fore
SplineSet
209 738 m 0xf0
 209 710 186 688 158 688 c 0
 130 688 108 710 108 738 c 0
 108 766 130 789 158 789 c 0
 186 789 209 766 209 738 c 0xf0
387 738 m 0xf4
 387 710 363 688 336 688 c 0
 309 688 287 710 287 738 c 0
 287 766 309 789 336 789 c 0
 363 789 387 766 387 738 c 0xf4
28 624 m 1
 108 624 l 1
 261 321 l 1
 399 623 l 1
 473 623 l 1
 296 246 l 1
 296 0 l 1
 220 0 l 1
 220 246 l 1xf8
 28 624 l 1
EndSplineSet
EndChar

StartChar: Zacute
Encoding: 377 377 249
Width: 500
GlyphClass: 2
Flags: MW
HStem: -1 62<138 432 432 439 138 462> 560 63<62 364 62 447>
LayerCount: 2
Fore
SplineSet
308 792 m 1
 348 722 l 1
 179 660 l 1
 155 702 l 1
 308 792 l 1
62 623 m 1
 447 623 l 1
 446 574 l 1
 138 61 l 1
 432 61 l 2
 446 61 450 69 462 67 c 1
 462 -1 l 1
 50 -1 l 1
 50 48 l 1
 364 560 l 1
 62 560 l 1
 62 623 l 1
EndSplineSet
EndChar

StartChar: zacute
Encoding: 378 378 250
Width: 500
GlyphClass: 2
Flags: MW
HStem: -1 62<147 419 419 426 147 450> 395 63<71 333 71 426>
LayerCount: 2
Fore
SplineSet
292 699 m 1
 354 657 l 1
 254 522 l 1
 204 552 l 1
 292 699 l 1
71 458 m 1
 426 458 l 1
 426 408 l 1
 147 61 l 1
 419 61 l 2
 433 61 438 69 450 67 c 1
 450 -1 l 1
 50 -1 l 1
 50 48 l 1
 333 395 l 1
 71 395 l 1
 71 458 l 1
EndSplineSet
EndChar

StartChar: Zdotaccent
Encoding: 379 379 251
Width: 500
GlyphClass: 2
Flags: MW
HStem: -1 62<138 432 432 439 138 462> 560 63<62 364 62 447> 680 103<239.5 268.5>
VStem: 203 103<717 745>
LayerCount: 2
Fore
SplineSet
254 783 m 0
 283 783 306 759 306 731 c 0
 306 703 283 680 254 680 c 0
 225 680 203 703 203 731 c 0
 203 759 225 783 254 783 c 0
62 623 m 1
 447 623 l 1
 446 574 l 1
 138 61 l 1
 432 61 l 2
 446 61 450 69 462 67 c 1
 462 -1 l 1
 50 -1 l 1
 50 48 l 1
 364 560 l 1
 62 560 l 1
 62 623 l 1
EndSplineSet
EndChar

StartChar: zdot
Encoding: 380 380 252
Width: 500
GlyphClass: 2
Flags: MW
HStem: -1 62<147 419 419 426 147 450> 395 63<71 333 71 426> 553 103<239.5 268.5>
VStem: 203 103<590 618>
LayerCount: 2
Fore
SplineSet
71 458 m 1
 426 458 l 1
 426 408 l 1
 147 61 l 1
 419 61 l 2
 433 61 438 69 450 67 c 1
 450 -1 l 1
 50 -1 l 1
 50 48 l 1
 333 395 l 1
 71 395 l 1
 71 458 l 1
254 656 m 0
 283 656 306 632 306 604 c 0
 306 576 283 553 254 553 c 0
 225 553 203 576 203 604 c 0
 203 632 225 656 254 656 c 0
EndSplineSet
EndChar

StartChar: Zcaron
Encoding: 381 381 253
Width: 500
GlyphClass: 2
Flags: MW
HStem: -1 62<138 432 432 439 138 462> 560 63<62 364 62 447>
LayerCount: 2
Fore
SplineSet
397 755 m 1
 266 656 l 1
 244 656 l 1
 121 753 l 1
 154 792 l 1
 257 721 l 1
 369 789 l 1
 397 755 l 1
62 623 m 1
 447 623 l 1
 446 574 l 1
 138 61 l 1
 432 61 l 2
 446 61 450 69 462 67 c 1
 462 -1 l 1
 50 -1 l 1
 50 48 l 1
 364 560 l 1
 62 560 l 1
 62 623 l 1
EndSplineSet
EndChar

StartChar: zcaron
Encoding: 382 382 254
Width: 500
GlyphClass: 2
Flags: MW
HStem: -1 62<147 419 419 426 147 450> 395 63<71 333 71 426>
LayerCount: 2
Fore
SplineSet
377 659 m 1
 266 518 l 1
 244 518 l 1
 134 659 l 1
 180 694 l 1
 258 591 l 1
 339 693 l 1
 377 659 l 1
71 458 m 1
 426 458 l 1
 426 408 l 1
 147 61 l 1
 419 61 l 2
 433 61 438 69 450 67 c 1
 450 -1 l 1
 50 -1 l 1
 50 48 l 1
 333 395 l 1
 71 395 l 1
 71 458 l 1
EndSplineSet
EndChar

StartChar: florin
Encoding: 402 402 255
Width: 500
GlyphClass: 2
Flags: MW
HStem: -175 67<96 113.5 96 120.5> 326 57<80 201 80 206 275 398> 616 57<356.5 385.5>
LayerCount: 2
Fore
SplineSet
480 621 m 1
 447 554 l 2
 444 554 440 556 439 562 c 0
 438 566 438 569 436 574 c 0
 427 594 402 616 369 616 c 0
 344 616 316 602 299 566 c 0
 285 535 283 496 281 465 c 2
 275 383 l 1
 398 383 l 1
 398 326 l 1
 270 326 l 1
 246 24 l 2
 243 -20 236 -64 213 -104 c 0
 184 -153 141 -175 100 -175 c 0
 69 -175 39 -162 18 -140 c 1
 59 -76 l 1
 65 -79 67 -85 69 -89 c 0
 74 -98 87 -108 105 -108 c 0
 122 -108 141 -99 156 -72 c 0
 173 -41 177 -3 179 27 c 2
 201 326 l 1
 80 326 l 1
 80 383 l 1
 206 383 l 1
 212 475 l 2
 215 513 218 551 237 589 c 0
 264 644 315 673 368 673 c 0
 411 673 452 654 480 621 c 1
EndSplineSet
EndChar

StartChar: dotlessj
Encoding: 567 567 256
Width: 500
GlyphClass: 2
Flags: MW
HStem: -174 62<164.5 211.5 164.5 220.5> 398 60<126 296 126 369>
VStem: 296 73<18 32 32 398 398 398>
LayerCount: 2
Fore
SplineSet
126 458 m 1
 369 458 l 1
 369 32 l 2
 369 -8 368 -45 348 -83 c 0
 317 -144 253 -174 188 -174 c 0
 131 -174 81 -151 48 -110 c 1
 95 -48 l 1
 101 -53 100 -60 104 -67 c 0
 108 -73 137 -112 192 -112 c 0
 231 -112 267 -92 284 -55 c 0
 295 -31 296 -6 296 18 c 2
 296 398 l 1
 126 398 l 1
 126 458 l 1
EndSplineSet
EndChar

StartChar: circumflex
Encoding: 710 710 257
Width: 500
GlyphClass: 2
Flags: MW
HStem: 509 176<245 331>
VStem: 134 243<543 544>
LayerCount: 2
Fore
SplineSet
134 544 m 1
 245 685 l 1
 267 685 l 1
 377 543 l 1
 331 509 l 1
 253 612 l 1
 172 510 l 1
 134 544 l 1
EndSplineSet
EndChar

StartChar: caron
Encoding: 711 711 258
Width: 500
GlyphClass: 2
Flags: MW
HStem: 518 176<180 266 180 244>
VStem: 134 243<659 659>
LayerCount: 2
Fore
SplineSet
377 659 m 1
 266 518 l 1
 244 518 l 1
 134 659 l 1
 180 694 l 1
 258 591 l 1
 339 693 l 1
 377 659 l 1
EndSplineSet
EndChar

StartChar: uni02C9
Encoding: 713 713 259
Width: 500
GlyphClass: 2
Flags: MW
HStem: 565 57<124 377 124 377>
VStem: 124 253<565 622 565 622>
LayerCount: 2
Fore
SplineSet
124 622 m 1
 377 622 l 1
 377 565 l 1
 124 565 l 1
 124 622 l 1
EndSplineSet
EndChar

StartChar: uni02CB
Encoding: 715 715 260
Width: 500
GlyphClass: 2
Flags: MW
HStem: 522 177<243 281>
VStem: 180 152<552 657>
LayerCount: 2
Fore
SplineSet
243 699 m 1
 332 552 l 1
 281 522 l 1
 180 657 l 1
 243 699 l 1
EndSplineSet
EndChar

StartChar: breve
Encoding: 728 728 261
Width: 500
GlyphClass: 2
Flags: MW
HStem: 524 52<225.5 271 225.5 280.5>
VStem: 101 296<601 604>
LayerCount: 2
Fore
SplineSet
137 646 m 1
 160 610 201 576 250 576 c 0
 292 576 335 602 369 646 c 1
 397 604 l 1
 363 558 311 524 250 524 c 0
 195 524 141 553 101 601 c 1
 137 646 l 1
EndSplineSet
EndChar

StartChar: dotaccent
Encoding: 729 729 262
Width: 500
GlyphClass: 2
Flags: MW
HStem: 553 103<239.5 268.5>
VStem: 203 103<590 618>
LayerCount: 2
Fore
SplineSet
254 656 m 0
 283 656 306 632 306 604 c 0
 306 576 283 553 254 553 c 0
 225 553 203 576 203 604 c 0
 203 632 225 656 254 656 c 0
EndSplineSet
EndChar

StartChar: ring
Encoding: 730 730 263
Width: 500
GlyphClass: 2
Flags: MW
HStem: 517 43<245.5 268 245.5 281.5> 651 42<246 268>
VStem: 165 51<592.5 618 592.5 629> 299 49<593 619>
LayerCount: 2
Fore
SplineSet
348 605 m 0
 348 557 307 517 256 517 c 0
 205 517 165 557 165 605 c 0
 165 653 205 693 256 693 c 0
 307 693 348 653 348 605 c 0
216 605 m 0
 216 580 234 560 257 560 c 0
 279 560 299 580 299 606 c 0
 299 632 279 651 257 651 c 0
 235 651 216 631 216 605 c 0
EndSplineSet
EndChar

StartChar: ogonek
Encoding: 731 731 264
Width: 500
GlyphClass: 2
Flags: MW
HStem: -176 46<359 366.5> -20 20G<355 422 422 422>
VStem: 276 62<-109.5 -99>
LayerCount: 2
Fore
SplineSet
355 0 m 1
 422 0 l 1
 388 -30 363 -57 355 -67 c 0
 348 -75 338 -87 338 -102 c 0
 338 -117 350 -130 368 -130 c 0
 374 -130 381 -129 392 -125 c 0
 408 -119 418 -112 424 -107 c 1
 424 -153 l 1
 404 -170 379 -176 354 -176 c 0
 302 -176 276 -148 276 -115 c 0
 276 -83 303 -43 355 0 c 1
EndSplineSet
EndChar

StartChar: tilde
Encoding: 732 732 265
Width: 500
GlyphClass: 2
Flags: MW
HStem: 543 59<323.5 345.5 323.5 348.5> 619 57<188 223>
LayerCount: 2
Fore
SplineSet
135 558 m 1
 91 589 l 1
 128 648 165 676 204 676 c 0
 245 676 271 646 284 633 c 0
 300 616 314 602 333 602 c 0
 358 602 370 625 392 654 c 1
 429 614 l 1
 394 571 367 543 330 543 c 0
 272 543 245 619 201 619 c 0
 175 619 159 597 135 558 c 1
EndSplineSet
EndChar

StartChar: hungarumlaut
Encoding: 733 733 266
Width: 500
GlyphClass: 2
Flags: MW
HStem: 522 177<176 214 214 332>
VStem: 126 306<552 657>
LayerCount: 2
Fore
SplineSet
214 699 m 1
 277 657 l 1
 176 522 l 1
 126 552 l 1
 214 699 l 1
369 699 m 1
 432 657 l 1
 332 522 l 1
 281 552 l 1
 369 699 l 1
EndSplineSet
EndChar

StartChar: quoteleft
Encoding: 8216 8216 267
Width: 500
GlyphClass: 2
Flags: MW
HStem: 367 271<233 289>
VStem: 182 76<424.5 511.5>
LayerCount: 2
Fore
SplineSet
182 450 m 0
 182 502 219 567 289 638 c 1
 323 607 l 1
 299 585 282 561 272 545 c 0
 267 537 258 520 258 503 c 0
 258 482 272 474 281 468 c 0
 290 462 309 451 309 424 c 0
 309 394 284 367 251 367 c 0
 215 367 182 399 182 450 c 0
EndSplineSet
EndChar

StartChar: quoteright
Encoding: 8217 8217 268
Width: 500
GlyphClass: 2
Flags: MW
HStem: 367 271<199 254>
VStem: 230 76<492.5 580.5>
LayerCount: 2
Fore
SplineSet
306 555 m 0
 306 503 269 438 199 367 c 1
 165 397 l 1
 189 419 205 443 215 459 c 0
 220 467 230 484 230 501 c 0
 230 522 216 531 207 537 c 0
 198 543 179 554 179 581 c 0
 179 611 203 638 236 638 c 0
 272 638 306 606 306 555 c 0
EndSplineSet
EndChar

StartChar: quotesinglbase
Encoding: 8218 8218 269
Width: 500
GlyphClass: 2
Flags: MW
HStem: -168 271<199 254>
VStem: 230 76<-42.5 45.5>
LayerCount: 2
Fore
SplineSet
306 20 m 0
 306 -32 269 -97 199 -168 c 1
 165 -138 l 1
 189 -116 205 -92 215 -76 c 0
 220 -68 230 -51 230 -34 c 0
 230 -13 216 -5 207 1 c 0
 198 7 179 18 179 45 c 0
 179 75 203 103 236 103 c 0
 272 103 306 71 306 20 c 0
EndSplineSet
EndChar

StartChar: quotedblleft
Encoding: 8220 8220 270
Width: 500
GlyphClass: 2
Flags: MW
HStem: 367 271<130 185 185 371.5>
VStem: 79 75<424.5 511.5> 286 75<424.5 511.5>
LayerCount: 2
Fore
SplineSet
286 450 m 0
 286 502 322 567 392 638 c 1
 426 607 l 1
 402 585 386 561 376 545 c 0
 371 537 361 520 361 503 c 0
 361 482 376 474 385 468 c 0
 394 462 413 451 413 424 c 0
 413 394 388 367 355 367 c 0
 319 367 286 399 286 450 c 0
79 450 m 0
 79 502 115 567 185 638 c 1
 219 607 l 1
 195 585 179 561 169 545 c 0
 164 537 154 520 154 503 c 0
 154 482 169 474 178 468 c 0
 187 462 206 451 206 424 c 0
 206 394 181 367 148 367 c 0
 112 367 79 399 79 450 c 0
EndSplineSet
EndChar

StartChar: quotedblright
Encoding: 8221 8221 271
Width: 500
GlyphClass: 2
Flags: MW
HStem: 367 271<96 151 116.5 303>
VStem: 126 76<492.5 580.5> 333 76<492.5 580.5>
LayerCount: 2
Fore
SplineSet
202 555 m 0
 202 503 166 438 96 367 c 1
 61 397 l 1
 85 419 101 443 111 459 c 0
 116 467 126 484 126 501 c 0
 126 522 112 531 103 537 c 0
 94 543 75 554 75 581 c 0
 75 611 100 638 133 638 c 0
 169 638 202 606 202 555 c 0
409 555 m 0
 409 503 373 438 303 367 c 1
 269 397 l 1
 293 419 309 443 319 459 c 0
 324 467 333 484 333 501 c 0
 333 522 319 531 310 537 c 0
 301 543 282 554 282 581 c 0
 282 611 307 638 340 638 c 0
 376 638 409 606 409 555 c 0
EndSplineSet
EndChar

StartChar: quotedblbase
Encoding: 8222 8222 272
Width: 500
GlyphClass: 2
Flags: MW
HStem: -168 271<96 151 116.5 303>
VStem: 126 76<-42.5 45.5> 333 76<-42.5 45.5>
LayerCount: 2
Fore
SplineSet
409 20 m 0
 409 -32 373 -97 303 -168 c 1
 269 -138 l 1
 293 -116 309 -92 319 -76 c 0
 324 -68 333 -51 333 -34 c 0
 333 -13 319 -5 310 1 c 0
 301 7 282 18 282 45 c 0
 282 75 307 103 340 103 c 0
 376 103 409 71 409 20 c 0
202 20 m 0
 202 -32 166 -97 96 -168 c 1
 61 -138 l 1
 85 -116 101 -92 111 -76 c 0
 116 -68 126 -51 126 -34 c 0
 126 -13 112 -5 103 1 c 0
 94 7 75 18 75 45 c 0
 75 75 100 103 133 103 c 0
 169 103 202 71 202 20 c 0
EndSplineSet
EndChar

StartChar: dagger
Encoding: 8224 8224 273
Width: 500
GlyphClass: 2
Flags: MW
HStem: 397 60<49 217 49 217 284 450>
VStem: 217 67<-151 397 -151 397 457 652>
LayerCount: 2
Fore
SplineSet
217 652 m 1
 284 652 l 1
 284 457 l 1
 450 457 l 1
 450 397 l 1
 284 397 l 1
 284 -151 l 1
 217 -151 l 1
 217 397 l 1
 49 397 l 1
 49 457 l 1
 217 457 l 1
 217 652 l 1
EndSplineSet
EndChar

StartChar: daggerdbl
Encoding: 8225 8225 274
Width: 500
GlyphClass: 2
Flags: MW
HStem: 61 60<49 217 49 217 284 450> 397 60<49 217 49 217 284 450>
VStem: 217 67<-151 61 -151 61 121 397 457 652>
LayerCount: 2
Fore
SplineSet
217 652 m 1
 284 652 l 1
 284 457 l 1
 450 457 l 1
 450 397 l 1
 284 397 l 1
 284 121 l 1
 450 121 l 1
 450 61 l 1
 284 61 l 1
 284 -151 l 1
 217 -151 l 1
 217 61 l 1
 49 61 l 1
 49 121 l 1
 217 121 l 1
 217 397 l 1
 49 397 l 1
 49 457 l 1
 217 457 l 1
 217 652 l 1
EndSplineSet
EndChar

StartChar: bullet
Encoding: 8226 8226 275
Width: 500
GlyphClass: 2
Flags: MW
HStem: 213 167<232.5 279.5>
VStem: 171 170<273 319>
LayerCount: 2
Fore
SplineSet
341 296 m 0
 341 250 303 213 256 213 c 0
 209 213 171 250 171 296 c 0
 171 342 209 380 256 380 c 0
 303 380 341 342 341 296 c 0
EndSplineSet
EndChar

StartChar: ellipsis
Encoding: 8230 8230 276
Width: 500
GlyphClass: 2
Flags: MW
HStem: -11 115<49.5 82.5 222.5 255.5 394.5 427.5>
VStem: 7 118<30.5 61.5 30.5 61.5> 180 118<30.5 61.5 30.5 61.5> 352 118<30.5 61.5 30.5 61.5>
LayerCount: 2
Fore
SplineSet
470 46 m 0
 470 15 444 -11 411 -11 c 0
 378 -11 352 14 352 46 c 0
 352 77 378 104 411 104 c 0
 444 104 470 77 470 46 c 0
125 46 m 0
 125 15 99 -11 66 -11 c 0
 33 -11 7 14 7 46 c 0
 7 77 33 104 66 104 c 0
 99 104 125 77 125 46 c 0
298 46 m 0
 298 15 272 -11 239 -11 c 0
 206 -11 180 14 180 46 c 0
 180 77 206 104 239 104 c 0
 272 104 298 77 298 46 c 0
EndSplineSet
EndChar

StartChar: guilsinglleft
Encoding: 8249 8249 277
Width: 500
GlyphClass: 2
Flags: MW
VStem: 145 198<101 253 101 253>
LayerCount: 2
Fore
SplineSet
145 253 m 1
 297 400 l 1
 336 359 l 1
 215 241 l 1
 343 101 l 1
 303 61 l 1
 145 229 l 1
 145 253 l 1
EndSplineSet
EndChar

StartChar: guilsinglright
Encoding: 8250 8250 278
Width: 500
GlyphClass: 2
Flags: MW
VStem: 145 198<101 253>
LayerCount: 2
Fore
SplineSet
343 253 m 1
 343 229 l 1
 185 61 l 1
 145 101 l 1
 273 241 l 1
 152 359 l 1
 191 400 l 1
 343 253 l 1
EndSplineSet
EndChar

StartChar: fraction
Encoding: 8260 8260 279
Width: 500
GlyphClass: 2
Flags: MW
HStem: 645 20G<389 389>
LayerCount: 2
Fore
SplineSet
76 -17 m 1
 389 665 l 1
 437 638 l 1
 123 -42 l 1
 76 -17 l 1
EndSplineSet
EndChar

StartChar: uni2074
Encoding: 8308 8308 280
Width: 500
GlyphClass: 2
Flags: MW
HStem: 350 46<167 284>
VStem: 285 56<396 543 543 543>
LayerCount: 2
Fore
SplineSet
302 641 m 1
 341 641 l 1
 341 396 l 1
 404 396 l 1
 404 349 l 1
 341 349 l 1
 341 252 l 1
 284 252 l 1
 284 350 l 1
 102 350 l 1
 102 385 l 1
 302 641 l 1
285 543 m 1
 167 396 l 1
 285 396 l 1
 285 543 l 1
EndSplineSet
EndChar

StartChar: euro
Encoding: 8364 8364 281
Width: 500
GlyphClass: 2
Flags: MW
HStem: -11 60<304 347 304 349> 218 58<46 86 46 91 33 86 154 332 154 154> 356 58<46 88 33 97 159 384 46 150> 571 57<298 355.5 298 358.5>
VStem: 86 62<276 292 292 297 276 302.5>
LayerCount: 2
Fore
SplineSet
464 574 m 1
 439 506 l 1
 432 512 436 519 431 526 c 0
 430 527 392 571 325 571 c 0
 265 571 193 537 164 434 c 0
 163 429 160 421 159 414 c 1
 406 414 l 1
 384 356 l 1
 150 356 l 1
 149 339 148 319 148 297 c 2
 148 276 l 1
 354 276 l 1
 332 218 l 1
 154 218 l 1
 161 177 174 143 195 116 c 0
 230 68 281 49 327 49 c 0
 367 49 405 64 434 90 c 1
 462 40 l 1
 424 7 375 -11 323 -11 c 0
 242 -11 117 33 91 218 c 1
 33 218 l 1
 46 276 l 1
 86 276 l 1
 86 292 l 2
 86 313 86 335 88 356 c 1
 33 356 l 1
 46 414 l 1
 97 414 l 1
 104 450 115 484 132 513 c 0
 183 602 267 628 329 628 c 0
 382 628 429 609 464 574 c 1
EndSplineSet
EndChar

StartChar: trademark
Encoding: 8482 8482 282
Width: 500
GlyphClass: 2
Flags: MW
HStem: 595 40<18 104 18 239 149 239 149 149>
VStem: 104 45<320 595 320 595> 268 42<320 535 320 635> 440 42<320 535 535 535>
LayerCount: 2
Fore
SplineSet
239 635 m 1
 239 595 l 1
 149 595 l 1
 149 320 l 1
 104 320 l 1
 104 595 l 1
 18 595 l 1
 18 635 l 1
 239 635 l 1
303 635 m 1
 375 490 l 1
 412 562 l 1
 450 635 l 1
 482 635 l 1
 482 320 l 1
 440 320 l 1
 440 535 l 1
 410 480 l 1
 380 427 l 1
 365 428 l 1
 310 535 l 1
 310 320 l 1
 268 320 l 1
 268 635 l 1
 303 635 l 1
EndSplineSet
EndChar

StartChar: uparrow
Encoding: 8593 8593 283
Width: 500
VWidth: 2048
GlyphClass: 2
Flags: HMW
LayerCount: 2
Fore
SplineSet
268.03125 453.727539062 m 1
 385.625976562 335.727539062 l 1
 349.130859375 299.232421875 l 1
 284.250976562 364.112304688 l 1
 284.250976562 7.2724609375 l 1
 217.749023438 7.2724609375 l 1
 217.749023438 364.112304688 l 1
 152.869140625 299.232421875 l 1
 116.374023438 335.727539062 l 1
 234.780273438 453.727539062 l 1
 268.03125 453.727539062 l 1
EndSplineSet
EndChar

StartChar: downarrow
Encoding: 8595 8595 284
Width: 500
VWidth: 2048
GlyphClass: 2
Flags: HMW
LayerCount: 2
Fore
SplineSet
234.780273438 7.2724609375 m 1
 116.374023438 125.272460938 l 1
 152.869140625 161.767578125 l 1
 217.749023438 96.8876953125 l 1
 217.749023438 453.727539062 l 1
 284.250976562 453.727539062 l 1
 284.250976562 96.8876953125 l 1
 349.130859375 161.767578125 l 1
 385.625976562 125.272460938 l 1
 268.03125 7.2724609375 l 1
 234.780273438 7.2724609375 l 1
EndSplineSet
EndChar

StartChar: minus
Encoding: 8722 8722 285
Width: 500
GlyphClass: 2
Flags: MW
HStem: 282 61<45 456 45 456>
LayerCount: 2
Fore
SplineSet
45 343 m 1
 456 343 l 1
 456 282 l 1
 45 282 l 1
 45 343 l 1
EndSplineSet
EndChar

StartChar: visiblespace
Encoding: 9251 9251 286
Width: 500
GlyphClass: 2
Flags: MW
HStem: -65 44<95 404 95 452> -65 135<48 95 404 452 48 95>
VStem: 48 47<-21 70 -21 70 -21 70> 404 48<-21 70 -65 70>
LayerCount: 2
Fore
SplineSet
48 70 m 1x70
 95 70 l 1x70
 95 -21 l 1
 404 -21 l 1xb0
 404 70 l 1
 452 70 l 1
 452 -65 l 1
 48 -65 l 1
 48 70 l 1x70
EndSplineSet
EndChar

StartChar: CLEAN_CODE
Encoding: 57344 57344 287
Width: 1034
GlyphClass: 2
Flags: MW
HStem: 0 21G<276 358 276 276 747 830 747 747> 358 72 363 67<794 812.5> 375 63<476.5 556> 533 88<421 664 131 405>
VStem: 164 114<365 374.5 365 416 365 416> 276 82<0 61.5> 502 78<439 500 439 500 439 500> 747 83<0 122>
LayerCount: 2
Fore
SplineSet
754 676 m 1x9b80
 764 621 l 1
 902 621 l 1
 901 592 890 562 875 531 c 1
 780 531 l 1
 794 430 l 1
 827 427 856 423 883 420 c 1
 883 352 l 1
 856 360 826 363 799 363 c 1
 814 252 825 120 830 0 c 1
 747 0 l 1
 747 244 711 538 669 683 c 1
 754 676 l 1x9b80
706 370 m 1
 643 374 586 375 526 375 c 0
 478 375 430 374 381 371 c 1
 370 240 358 123 358 0 c 1
 276 0 l 1
 283 237 299 459 352 676 c 1
 437 683 l 1
 432 664 425 644 421 621 c 1xab80
 664 621 l 1
 683 533 l 1
 405 533 l 1
 398 502 394 475 389 443 c 0
 389 440 388 438 388 435 c 1
 419 438 451 438 502 438 c 1
 502 500 l 1
 580 500 l 1
 580 439 l 1
 623 439 658 438 697 435 c 1
 701 412 702 393 706 370 c 1
320 621 m 1
 303 531 l 1
 160 531 l 1
 143 562 134 592 131 621 c 1
 320 621 l 1
278 365 m 1xcd80
 257 364 229 361 206 358 c 0
 193 356 179 354 164 353 c 1
 164 416 l 1
 175 419 233 427 287 430 c 1
 282 406 278 384 278 365 c 1xcd80
EndSplineSet
EndChar

StartChar: POMODORO_DONE
Encoding: 57345 57345 288
Width: 996
GlyphClass: 2
Flags: MW
HStem: 518 85<654.5 670> 656 53<661 661> 664 51<275 289.5>
VStem: 766 107<313.5 392.5>
LayerCount: 2
Fore
SplineSet
713 246 m 1xb0
 755 259 l 1
 755 267 766 284 766 343 c 0
 766 442 710 518 630 518 c 1
 607 459 l 1
 658 432 686 381 699 333 c 0
 707 306 712 277 713 246 c 1xb0
489 787 m 1
 523 546 l 1
 533 546 l 1
 540 649 l 1
 547 660 557 670 569 679 c 0
 588 694 617 709 656 709 c 0
 729 709 771 688 794 667 c 0
 807 655 817 641 822 626 c 1
 661 656 l 1
 644 639 629 618 616 595 c 1xd0
 630 599 l 2
 638 602 649 603 660 603 c 0
 778 603 873 511 873 370 c 0
 873 119 689 3 499 3 c 0
 267 3 126 162 126 361 c 0
 126 508 221 607 339 607 c 0
 350 607 359 606 372 605 c 1
 345 634 308 664 271 664 c 1
 159 634 l 1
 162 649 170 662 182 674 c 0
 202 694 239 715 311 715 c 0
 384 715 424 678 448 651 c 1
 411 774 l 1
 489 787 l 1
EndSplineSet
EndChar

StartChar: POMODORO_ESTIMATED
Encoding: 57346 57346 289
Width: 995
GlyphClass: 2
Flags: MW
HStem: 3 70<423.5 578.5 423.5 594> 491 55<523 533 523 539> 530 73<654.5 700.5> 530 77<301.5 344.5 280 364.5> 656 53<661 661> 664 51<275 289.5>
VStem: 126 78<290 419.5 290 434.5> 799 74<292.5 419.5>
LayerCount: 2
Fore
SplineSet
501 73 m 0xa7
 656 73 799 214 799 371 c 0xa7
 799 468 744 530 657 530 c 0
 618 530 578 518 539 491 c 1xc7
 463 491 l 1
 424 517 384 530 345 530 c 0x97
 258 530 204 468 204 371 c 0
 204 209 346 73 501 73 c 0xa7
489 787 m 1
 523 546 l 1xc7
 533 546 l 1
 540 649 l 1
 547 660 557 670 569 679 c 0
 588 694 617 709 656 709 c 0
 729 709 771 688 794 667 c 0
 807 655 817 641 822 626 c 1
 661 656 l 1
 644 639 629 618 616 595 c 1
 630 599 l 2xab
 638 602 649 603 660 603 c 0
 778 603 873 511 873 370 c 0
 873 119 689 3 499 3 c 0
 267 3 126 162 126 361 c 0x97
 126 508 221 607 339 607 c 0
 350 607 359 606 372 605 c 1
 345 634 308 664 271 664 c 1
 159 634 l 1
 162 649 170 662 182 674 c 0
 202 694 239 715 311 715 c 0
 384 715 424 678 448 651 c 1
 411 774 l 1
 489 787 l 1
EndSplineSet
EndChar

StartChar: POMODORO_TICKING
Encoding: 57347 57347 290
Width: 995
GlyphClass: 2
Flags: MW
HStem: 3 126<465 528 465 594> 656 53<661 661> 664 51<275 289.5>
VStem: 126 339<261.5 327 129 434.5> 126 747<261.5 434.5>
LayerCount: 2
Fore
SplineSet
528 129 m 1xb0
 528 363 l 1
 363 469 l 1
 328 415 l 1
 465 327 l 1
 465 129 l 1
 528 129 l 1xb0
489 787 m 1
 523 546 l 1
 533 546 l 1
 540 649 l 1
 547 660 557 670 569 679 c 0
 588 694 617 709 656 709 c 0
 729 709 771 688 794 667 c 0
 807 655 817 641 822 626 c 1
 661 656 l 1
 644 639 629 618 616 595 c 1
 630 599 l 2
 638 602 649 603 660 603 c 0xc8
 778 603 873 511 873 370 c 0
 873 119 689 3 499 3 c 0
 267 3 126 162 126 361 c 0
 126 508 221 607 339 607 c 0
 350 607 359 606 372 605 c 1
 345 634 308 664 271 664 c 1
 159 634 l 1
 162 649 170 662 182 674 c 0
 202 694 239 715 311 715 c 0
 384 715 424 678 448 651 c 1
 411 774 l 1
 489 787 l 1
EndSplineSet
EndChar

StartChar: POMODORO_SQUASHED
Encoding: 57348 57348 291
Width: 996
GlyphClass: 2
Flags: MW
HStem: 3 300<383 594> 494 52<523 533 523 539> 533 74<301.5 344.5 280 364.5> 656 53<661 661> 664 51<275 289.5>
VStem: 126 78<361.5 422 361.5 434.5> 799 74<361.5 422>
LayerCount: 2
Fore
SplineSet
345 533 m 0xae
 258 533 204 470 204 374 c 0
 204 349 206 326 213 303 c 1
 790 303 l 1
 795 326 799 349 799 374 c 0xae
 799 470 744 533 657 533 c 0
 618 533 578 520 539 494 c 1xce
 463 494 l 1
 424 519 384 533 345 533 c 0xae
489 787 m 1
 523 546 l 1xce
 533 546 l 1
 540 649 l 1
 547 660 557 670 569 679 c 0
 588 694 617 709 656 709 c 0
 729 709 771 688 794 667 c 0
 807 655 817 641 822 626 c 1
 661 656 l 1xb6
 644 639 629 618 616 595 c 1
 630 599 l 2
 638 602 649 603 660 603 c 0
 778 603 873 511 873 370 c 0
 873 119 689 3 499 3 c 0
 267 3 126 162 126 361 c 0
 126 508 221 607 339 607 c 0
 350 607 359 606 372 605 c 1
 345 634 308 664 271 664 c 1
 159 634 l 1
 162 649 170 662 182 674 c 0
 202 694 239 715 311 715 c 0
 384 715 424 678 448 651 c 1
 411 774 l 1
 489 787 l 1
EndSplineSet
EndChar

StartChar: SHORT_PAUSE
Encoding: 57349 57349 292
Width: 1003
GlyphClass: 2
Flags: MW
HStem: 0 21G<318.5 461.5> 0 468<318.5 461.5> 171 81<759.5 784.5 759.5 807> 342 84<759.5 784.5>
VStem: 325 62 377 58 419 54 464 51 816 84<284.5 309>
LayerCount: 2
Fore
SplineSet
399 741 m 1xb980
 393 732 389 723 387 712 c 0xb980
 384 693 386 668 411 639 c 0
 486 543 360 501 360 494 c 1xb580
 399 570 366 570 332 630 c 0
 315 661 332 688 353 708 c 0
 365 720 380 731 399 741 c 1xb980
483 775 m 1xb580
 478 767 475 758 473 749 c 0xba80
 470 733 472 711 493 686 c 0
 560 603 450 566 450 559 c 1xb980
 482 626 455 626 425 677 c 0
 410 704 424 727 443 746 c 0
 454 757 467 766 483 775 c 1xb580
724 297 m 0xb980
 724 272 747 252 772 252 c 0
 797 252 816 272 816 297 c 0
 816 321 797 342 772 342 c 0
 747 342 724 321 724 297 c 0xb980
667 446 m 2x4980
 667 369 l 1
 690 404 728 426 772 426 c 0
 842 426 900 368 900 298 c 0
 900 228 842 171 772 171 c 0xb980
 727 171 687 194 664 230 c 1
 643 99 530 0 393 0 c 0
 244 0 117 116 117 264 c 2
 117 446 l 2
 117 461 125 468 142 468 c 2
 642 468 l 2
 659 468 667 461 667 446 c 2x4980
EndSplineSet
EndChar

StartChar: LONG_PAUSE
Encoding: 57350 57350 293
Width: 973
GlyphClass: 2
Flags: MW
HStem: 0 21G<373.5 494> 0 116<373.5 500> 0 220 665 82<675.5 772> 684 93<302 427>
VStem: 119 739
LayerCount: 2
Fore
SplineSet
858 644 m 1x94
 852 639 l 1
 835 650 798 665 746 665 c 0
 727 665 711 662 688 659 c 1
 714 650 737 637 758 621 c 0
 793 594 829 552 829 485 c 0
 829 456 823 424 808 387 c 1
 798 387 l 1
 787 416 775 441 760 464 c 0
 737 502 698 545 656 550 c 1
 669 537 681 523 692 508 c 0
 711 481 728 444 728 401 c 0
 728 370 720 338 697 303 c 1
 689 303 l 1
 659 398 593 472 553 510 c 1
 540 457 499 306 499 156 c 0
 499 141 500 131 500 116 c 1
 513 117 l 1
 549 214 l 1
 625 203 673 176 704 149 c 0
 722 134 736 117 747 100 c 1x54
 730 81 708 65 680 50 c 0
 632 25 554 0 434 0 c 0
 313 0 235 25 186 50 c 0
 157 65 135 81 119 100 c 1
 132 121 150 140 173 157 c 0
 212 186 273 215 366 220 c 1
 377 300 404 411 468 535 c 1
 406 530 296 509 200 432 c 1
 192 432 l 1
 192 467 240 635 428 651 c 1
 419 657 409 662 398 667 c 0
 379 675 351 684 318 684 c 0
 286 684 250 676 207 653 c 1
 202 660 l 1
 216 681 233 701 253 718 c 0
 288 747 336 777 403 777 c 0
 451 777 507 762 571 719 c 1x2c
 582 724 594 729 607 733 c 0
 630 740 658 747 693 747 c 0
 752 747 818 726 858 644 c 1x94
EndSplineSet
EndChar

StartChar: AWAY
Encoding: 57351 57351 294
Width: 978
GlyphClass: 2
Flags: MW
HStem: 5 788<263 544.5> 166 272<641 801> 607 186<226.5 338.5>
VStem: 133 65<508.5 551.5 508.5 617> 280 64<544.5 551.5>
LayerCount: 2
Fore
SplineSet
777 438 m 0x78
 825 438 848 416 848 389 c 0
 848 318 735 330 735 287 c 0
 735 265 758 249 758 222 c 0
 758 183 714 166 665 166 c 0
 617 166 584 151 584 127 c 0
 584 110 594 95 594 75 c 0
 594 35 568 5 521 5 c 0
 311 5 133 344 133 541 c 0
 133 693 217 793 309 793 c 0
 368 793 423 753 466 661 c 0
 549 481 664 438 777 438 c 0x78
238 455 m 0
 261 455 280 487 280 530 c 0
 280 573 261 607 238 607 c 0
 215 607 198 573 198 530 c 0
 198 487 215 455 238 455 c 0
387 500 m 0
 411 500 430 527 430 562 c 0
 430 597 411 625 387 625 c 0
 363 625 344 597 344 562 c 0
 344 527 363 500 387 500 c 0
EndSplineSet
EndChar

StartChar: PAIR_PROGRAMMING
Encoding: 57352 57352 295
Width: 1019
GlyphClass: 2
Flags: MW
HStem: -1 172<388.5 447.5 388.5 509.5> 259 121<491 543 491 544.5> 468 149<294 444.5> 678 53<289 304>
VStem: 131 183<290 356 290 434.5> 472 63<664 664> 592 57<621 621 621 697> 592 296<10 457 179 457 293 697 293 697>
LayerCount: 2
Fore
SplineSet
535 144 m 2xfe
 535 0 l 1
 524 0 515 -1 504 -1 c 0
 272 -1 131 146 131 357 c 0
 131 512 232 617 356 617 c 0
 367 617 378 616 391 615 c 1
 363 646 324 678 284 678 c 1
 166 646 l 1
 170 662 178 676 191 688 c 0
 214 709 251 731 327 731 c 0
 403 731 447 692 472 664 c 1
 433 794 l 1
 515 808 l 1
 519 795 522 782 525 767 c 0
 530 742 535 709 535 678 c 2
 535 473 l 2
 535 446 526 438 513 438 c 0
 484 438 461 468 428 468 c 0
 359 468 314 392 314 320 c 0
 314 260 352 171 425 171 c 0
 470 171 479 201 512 201 c 0
 523 201 535 193 535 144 c 2xfe
649 621 m 1
 668 621 l 2
 791 621 888 531 888 383 c 0
 888 203 755 53 592 10 c 1
 592 179 l 2
 592 228 568 259 521 259 c 0xfd
 459 259 450 229 425 229 c 0
 389 229 372 280 372 320 c 0
 372 362 391 408 430 408 c 0
 457 408 461 380 521 380 c 0
 565 380 592 415 592 460 c 2
 592 697 l 1
 620 716 651 731 699 731 c 0
 770 731 806 710 826 687 c 0
 838 674 845 660 848 644 c 1
 688 674 l 1
 671 655 661 644 649 621 c 1
EndSplineSet
EndChar

StartChar: INTERNAL_INTERRUPTION
Encoding: 57353 57353 296
Width: 399
GlyphClass: 2
Flags: MW
HStem: 2 179<174.5 224.5> 259 491
VStem: 110 179<66.5 116.5>
LayerCount: 2
Fore
SplineSet
110 92 m 0
 110 141 149 181 200 181 c 0
 249 181 289 141 289 92 c 0
 289 41 249 2 200 2 c 0
 149 2 110 41 110 92 c 0
115 320 m 2
 89 750 l 1
 310 750 l 1
 284 320 l 2
 280 237 119 240 115 320 c 2
EndSplineSet
EndChar

StartChar: EXTERNAL_INTERRUPTION
Encoding: 57354 57354 297
Width: 524
GlyphClass: 2
Flags: MW
HStem: 0 21G<160 160 160 203>
VStem: 59 412<329 529>
LayerCount: 2
Fore
SplineSet
160 0 m 1
 235 372 l 1
 77 316 l 1
 59 329 l 1
 110 753 l 1
 346 752 l 1
 271 489 l 1
 460 546 l 1
 471 529 l 1
 203 0 l 1
 160 0 l 1
EndSplineSet
EndChar

StartChar: uniE0A0
Encoding: 57504 57504 298
Width: 500
GlyphClass: 2
Flags: MW
VStem: 72 132<-247 57 363 854> 344 80<446 589>
LayerCount: 2
Fore
SplineSet
204 -247 m 1
 72 -247 l 1
 72 57 l 2
 72 109 85 151 110 184 c 0
 127 207 154 229 191 251 c 2
 264 294 l 2
 293 311 314 332 326 355 c 0
 338 378 344 408 344 446 c 2
 344 589 l 1
 244 589 l 1
 384 737 l 1
 524 589 l 1
 424 589 l 1
 424 421 l 2
 424 365 415 323 398 293 c 0
 381 263 355 238 321 218 c 2
 285 196 l 2
 255 178 235 160 224 142 c 0
 211 121 204 93 204 57 c 2
 204 -247 l 1
204 363 m 1
 72 286 l 1
 72 854 l 1
 204 854 l 1
 204 363 l 1
EndSplineSet
EndChar

StartChar: uniE0A1
Encoding: 57505 57505 299
Width: 500
GlyphClass: 2
Flags: MW
HStem: 368 57<168 336 168 336>
VStem: 93 75<425 759 425 759 425 759> 151 76<-59 26 -59 333> 339 76<264 333 -59 333>
LayerCount: 2
Fore
SplineSet
336 425 m 1xd0
 336 368 l 1
 93 368 l 1
 93 759 l 1
 168 759 l 1
 168 425 l 1
 336 425 l 1xd0
339 333 m 1
 415 333 l 1
 415 -59 l 1
 335 -59 l 1
 217 196 l 1
 227 26 l 1
 227 -59 l 1
 151 -59 l 1
 151 333 l 1xb0
 230 333 l 1
 349 77 l 1
 339 264 l 1
 339 333 l 1
EndSplineSet
EndChar

StartChar: uniE0A2
Encoding: 57506 57506 300
Width: 500
GlyphClass: 2
Flags: MW
HStem: 6 103<104.5 281 228 281 228 382> 352 81<246 262> 647 56<243.5 264.5>
VStem: 60 135<287 305.5 287 367 287 389> 60 168<109 249 109 367 109 389> 118 65<433 566 433 586> 281 168<109 249 249 249> 314 135<287 305.5> 325 66<433 566 433 578.5>
LayerCount: 2
Fore
SplineSet
127 6 m 2xe1
 82 6 60 27 60 68 c 2
 60 367 l 2xf1
 60 411 79 433 118 433 c 1
 118 566 l 2
 118 606 131 639 158 665 c 0
 184 690 216 703 254 703 c 0
 292 703 325 690 351 665 c 0
 378 639 391 606 391 566 c 2
 391 433 l 1xe480
 430 433 449 411 449 367 c 2
 449 68 l 2
 449 27 427 6 382 6 c 2
 127 6 l 2xe1
254 647 m 0
 233 647 216 639 203 625 c 0
 190 611 183 591 183 566 c 2
 183 433 l 1
 325 433 l 1
 325 566 l 2xe480
 325 591 319 611 306 625 c 0
 293 639 275 647 254 647 c 0
281 109 m 1xea
 281 249 l 1xea
 303 259 314 276 314 298 c 0
 314 313 308 325 296 336 c 0
 284 347 270 352 254 352 c 0
 238 352 224 347 212 336 c 0
 200 325 195 313 195 298 c 0xf1
 195 276 206 259 228 249 c 1
 228 109 l 1
 281 109 l 1xea
EndSplineSet
EndChar

StartChar: uniE0A3
Encoding: 57507 57507 301
Width: 1229
GlyphClass: 2
Flags: MW
HStem: 776.906 141.992 1594 160<414 449 449 844 414 414>
VStem: 224.33 192.67 376.722 197.731 869.16 200.25
LayerCount: 2
Fore
SplineSet
869.16015625 689.774414062 m 1xd8
 1069.41015625 689.774414062 l 1
 1069.41015625 -278.354492188 l 1
 859.084960938 -278.354492188 l 1
 550.5234375 350.928710938 l 1
 574.453125 -68.59375 l 1
 574.453125 -278.354492188 l 1
 376.721679688 -278.354492188 l 1
 376.721679688 689.774414062 l 1
 584.528320312 689.774414062 l 1
 895.608398438 58.3388671875 l 1
 869.16015625 519.813476562 l 1
 869.16015625 689.774414062 l 1xd8
844 918.8984375 m 1
 844 776.90625 l 1
 224.330078125 776.90625 l 1
 224.330078125 1754 l 1
 449 1754 l 1
 844 1754 l 1
 844 1594 l 1
 414 1594 l 1
 417 918.8984375 l 1xe8
 844 918.8984375 l 1
EndSplineSet
EndChar

StartChar: uniE0B0
Encoding: 57520 57520 302
Width: 500
GlyphClass: 2
Flags: W
LayerCount: 2
Fore
SplineSet
-60 893 m 1
 528 314 l 1
 -60 -268 l 1
 -60 893 l 1
EndSplineSet
EndChar

StartChar: uniE0B1
Encoding: 57521 57521 303
Width: 500
GlyphClass: 2
Flags: W
LayerCount: 2
Fore
SplineSet
-142 852 m 1
 -96 894 l 1
 509 316 l 1
 -63 -252 l 1
 -109 -210 l 1
 420 316 l 1
 -142 852 l 1
EndSplineSet
EndChar

StartChar: uniE0B2
Encoding: 57522 57522 304
Width: 500
GlyphClass: 2
Flags: W
LayerCount: 2
Fore
SplineSet
591 -288.099609375 m 1
 0 334.5 l 1
 591 935.900390625 l 1
 591 -288.099609375 l 1
EndSplineSet
EndChar

StartChar: uniE0B3
Encoding: 57523 57523 305
Width: 500
GlyphClass: 2
Flags: W
LayerCount: 2
Fore
SplineSet
96.75 322 m 1
 627.5 -211 l 1
 581.5 -253 l 1
 7.75 322 l 1
 567.5 871 l 1
 613.5 829 l 1
 96.75 322 l 1
EndSplineSet
EndChar

StartChar: uniE0B4
Encoding: 57524 57524 306
Width: 1233
GlyphClass: 2
Flags: MW
VStem: -121.32 1195.6
LayerCount: 2
Fore
SplineSet
-121.3203125 1888.07226562 m 1
 74.6796875 1888.07226562 273.29296875 1830.57910156 474.51953125 1715.59179688 c 0
 874.360351562 1485.61914062 1074.28027344 1140.65917969 1074.28027344 680.711914062 c 0
 1074.28027344 220.764648438 874.360351562 -122.887695312 474.51953125 -350.248046875 c 0
 273.29296875 -467.84765625 74.6796875 -526.6484375 -121.3203125 -526.6484375 c 1
 -121.3203125 1888.07226562 l 1
EndSplineSet
EndChar

StartChar: uniE0B5
Encoding: 57525 57525 307
Width: 1233
GlyphClass: 2
Flags: MW
VStem: 925.28 149
LayerCount: 2
Fore
SplineSet
474.51953125 -582.248046875 m 1
 874.360351562 -354.887695312 1074.28027344 168.764648438 1074.28027344 628.711914062 c 0
 1074.28027344 1088.65917969 874.360351562 1613.61914062 474.51953125 1843.59179688 c 1
 325.51953125 1843.59179688 l 1
 725.360351562 1613.61914062 925.280273438 1088.65917969 925.280273438 628.711914062 c 0
 925.280273438 168.764648438 722.638671875 -350.166015625 325.51953125 -582.248046875 c 1
 474.51953125 -582.248046875 l 1
EndSplineSet
EndChar

StartChar: uniE0B6
Encoding: 57526 57526 308
Width: 1233
GlyphClass: 2
Flags: MW
VStem: -80.2803 1195.6
LayerCount: 2
Fore
SplineSet
1245.3203125 1899.07226562 m 1
 1049.3203125 1899.07226562 850.70703125 1841.57910156 649.48046875 1726.59179688 c 0
 249.639648438 1496.61914062 49.7197265625 1151.65917969 49.7197265625 691.711914062 c 0
 49.7197265625 231.764648438 249.639648438 -111.887695312 649.48046875 -339.248046875 c 0
 850.70703125 -456.84765625 1049.3203125 -515.6484375 1245.3203125 -515.6484375 c 1
 1245.3203125 1899.07226562 l 1
EndSplineSet
EndChar

StartChar: uniE0B7
Encoding: 57527 57527 309
Width: 1233
GlyphClass: 2
Flags: MW
VStem: 325.52 149
LayerCount: 2
Fore
SplineSet
1065.28027344 -582.248046875 m 1
 665.439453125 -354.887695312 465.51953125 168.764648438 465.51953125 628.711914062 c 0
 465.51953125 1088.65917969 665.439453125 1613.61914062 1065.28027344 1843.59179688 c 1
 1214.28027344 1843.59179688 l 1
 814.439453125 1613.61914062 614.51953125 1088.65917969 614.51953125 628.711914062 c 0
 614.51953125 168.764648438 817.161132812 -350.166015625 1214.28027344 -582.248046875 c 1
 1065.28027344 -582.248046875 l 1
EndSplineSet
EndChar

StartChar: uniE0B8
Encoding: 57528 57528 310
Width: 1233
GlyphClass: 2
Flags: W
LayerCount: 2
Fore
SplineSet
-195.565429688 -534.172851562 m 1
 -195.565429688 1970.17285156 l 1
 2310.56542969 -534.172851562 l 1
 -195.565429688 -534.172851562 l 1
EndSplineSet
EndChar

StartChar: uniE0B9
Encoding: 57529 57529 311
Width: 1233
GlyphClass: 2
Flags: W
LayerCount: 2
Fore
SplineSet
2311.77148438 -534.172851562 m 1
 -194.359375 1970.17285156 l 1
 -316.771484375 1970.17285156 l 1
 2189.359375 -534.172851562 l 1
 2311.77148438 -534.172851562 l 1
EndSplineSet
EndChar

StartChar: uniE0BA
Encoding: 57530 57530 312
Width: 1233
GlyphClass: 2
Flags: W
LayerCount: 2
Fore
SplineSet
2276.56542969 -534.172851562 m 1
 2276.56542969 1970.17285156 l 1
 -229.565429688 -534.172851562 l 1
 2276.56542969 -534.172851562 l 1
EndSplineSet
EndChar

StartChar: uniE0BB
Encoding: 57531 57531 313
Width: 1233
GlyphClass: 2
Flags: W
LayerCount: 2
Fore
SplineSet
-316.771484375 -534.172851562 m 1
 2189.359375 1970.17285156 l 1
 2311.77148438 1970.17285156 l 1
 -194.359375 -534.172851562 l 1
 -316.771484375 -534.172851562 l 1
EndSplineSet
EndChar

StartChar: uniE0BC
Encoding: 57532 57532 314
Width: 1233
GlyphClass: 2
Flags: W
LayerCount: 2
Fore
SplineSet
-195.565429688 1970.17285156 m 1
 -195.565429688 -534.172851562 l 1
 2310.56542969 1970.17285156 l 1
 -195.565429688 1970.17285156 l 1
EndSplineSet
EndChar

StartChar: uniE0BD
Encoding: 57533 57533 315
Width: 1233
GlyphClass: 2
Flags: W
LayerCount: 2
Fore
SplineSet
2311.77148438 1970.17285156 m 1
 -194.359375 -534.172851562 l 1
 -316.771484375 -534.172851562 l 1
 2189.359375 1970.17285156 l 1
 2311.77148438 1970.17285156 l 1
EndSplineSet
EndChar

StartChar: uniE0BE
Encoding: 57534 57534 316
Width: 1233
GlyphClass: 2
Flags: W
LayerCount: 2
Fore
SplineSet
2276.56542969 1970.17285156 m 1
 2276.56542969 -534.172851562 l 1
 -229.565429688 1970.17285156 l 1
 2276.56542969 1970.17285156 l 1
EndSplineSet
EndChar

StartChar: uniE0BF
Encoding: 57535 57535 317
Width: 1233
GlyphClass: 2
Flags: W
LayerCount: 2
Fore
SplineSet
-316.771484375 1970.17285156 m 1
 2189.359375 -534.172851562 l 1
 2311.77148438 -534.172851562 l 1
 -194.359375 1970.17285156 l 1
 -316.771484375 1970.17285156 l 1
EndSplineSet
EndChar

StartChar: uniE0C0
Encoding: 57536 57536 318
Width: 2048
GlyphClass: 2
Flags: MW
HStem: -16.3516 71.124
LayerCount: 2
Fore
SplineSet
2157.16992188 445.6328125 m 1
 1962.0625 357.671875 1714.88183594 239.341796875 1616.59082031 239.100585938 c 0
 1569.16894531 238.987304688 1486.07421875 221.028320312 1392.25488281 253.274414062 c 0
 1245.9140625 303.5546875 1063.72265625 418.727539062 994.192382812 362.440429688 c 0
 917.9921875 300.784179688 905.24609375 278.837890625 805.399414062 247.271484375 c 1
 821.926757812 233.928710938 l 2
 905.483398438 166.466796875 922.353515625 77.455078125 1054.88671875 54.7724609375 c 0
 1136.74023438 40.767578125 1238.29296875 55.015625 1319.64355469 78.185546875 c 1
 1191.87890625 3.9775390625 1007.36914062 -17.923828125 879.50390625 -16.3515625 c 0
 715.841796875 -14.33984375 525.756835938 162.7109375 345.399414062 94.490234375 c 0
 263.87109375 63.62890625 161.860351562 -26.9697265625 167.859375 -138.1875 c 2
 168.82421875 -156.08203125 l 1
 279.216796875 -97.0234375 345.249023438 -108.879882812 450.018554688 -166.71484375 c 0
 527.240234375 -209.3359375 617.419921875 -210.513671875 702.4765625 -230.544921875 c 1
 556.8515625 -255.03125 423.041015625 -327.984375 281.978515625 -294.123046875 c 0
 125.0546875 -256.453125 -49.361328125 -525.240234375 -200.970703125 -496.669921875 c 1
 -196.959960938 -279.114257812 -194.39453125 1058.36523438 -194.518554688 1348.09472656 c 0
 -194.580078125 1490.42871094 -204.66796875 1676.29101562 -201.388671875 1845.66015625 c 1
 -144.4921875 1843.40039062 -150.38671875 1833.87988281 -99.2001953125 1775.53417969 c 0
 10.90625 1660.19921875 148.4296875 1731.66308594 260.15625 1801.82617188 c 0
 367.912109375 1869.49414062 476.38671875 1879.90625 579.877929688 1828.49902344 c 1
 449.877929688 1832.89453125 410.693359375 1760.81054688 323.8359375 1658.59277344 c 0
 297.756835938 1627.90722656 198.797851562 1596.30566406 145.8984375 1557.81152344 c 0
 118.43359375 1537.82617188 98.5341796875 1508.98144531 122.329101562 1477.18359375 c 0
 225.405273438 1339.43164062 472.990234375 1536.32421875 547.33984375 1588.140625 c 0
 688.859375 1686.77148438 792.756835938 1714.67480469 944.408203125 1646.5546875 c 0
 1089.46484375 1581.40820312 1195.50292969 1618.07519531 1312.35644531 1685.85351562 c 1
 1205.43847656 1586.30761719 1098.30566406 1565.83203125 951.385742188 1512.44726562 c 0
 870.913085938 1483.21289062 825.921875 1436.70898438 816.5 1386.11914062 c 0
 802.200195312 1309.32226562 870.771484375 1236.24707031 988.9921875 1214.42773438 c 0
 1193.33496094 1176.71289062 1353.72460938 1342.81933594 1529.91503906 1396.2109375 c 0
 1749.1328125 1462.64355469 1961.5390625 1426.48632812 2166.16113281 1319.97363281 c 0
 2362.81640625 1217.59960938 2533.46289062 1146.57519531 2722.15820312 1245.57617188 c 1
 2419.63671875 979.899414062 2025.0390625 1300.61523438 1690.25585938 1076.73535156 c 0
 1589.47558594 1009.34375 1525.91308594 960.36328125 1406.99609375 929.3125 c 1
 1423.17578125 915.135742188 l 2
 1494.92382812 852.272460938 1625.93066406 848.674804688 1704.796875 832.27734375 c 0
 1757.12304688 821.395507812 1813.92480469 824.846679688 1861.32421875 833.60546875 c 1
 1765.16992188 788.38671875 1679.65429688 755.135742188 1564.70117188 748.967773438 c 0
 1401.42480469 740.212890625 1281.45800781 759.489257812 1151.40527344 619.892578125 c 2
 1128.74316406 595.568359375 l 1
 1161.5625 600.862304688 l 2
 1224.15625 610.958984375 1343.921875 511.805664062 1460.60351562 444.534179688 c 0
 1534.25195312 402.07421875 1609.84179688 390.876953125 1649.74414062 379.384765625 c 0
 1727.55371094 356.961914062 1966.83203125 400.935546875 2157.16992188 445.6328125 c 1
EndSplineSet
EndChar

